<?xml version="1.0" encoding="utf-8"?>
<!-- Generator: Adobe Illustrator 24.2.3, SVG Export Plug-In . SVG Version: 6.00 Build 0)  -->
<svg version="1.1" id="Layer_1" xmlns="http://www.w3.org/2000/svg" xmlns:xlink="http://www.w3.org/1999/xlink" x="0px" y="0px"
	 viewBox="0 0 1600 1200" style="enable-background:new 0 0 1600 1200;" xml:space="preserve">
<style type="text/css">
	.st0{opacity:0.2;fill:#FFFFFF;enable-background:new    ;}
	.st1{fill:#DADDDF;}
	.st2{fill:#B2B6BB;}
	.st3{opacity:0.1;enable-background:new    ;}
	.st4{fill:#868A91;}
	.st5{fill:#3F4249;}
	.st6{opacity:0.4;enable-background:new    ;}
	.st7{fill:#21252B;}
	.st8{fill:#F4F4F4;}
	.st9{fill:#61656D;}
	.st10{fill:#4843DD;}
	.st11{opacity:0.2;enable-background:new    ;}
	.st12{opacity:0.3;}
	.st13{opacity:0.3;enable-background:new    ;}
	.st14{opacity:0.2;}
	.st15{fill:#15001B;}
	.st16{fill:#FFFFFF;}
	.st17{opacity:0.4;}
	.st18{opacity:0.7;fill:#F4F4F4;enable-background:new    ;}
	.st19{opacity:0.1;fill:#4843DD;enable-background:new    ;}
	.st20{opacity:5.000000e-02;enable-background:new    ;}
	.st21{fill:#190E30;}
	.st22{fill:#0F4B5C;}
	.st23{opacity:0.1;fill:#FFFFFF;enable-background:new    ;}
</style>
<path class="st0" d="M682.6,679.1l-1.3-0.6c-12.4-5.3-23.8-3.1-30.5,5.9c-10.7,14.3-21.8,21.9-33.3,22.5c-5.7,0.3-11.4-1.1-16.4-4
	c-2.9-1.4-5.6-3.1-8.1-5.2l-2.6,2.5c2.6,2.6,5.5,4.8,8.8,6.5c5.1,2.4,10.7,3.6,16.3,3.3c12.8-0.7,25.1-8.8,36.5-24.2
	c5.5-7.3,14.9-9,25.4-4.5c1.1,0.5,2.1,1,3.2,1.5c10.9,5.1,20.8,16.5,19.2,27.5c-1.2,8.3-7,29.7-33.5,49.1
	c-13.4,9.6-28.4,16.5-44.3,20.3c-23.3,5.8-63.3,21.3-69.5,60.5c-1.7,11.2-0.3,22.6,4,33.1c3.2,8,7.2,22.9-1.3,33.1
	c-11.1,13.5-41,15.4-86.4,5.6c-16.6-4-33.4-6.5-50.4-7.3c-26.2-1.4-63.5,0.7-92.1,18.6c-21.7,13.6-35.7,34.3-41.4,61.6
	c-2.3,11.3-3,22.9-2,34.4c2.1,27.1,2.7,95.2-36.3,141.3c-22.2,26.3-54,41.2-94.5,44.3l0.2,3.1c40.7-3.5,72.8-18.8,95.4-45.6
	c40-47.4,39.4-116.9,37.3-144.5c-0.9-11.1-0.3-22.3,2-33.2c5.5-26,18.8-45.9,39.5-58.8c53.1-33.2,138.4-11,139.3-10.8
	c47.8,10.3,78.3,7.9,90.6-7.1c9.9-11.9,5.5-28.7,2-37.5c-4-9.7-5.2-20.4-3.7-30.8c5.8-36.8,44-51.5,66.3-57
	c16.5-3.9,32-11.1,45.8-21c27.9-20.4,34-43.1,35.2-51.9C703.8,697.3,693.9,685.2,682.6,679.1z"/>
<path class="st1" d="M501.7,661.8c-7,5.8-13.6,12.2-19.5,19.1l23.3-6.4l4.9-4.8L501.7,661.8z"/>
<path class="st2" d="M482.2,680.8c0,0-6.1,37.4,57.6,109l17.9-10.3l-52.2-105.1L482.2,680.8z"/>
<path class="st3" d="M482.2,680.8c0,0-6.1,37.4,57.6,109l17.9-10.3l-52.2-105.1L482.2,680.8z"/>
<path class="st4" d="M505.5,674.5c0,0,15,64.8,52.2,105.1l4.4-3.4l-48.4-110.4L505.5,674.5z"/>
<path class="st5" d="M685.1,819.5c0,0,8.2,15.4,14.4,20.7c0,0,29.2,14.8,42-12.8c0,0-4.4-11.1-16-9.3c0,0-6.7,0-9.2-3.8
	c-1.3-1.9-2.5-3.8-3.8-5.5l-2.1-2.9L685.1,819.5z"/>
<path class="st6" d="M694.6,834.7c1.4,2,3.1,3.9,4.9,5.5c0,0,29.2,14.8,42-12.8c-0.9-2.1-2.2-4-3.9-5.5l-0.4,0.3
	C727.6,846.9,698,836,694.6,834.7z"/>
<path class="st1" d="M716.4,814.4c-1.3-1.9-2.5-3.8-3.8-5.5l-2.2-2.9l-21.7,11.7l5.8,4.3l7.5,8.8l14,1.5c0,0,2.2-12.4,11.7-13.8
	l-0.2-0.4c-0.6,0-1.3,0.1-1.9,0.2C725.6,818.3,718.9,818.2,716.4,814.4z"/>
<path class="st7" d="M712.6,809.3l0.2-0.4l-2.4-3l-25.2,13.6c0,0,1.5,2.8,2.2,3.9C689.8,823.9,702.4,822,712.6,809.3z"/>
<path class="st5" d="M641.9,856.8c0,0,8.2,15.5,14.4,20.7c0,0,29.2,14.8,42-12.8c0,0-4.4-11.1-16-9.2c0,0-6.6,0-9.2-3.8
	c-1.2-1.9-2.5-3.8-3.8-5.5l-2.2-2.9L641.9,856.8z"/>
<path class="st6" d="M651.4,872c1.4,2,3.1,3.9,4.9,5.5c0,0,29.2,14.8,42-12.8c-0.9-2.1-2.2-4-3.9-5.5l-0.4,0.3
	C684.4,884.2,654.7,873.3,651.4,872z"/>
<path class="st1" d="M673.1,851.7c-1.2-1.9-2.5-3.8-3.8-5.5l-2.2-2.9l-21.7,11.7l5.8,4.3l7.5,8.8l14,1.5c0,0,2.2-12.4,11.7-13.8
	l-0.2-0.4c-0.6,0-1.3,0.1-1.9,0.2C682.3,855.5,675.7,855.5,673.1,851.7z"/>
<path class="st7" d="M668.1,845.2l0.1-0.4l-1.2-1.5l-25.2,13.5c0,0,0.4,0.7,1,1.8C645.4,859.1,661.3,861.2,668.1,845.2z"/>
<path class="st8" d="M649.5,614.4L649.5,614.4L649.5,614.4z M659,617.1c0.1,0.5,0.2,0.9,0.5,1.2c0.7,0.7,1.5,1.1,2.5,1.1
	c1,0,1.9-0.1,2.8-0.3l0.3-0.1c1.1-0.3,2.3-0.4,3.5-0.3c1.2,0.1,2.2,0.6,3,1.5c0.4,0.5,0.6,1,0.6,1.6c0,0.3-0.1,0.6-0.2,0.8
	c-0.1,0.3-0.3,0.5-0.5,0.7c-0.6,0.3-1.3,0.5-2,0.5h-0.3c-2.9,0.2-5.7,1.2-8.1,3c-0.9,0.7-1.8,1.5-2.7,2.3c-0.3,0.3-0.6,0.6-1,0.9
	c-0.8,0.8-1.7,1.5-2.6,2.2c-1.2,1-2.7,1.8-4.3,2.1c-0.3,0.1-0.6,0.1-0.9,0c-1.4-3.5-3.6-6.6-6.5-9.1c-1.9-1.6-4.1-2.9-6.5-3.5
	c0.2-0.5,0.6-0.9,0.9-1.3c1.7-1.9,3.6-3.5,5.8-4.7c0.4-0.3,0.9-0.5,1.3-0.7c0.7-0.3,1.4-0.8,2.1-1.2c0.3-0.3,0.7-0.6,1-0.9
	c0.5-0.5,1-0.9,1.6-1.3c0.5-0.2,1-0.4,1.5-0.6l2.7-0.9l7.5-2.6c-1.2,0.7-6.1,3.6-7.3,4.3c-1.1,0.6-2.2,1.3-3.1,2.1
	c-0.5,0.5-1.1,0.3-1.2,0.5c0.3-0.4,0.6-0.7,1-1c1-0.7,2.1-1.4,3.2-1.9c2.4-1.2,4.8-2.5,7.1-4c0.6-0.4,1.2-0.8,1.8-1.1
	c1-0.7,2-1.3,3.1-1.7c0.4-0.2,0.9-0.3,1.4-0.3c0.2,0,0.4,0.1,0.6,0.2c0.2,0.1,0.3,0.2,0.4,0.4c0.1,0.3,0.2,0.6,0.1,0.9
	c-0.2,1.5-1,2.9-2.2,3.8c-0.7,0.6-1.5,1.2-2.3,1.7c-0.7,0.5-1.4,1-2,1.5c-1.2,0.8-2.2,1.9-2.9,3.2c-0.1,0.2-0.1,0.5-0.1,0.8
	L659,617.1z"/>
<path class="st9" d="M634.3,622.5l1.6-1.4c0,0,11.5,1.1,15.4,15.5l-1.2,2.4L634.3,622.5z"/>
<path class="st10" d="M568.1,645.1c0,0,10.4-1.4,17.4-0.6c1.7,0.2,3.3,0.2,5,0c1.9-0.3,3.8-0.7,5.6-1.5c1-0.4,2.1-0.6,3.2-0.6
	c0.4,0,0.8,0.1,1.1,0.2c0,0,2-3.6,5-2.2c0,0,1.5-3,4.5-1.8c0,0-0.8-1.9,5.2-4.8c3.2-1.6,6.2-3.5,8.9-5.8l4.1-3.5
	c0,0,4.8-3.8,9.1-1.2c3.1,1.4,5.8,3.4,8,6c2.2,2.5,3.8,5.5,4.8,8.8c0,0,1.6,3.9-3.1,7.5l-18.8,20.1c-1.8,1.9-4.1,3.3-6.6,4.1
	l-32,9.4l-13.1-9.2l-8.1-18.9L568.1,645.1z"/>
<path class="st11" d="M638.5,646.8c-3.7,4.5-10.9,8.1-10.9,8.1c-3.7,4.6-11.8,7.2-11.8,7.2l-9.5,3.4c-13,6.3-12.4,1.5-12.4,1.5
	c1.8-6.1-2.5-3.5-2.5-3.5c-5.8,5.1-14,7.1-14,7.1l11.8,8.2l32-9.4c2.5-0.7,4.8-2.1,6.6-4.1l18.8-20.1c4.7-3.6,3.1-7.5,3.1-7.5
	c-0.7-2.5-1.9-4.9-3.4-7l-1.9-2.3l-0.2-0.2C650.4,636.8,638.5,646.8,638.5,646.8z"/>
<g class="st12">
	<path class="st13" d="M661.4,607.6l-9.1,5l-3.2,2.7c0,0,0,0-0.1,0.1c0,0-0.1,0-0.1,0c0,0-0.1,0-0.1,0c0,0-0.1,0-0.1-0.1
		c0,0-0.1-0.1-0.1-0.2s0-0.1,0.1-0.2l3.2-2.7l9.2-5c0,0,0.1,0,0.1,0c0,0,0.1,0,0.1,0c0,0,0.1,0,0.1,0c0,0,0,0,0.1,0.1
		c0,0,0,0.1,0,0.1C661.5,607.6,661.4,607.6,661.4,607.6L661.4,607.6z"/>
</g>
<path class="st9" d="M537.8,769.9l-0.3,0.7c-0.7,1.4-0.9,3-0.5,4.4c0.4,1.5,1.3,2.8,2.6,3.6c0.9,0.6,1.9,0.9,2.9,0.9
	c1,0,2-0.2,2.9-0.7c0.8-0.4,1.6-1,2.1-1.7c0.5-0.7,0.9-1.6,1-2.5c0.1-0.4,0-0.8-0.1-1.2L537.8,769.9z"/>
<g class="st12">
	<path class="st13" d="M650.8,611l-5.1,4.1c0,0-0.1,0.1-0.2,0.1c-0.1,0-0.1,0-0.2-0.1c0,0-0.1-0.1-0.1-0.2c0-0.1,0-0.1,0.1-0.2
		l5.1-4.1c0,0,0.1-0.1,0.2-0.1s0.1,0,0.2,0.1c0,0,0.1,0.1,0.1,0.2C650.9,610.9,650.9,611,650.8,611L650.8,611z"/>
</g>
<path class="st10" d="M516.2,675.7l-4.5,3.8l10.2,44c0,0,15.5,34.2,41.9,59.7c2.8,2.7,5.9,5.1,9.2,7.2c7.1,4.5,21,12.8,33.2,16.6
	c0,0,5.2,9.3,6.7,7.4c0,0,3.1,4.1,5.8,4.2c0,0-0.3,2.5,3.9,4.8c0,0,13.2,21,14.8,27.5c0,0,1.7,6.3,7.5,6.1c0.6,0,1.3-0.1,2-0.1
	c3.2-0.1,13.2-1.1,18.7-10.5c0.2-0.3,0.3-0.6,0.5-0.8c0.8-1.2,1.2-2.5,1.4-3.9c0.1-1.4-0.1-2.8-0.6-4.1c-0.3-0.8-0.7-1.6-1-2.4
	c-3.8-10-8.1-19.9-12.9-29.4l-18.7-24.8l-15-13.8c0,0,20.5,0.7,36.5-0.4c0,0,1,2.7,2.7,3c0.2,0.7,0.6,1.4,1.1,2
	c0.5,0.6,1.2,1,1.9,1.2c0,0,14.1,25.5,16.2,32.9c0.7,2.4,2.2,5,2.1,7.4c-0.1,3.7,1.6,8.9,7.5,8.2c0,0,11.4-0.8,23.6-13
	c1-0.9,1.6-2.1,1.9-3.4c0.4-1.8,0.2-3.7-0.6-5.4c-0.8-1.6-1.4-3.3-1.8-5.1c-1.1-4.9-15.9-29.3-15.3-33.8l-26.1-32l-31-1.2
	c-2-0.1-3.9-0.3-5.9-0.7c-2.7-0.5-6.9-1.1-8.9,0c-0.9,0.5-1.9,0.7-3,0.6c-1.9-0.3-3.8-0.3-5.6,0c-1.7-1.2-3.7-1.7-5.7-1.6
	c0,0-9.8-16.3-12.2-24.1l-17.2-31.7c-0.4-4-1.5-7.9-3.5-11.4c-1.9-3.5-4.6-6.6-7.8-9.1L516.2,675.7z"/>
<path class="st11" d="M619.3,767.1c0,0,20.5,0.7,36.5-0.4c0,0,1,2.7,2.7,3c0.2,0.7,0.6,1.4,1.1,2s1.2,1,1.9,1.2
	c0,0,14.1,25.5,16.2,32.9c0.7,2.4,2.2,5,2.1,7.4c-0.1,3.7,1.6,8.9,7.5,8.2c0,0,8.2-0.5,18.1-8.1c-5.9,3-9.6,3.5-12,3
	c-1.1-0.2-2.1-0.8-2.9-1.7c-0.7-0.9-1.2-2-1.2-3.1c-0.1-1.4-0.3-2.8-0.5-4.2c-1.2-5.7-4-10.9-8.1-15c-11-11.4-11.7-18.8-11.5-21.5
	c0.1-0.5,0.3-1.1,0.5-1.5c0.7-1.4-5.4-2.2-5.4-2.2c-3.6-0.7,1.7-7.5,1.7-7.5c-5.1,2.5-6,0.1-6.2-1.2c0-0.4,0-0.7,0.1-1.1
	c0.2-1.7-0.5-2.2-1.2-2.4c-0.5-0.1-1.1,0-1.5,0.3c-0.3,0.2-0.6,0.3-0.9,0.3s-0.7,0-1,0c-0.3-0.1-0.6-0.2-0.9-0.4
	c-0.3-0.2-0.5-0.4-0.7-0.7c-0.9-1.3-3.5-0.2-3.5-0.2c-16.3,7.4-25.3,0.6-25.3,0.6c-5.5-5.5-10.4-4.6-10.4-4.6s1,12.5,2.3,14.3
	L619.3,767.1z"/>
<path class="st5" d="M586.9,712.1c0,0,2.6,7.2,11.6,4.8c0,0,4.1-1.1,5.7,0.8l4.6,8.1c0,0,6.1-4.5,2.1-12.2c0,0-1.4-3.7-6.7-5.1
	c-1.4-0.3-2.9-0.4-4.4-0.1c-1.7,0.3-4.6,0.4-5.9-1.8L586.9,712.1z"/>
<path class="st11" d="M643.6,828.1c0.3-1.5,0.1-3.1-0.6-4.5c-0.7-1.4-1.7-2.6-3.1-3.4l-26.8-23.3c-2.1,0-4.2-0.8-5.7-2.3
	c-2.7-2.6-5.2-5.4-7.5-8.3c-1.4-1.7-2.6-3.7-3.5-5.8c-0.3-0.9-0.9-1.7-1.7-2.3c-0.9-0.6-1.9-1-3-0.9c-0.6,0-1.2-0.1-1.8-0.3
	c-1.4-0.5-2.6-1.4-3.5-2.7c-2.3-3.2-6.9-4.5-6.9-4.5l-3.1-2.3c-2.3-0.6-4.5-1.9-6.1-3.7c-0.8-1-1.3-2.2-1.4-3.5
	c-0.1-1.3,0.1-2.6,0.7-3.7c3.2-6.1,1.9-6.2,1.9-6.2l-10.8-4.3c-1.8,1.4-3.8,2.6-5.8,3.7c-1.6,0.8-3.3,1-5,0.7
	c-1.7-0.3-3.3-1.2-4.5-2.4c-4.1-4.6-7.3-9.9-9.5-15.6c-0.3-0.9-0.8-1.7-1.3-2.5c-0.7-1.1-1.4-2.2-2-3.4c-0.6-1.1-0.9-2.3-1-3.5
	c-0.1-1.2,0.1-2.5,0.5-3.6c0.3-1,0.4-2,0.1-3c-0.2-1-0.8-1.9-1.5-2.6c-0.4-0.4-0.8-0.7-1.3-0.9c-2-1.1-4.3-5.7-4.3-5.7
	c-3.5,1.8-7.3-1.4-7.3-1.4l4.1,17.5c0,0,15.5,34.2,41.9,59.7c2.8,2.7,5.9,5.1,9.2,7.2c7.2,4.5,21,12.8,33.2,16.6
	c0,0,5.2,9.3,6.7,7.4c0,0,3.1,4.1,5.8,4.2c0,0-0.3,2.5,3.9,4.8c0,0,13.2,21,14.8,27.5c0,0,1.7,6.3,7.5,6.1c0.7,0,1.3-0.1,2-0.1
	c2.7-0.1,10.5-0.8,16.1-7l-0.1-0.7c-7.8,5-10.7,1.8-11.6,0.4c-0.3-0.5-0.6-1-0.9-1.4c-5.5-7.3-6.8-13.4-7-16.6
	C643.4,830.5,643.4,829.3,643.6,828.1L643.6,828.1z"/>
<path class="st5" d="M567.4,727.2c0,0,5.9,8.6-9.4,21.3c-0.5,0.4-0.9,0.7-1.4,1.1c-2.9,2.1-14.8,10.9-18.7,19.8
	c-0.3,0.6-0.3,1.3-0.2,2c0.4,1.7,1.3,3.2,2.6,4.3c0.8,0.7,1.8,1.2,2.9,1.3c1.1,0.1,2.2-0.2,3.1-0.8c0.1-0.1,0.2-0.2,0.3-0.3
	c0.6-0.5,1-1.1,1.3-1.9c0.9-2.3,4.5-9.5,14.5-16c0,0,14.3-9.2,15.8-19.9c0.5-2.8,0.4-5.8-0.2-8.6c-0.6-2.8-1.8-5.5-3.5-7.9
	L567.4,727.2z"/>
<path class="st3" d="M586.9,712.1c0,0,2.6,7.2,11.6,4.8c0,0,4.1-1.1,5.7,0.8l4.6,8.1c0,0,6.1-4.5,2.1-12.2c0,0-1.4-3.7-6.7-5.1
	c-1.4-0.3-2.9-0.4-4.4-0.1c-1.7,0.3-4.6,0.4-5.9-1.8L586.9,712.1z"/>
<path class="st3" d="M567.4,727.2c0,0,5.9,8.6-9.4,21.3c-0.5,0.4-0.9,0.7-1.4,1.1c-2.9,2.1-14.8,10.9-18.7,19.8
	c-0.3,0.6-0.3,1.3-0.2,2c0.4,1.7,1.3,3.2,2.6,4.3c0.8,0.7,1.8,1.2,2.9,1.3c1.1,0.1,2.2-0.2,3.1-0.8c0.1-0.1,0.2-0.2,0.3-0.3
	c0.6-0.5,1-1.1,1.3-1.9c0.9-2.3,4.5-9.5,14.5-16c0,0,14.3-9.2,15.8-19.9c0.5-2.8,0.4-5.8-0.2-8.6c-0.6-2.8-1.8-5.5-3.5-7.9
	L567.4,727.2z"/>
<path class="st9" d="M575.6,720.7c-2.4,2.9-5.4,5.2-8.7,6.8l-0.1,0l-1.8-2.1l8.8-6.9L575.6,720.7z"/>
<path class="st2" d="M548.4,697.7l36.6-26.9l15.1,27.1l-37.5,29.6L548.4,697.7z"/>
<path class="st9" d="M594.7,705.8c-2.4,2.9-5.4,5.2-8.7,6.8h-0.1l-1.8-2.1l8.8-6.9L594.7,705.8z"/>
<path class="st2" d="M540.3,696.2l14.6,31.5l7.8-0.2l-14.2-29.8L540.3,696.2z"/>
<path class="st13" d="M540.3,696.2l14.6,31.5l7.8-0.2l-14.2-29.8L540.3,696.2z"/>
<path class="st2" d="M585.1,670.8l-8-0.1l-36.8,25.5l8.2,1.5L585.1,670.8z"/>
<path class="st11" d="M585.1,670.8l-8-0.1l-36.8,25.5l8.2,1.5L585.1,670.8z"/>
<path class="st10" d="M562.7,700.3c1.7,0,3-1.4,3-3c0-1.7-1.4-3-3-3c-1.7,0-3,1.4-3,3C559.7,698.9,561.1,700.3,562.7,700.3z"/>
<path class="st10" d="M560.2,698.9c-0.4-0.6-0.6-1.3-0.5-2c0.1-0.7,0.4-1.3,0.9-1.8c-0.2,0.1-0.4,0.2-0.5,0.3
	c-0.3,0.2-0.6,0.5-0.8,0.8c-0.2,0.3-0.4,0.7-0.5,1.1c-0.1,0.4-0.1,0.8,0,1.2c0.1,0.4,0.2,0.8,0.4,1.1c0.2,0.3,0.5,0.6,0.8,0.8
	c0.3,0.2,0.7,0.4,1.1,0.5c0.4,0.1,0.8,0.1,1.2,0c0.4-0.1,0.8-0.2,1.1-0.4c0.2-0.1,0.3-0.2,0.5-0.4c-0.7,0.3-1.4,0.3-2.1,0.1
	C561.2,699.9,560.6,699.5,560.2,698.9L560.2,698.9z"/>
<path class="st10" d="M572.5,713.5c2.6-1.3,3.6-4.7,2.2-7.6c-1.4-2.9-4.7-4.2-7.3-2.9c-2.6,1.3-3.6,4.7-2.2,7.6
	C566.6,713.5,569.9,714.8,572.5,713.5z"/>
<path class="st13" d="M572.5,713.5c2.6-1.3,3.6-4.7,2.2-7.6c-1.4-2.9-4.7-4.2-7.3-2.9c-2.6,1.3-3.6,4.7-2.2,7.6
	C566.6,713.5,569.9,714.8,572.5,713.5z"/>
<path class="st10" d="M565.2,710.6c-0.6-1.2-0.8-2.5-0.6-3.8c0.2-1.3,0.9-2.4,1.9-3.3c-0.3,0.1-0.7,0.2-1,0.4
	c-1.4,0.7-2.4,1.9-2.9,3.4c-0.5,1.5-0.4,3.1,0.3,4.4c0.7,1.4,1.9,2.4,3.3,2.9c1.5,0.5,3.1,0.4,4.4-0.2c0.3-0.2,0.6-0.3,0.9-0.6
	c-1.3,0.3-2.6,0.1-3.8-0.5C566.7,712.7,565.7,711.8,565.2,710.6L565.2,710.6z"/>
<path class="st11" d="M560.2,698.9c-0.4-0.6-0.6-1.3-0.5-2c0.1-0.7,0.4-1.3,0.9-1.8c-0.2,0.1-0.4,0.2-0.5,0.3
	c-0.3,0.2-0.6,0.5-0.8,0.8c-0.2,0.3-0.4,0.7-0.5,1.1c-0.1,0.4-0.1,0.8,0,1.2c0.1,0.4,0.2,0.8,0.4,1.1c0.2,0.3,0.5,0.6,0.8,0.8
	c0.3,0.2,0.7,0.4,1.1,0.5c0.4,0.1,0.8,0.1,1.2,0c0.4-0.1,0.8-0.2,1.1-0.4c0.2-0.1,0.3-0.2,0.5-0.4c-0.7,0.3-1.4,0.3-2.1,0.1
	C561.2,699.9,560.6,699.5,560.2,698.9L560.2,698.9z"/>
<path class="st6" d="M565.2,710.6c-0.6-1.2-0.8-2.5-0.6-3.8c0.2-1.3,0.9-2.4,1.9-3.3c-0.3,0.1-0.7,0.2-1,0.4
	c-1.4,0.7-2.4,1.9-2.9,3.4c-0.5,1.5-0.4,3.1,0.3,4.4c0.7,1.4,1.9,2.4,3.3,2.9c1.5,0.5,3.1,0.4,4.4-0.2c0.3-0.2,0.6-0.3,0.9-0.6
	c-1.3,0.3-2.6,0.1-3.8-0.5C566.7,712.7,565.7,711.8,565.2,710.6L565.2,710.6z"/>
<path class="st10" d="M567.3,690.2l16.1-12l2.2,4.2l-16.2,12L567.3,690.2z"/>
<path class="st11" d="M582.5,678.9l1.8,3.4L569,693.7l0.4,0.8l16.2-12l-2.2-4.2L582.5,678.9z"/>
<path class="st10" d="M574.5,698.7l13.8-10.7l0.7,1.4l-14,10.8L574.5,698.7z"/>
<path class="st10" d="M575.9,701.1l13.8-10.7l0.7,1.4l-14,10.8L575.9,701.1z"/>
<path class="st10" d="M577,703.8l13.8-10.7l0.7,1.4l-14,10.8L577,703.8z"/>
<path class="st10" d="M578.5,706.2l13.8-10.7l0.7,1.4l-14,10.8L578.5,706.2z"/>
<g class="st14">
	<path class="st11" d="M574.5,698.7l13.8-10.7l0.7,1.4l-14,10.8L574.5,698.7z"/>
	<path class="st11" d="M575.9,701.1l13.8-10.7l0.7,1.4l-14,10.8L575.9,701.1z"/>
	<path class="st11" d="M577,703.8l13.8-10.7l0.7,1.4l-14,10.8L577,703.8z"/>
	<path class="st11" d="M578.5,706.2l13.8-10.7l0.7,1.4l-14,10.8L578.5,706.2z"/>
</g>
<path class="st2" d="M561.2,654.9c-0.3,0.5-0.6,0.9-0.8,1.2L561.2,654.9z"/>
<path class="st10" d="M564.2,641.3l-0.1-0.1c-0.2-0.4-0.5-0.9-0.7-1.3c-0.5-1-1-2-1.7-2.9c-0.1-3-0.7-6.1-1.7-9
	c-1.9-5.7-5-10.8-9.1-15.2c-1.7-2-3.6-3.8-5.7-5.4c-2.8-1.6-5.8-2.9-8.9-4c-1.9-0.7-3.8-1.3-5.8-1.5c-8.8-1.1-17.6,1.2-24.6,6.6
	c-9.5,7.4-14.8,20-13.4,32.3c0.5,4.1,1.6,8.1,3.3,11.8c3.5,7.4,9.1,13.6,16.1,17.8c1.2,0.7,2.3,1.4,3.4,2.2l1.3,4
	c14,6.4,32.9-2.3,39.9-7.6c11.5-8.8,12.9-17,11.6-24.5L564.2,641.3z"/>
<path class="st10" d="M512.3,655.4c0.1,1.5-0.1,3-0.4,4.5c1-1.2,3.4-4.2,3.4-5.8c-0.1-2.9-1-5.8-2.7-8.2c-1.1-1.6-2.6-2.9-4.3-3.9
	c-3.1-2-2.1-2-5.7-1.9c-1.6,0.2-3.2,0.8-4.5,1.8c0.2,0,1.6,0.3,1.9,0.3c1.7,0.2,3.3,0.8,4.7,1.8C508.9,647,511.7,650.5,512.3,655.4z
	"/>
<path class="st13" d="M512.3,655.4c0.1,1.5-0.1,3-0.4,4.5c1-1.2,3.4-4.2,3.4-5.8c-0.1-2.9-1-5.8-2.7-8.2c-1.1-1.6-2.6-2.9-4.3-3.9
	c-3.1-2-2.1-2-5.7-1.9c-1.6,0.2-3.2,0.8-4.5,1.8c0.2,0,1.6,0.3,1.9,0.3c1.7,0.2,3.3,0.8,4.7,1.8C508.9,647,511.7,650.5,512.3,655.4z
	"/>
<path class="st10" d="M498.7,654.9c1.8,2.6,4.2,4.7,7.1,6c0.8,0.4,1.8,0.5,2.7,0.5c0.9-0.1,1.8-0.3,2.6-0.8c1.9-1.3,1.8-4,1.6-5
	c-0.8-4.9-3.5-9.3-7.5-12.3c-1.2-0.9-2.7-1.6-4.2-1.8c-0.9-0.1-1.7,0-2.5,0.4c-0.4,0.2-0.8,0.5-1.1,0.9l0,0
	c-0.5,0.5-0.9,1.2-1.2,1.9c-0.3,0.7-0.4,1.5-0.4,2.2C495.8,649.7,496.9,652.5,498.7,654.9L498.7,654.9z"/>
<path class="st11" d="M498.7,654.9c1.8,2.6,4.2,4.7,7.1,6c0.8,0.4,1.8,0.5,2.7,0.5c0.9-0.1,1.8-0.3,2.6-0.8c1.9-1.3,1.8-4,1.6-5
	c-0.8-4.9-3.5-9.3-7.5-12.3c-1.2-0.9-2.7-1.6-4.2-1.8c-0.9-0.1-1.7,0-2.5,0.4c-0.4,0.2-0.8,0.5-1.1,0.9l0,0
	c-0.5,0.5-0.9,1.2-1.2,1.9c-0.3,0.7-0.4,1.5-0.4,2.2C495.8,649.7,496.9,652.5,498.7,654.9L498.7,654.9z"/>
<path class="st9" d="M514.9,655.4c-0.1,0.5-0.8,1-1,1.5c4.1,3.9,9.5,6.2,15.1,6.6c5.6,0.3,11.1-0.9,16.1-3.5
	c4.5-2.3,8.4-5.6,11.4-9.6c2.6-3.5,6.4-11.7,4.8-17.1c0,0-0.1-0.1-0.1-0.1c-0.7,7.4-4,14.2-9.2,19.5c-2.6,2.6-5.7,4.7-9,6.3
	c-4.7,2.2-9.9,3-15,2.4C523.1,660.7,518.5,658.6,514.9,655.4L514.9,655.4z"/>
<path class="st15" d="M515.1,654.1c0,0.1,0,0.2,0,0.3c3.6,3.4,8.2,5.5,13.1,6.1c5,0.6,10-0.3,14.5-2.3c4.5-2.1,8.5-5.3,11.6-9.3
	c3.1-4,5.1-8.6,6-13.6c0.2-4.3-0.6-8.7-2.4-12.6c-1.8-4-4.5-7.5-7.9-10.2c-2.9-2-6.3-3.4-9.8-4c-3.5-0.7-7.1-0.6-10.6,0.3
	c-7,1.8-13.1,6-17.2,11.9c-3.8,5.3-5.9,12.5-6.1,20.1c0.8,0.3,1.5,0.7,2.2,1.2c1.6,1.1,3,2.5,4,4.1
	C514.2,648.4,515,651.2,515.1,654.1L515.1,654.1z"/>
<path class="st9" d="M502,640.1c0.3,0,0.5-0.1,0.8-0.1c0.4,0,0.9,0,1.3,0.1c-0.3-8.5,2.4-16.9,7.8-23.5c2.7-3.3,6.1-6,9.9-8
	c3.8-2,8-3.2,12.3-3.5c4-0.3,8,0.6,11.5,2.5c-3.7-2.7-8-4.2-12.6-4.2c-6.7,0.1-13.2,2.5-18.3,7c-5.1,4.4-8.9,10-11.2,16.4
	C501.8,631,501.4,635.6,502,640.1L502,640.1z"/>
<path class="st9" d="M504.9,640.3l0.6,0.2c0.2-7.7,2.4-14.9,6.2-20.3c4.2-6.1,10.5-10.4,17.6-12.2c6.6-1.6,13.6-0.5,19.4,2.9
	c-4.1-3.5-9.4-5.3-14.7-4.9c-4.2,0.3-8.2,1.5-11.9,3.4c-3.7,1.9-7,4.6-9.7,7.8C507.2,623.6,504.5,631.9,504.9,640.3L504.9,640.3z"/>
<path class="st16" d="M545.6,612.8c2.2,1.7,3.9,4,4.7,6.6c1,2.9,0.7,6.3-2.5,7.5c-5.5,2.1-12.5-1.4-15.5-6.2
	c-2.4-3.9-2-8.9,2.9-10.5C538.2,609.2,543.2,611,545.6,612.8z"/>
<path class="st9" d="M564.2,641.3c-0.7,4-1.9,8-3.7,11.7c-4.3,8.2-13.3,14.1-25.9,17.2c-0.1,0-13.8,2.8-20.5,1.6l0.5,0.4l0.1,0.1
	l0.5,0.4l0.3,1c7,1.2,19-1.4,19.5-1.6c9.3-2.2,15.7-5.7,20.1-9.4c3-2.4,5.4-5.4,7.1-8.8c1.6-3.6,2.8-7.3,3.6-11.2L564.2,641.3z"/>
<path class="st9" d="M554.4,668.3c-20.9,13.1-35.2,8.1-38.4,6.7l0.5,1.6c14,6.4,32.9-2.3,39.9-7.6c2.8-2,5.3-4.5,7.4-7.2
	c1.1-1.5,2.1-3.2,2.9-4.9c1.7-3.9,2.1-8.3,1.2-12.4l-0.5-0.4l-0.9,0.2C569.4,658.5,554.5,668.2,554.4,668.3z"/>
<path class="st9" d="M565.8,642.6c-0.4,4.9-1.8,9.7-4.1,14c-2.8,4.6-6.8,8.3-11.6,10.8c-18.9,9.8-31.3,7.2-34.6,6.2l0.7,2.1
	c4.9,1.2,17,2.5,34.7-6.7c2.2-1.1,4.3-2.5,6.1-4.1c2.5-2.1,4.6-4.6,6.3-7.4c2.3-4.2,3.7-8.8,4.2-13.6L565.8,642.6z"/>
<path class="st9" d="M664.9,731.3c-3.3,2.7-7.2,7.5-5,14.4c1,2.9,2.8,5.5,5.3,7.4c4.6,3.7,8.2,8.5,10.5,13.9c0,0,7.9,3.6,20.4-7.8
	c0,0,3.7-12.4-11.8-26.7c-2.2-2.3-5.1-3.8-8.2-4.3c-2-0.3-4-0.2-5.9,0.4C668.2,729.1,666.4,730.1,664.9,731.3L664.9,731.3z"/>
<path class="st13" d="M676.5,764.4c-2.3-5.4-5.9-10.2-10.5-13.8c-2.5-1.9-4.3-4.4-5.3-7.4c-0.7-2-0.8-4.2-0.4-6.2
	c-1.3,2.8-1.5,5.9-0.5,8.8c1,2.9,2.8,5.5,5.3,7.4c4.6,3.7,8.2,8.5,10.5,13.9c0,0,7.9,3.6,20.4-7.8c0.2-0.7,0.3-1.4,0.3-2.1
	C684.1,767.9,676.5,764.4,676.5,764.4z"/>
<path class="st0" d="M670.5,746.8c4.8,2.7,15.3,7.9,20.4,5.6c0.7-0.3,1.3-0.8,1.6-1.5c0.4-0.7,0.5-1.4,0.4-2.2
	c-0.4-3.6-2.5-12.2-13.2-16.7c-3.2-1.4-6.8-1.5-10.1-0.4c-4,1.4-8.1,4.3-4.4,10.2C666.4,743.9,668.3,745.6,670.5,746.8L670.5,746.8z
	"/>
<path class="st9" d="M614.3,794.7c2.1-3.9,5.1-7.3,8.6-10c3-2.2,6.7-3.3,10.5-3c3.7,0.3,7.3,1.9,9.9,4.6c2.8,3,5.1,6.3,6.9,10
	c0.3,0.5,0.6,1.1,0.8,1.6c1.2,2.3,4.6,10.6-5.3,18.5c0,0-10.5,8.2-18.3,3.7c-1-0.6-1.8-1.4-2.4-2.3c-1.5-2.2-3.1-5.6-7.4-8.4
	c-0.5-0.3-1-0.6-1.4-1C612.3,804.9,611.8,799.3,614.3,794.7z"/>
<path class="st11" d="M594.6,757.6c1.6-0.6,3-1.6,4-2.9c1-1.3,1.7-2.9,1.9-4.6c0,0,4.5-2.5,4.6-5.6c0,0,0.4-5,3.2-5.3
	c0.6,2.1,0.7,4.3,0.5,6.5c-0.1,0.7-0.2,1.3-0.2,2c0.1,1.1,0.3,2.3,1.2,1.1c0.2-0.3,0.5-0.5,0.8-0.6c0.3-0.1,0.7-0.2,1-0.2
	c0.4,0,0.7,0.2,0.6,0.7l3.1,14.5l-6.6-3.3L594.6,757.6z"/>
<path class="st13" d="M646.9,814.1c0,0-10.6,8.2-18.3,3.7c-1-0.6-1.8-1.4-2.4-2.3c-1.5-2.2-3.1-5.7-7.3-8.4c-0.5-0.3-1-0.6-1.4-1
	c-3.7-3.2-4.4-8.2-2.5-12.6c-0.3,0.4-0.5,0.8-0.7,1.2c-2.5,4.6-2,10.2,2,13.6c0.5,0.4,0.9,0.7,1.4,1c4.2,2.8,5.9,6.2,7.3,8.4
	c0.6,0.9,1.4,1.7,2.4,2.3c7.7,4.5,18.3-3.7,18.3-3.7c2.5-1.9,4.5-4.4,5.8-7.2C650.3,811,648.8,812.7,646.9,814.1L646.9,814.1z"/>
<path class="st0" d="M620.9,793.8c0.6-3.1,2.4-5.8,5.1-7.5c1.6-1.1,3.4-1.9,5.3-2.1c1.9-0.2,3.9,0,5.7,0.8c3.5,1.5,7.6,4.6,10,11.1
	c0.5,1.5,0.8,3.1,0.6,4.6c-0.1,1.6-0.6,3.1-1.4,4.5s-1.9,2.6-3.1,3.5c-1.3,0.9-2.8,1.5-4.3,1.8c-2.3,0.3-4.7,0.2-6.9-0.4
	c-3.7-1.6-6.8-4.2-8.9-7.6C621.1,800.1,620.4,796.9,620.9,793.8z"/>
<path class="st9" d="M460.1,767.2l-0.6,2.1c0,0,6.1-5.3,20.9,4.4l0.7-3l-9.9-10.8l-11.4,5.4L460.1,767.2z"/>
<path class="st2" d="M614.7,762.7c-2.1-5.9-2.7-12.1-1.9-18.3c0.8-6.2,3-12.1,6.5-17.2l2.5,0.1c-3.5,5.5-5.8,11.7-6.5,18.2
	c-0.8,6.5-0.1,13.1,2.1,19.2C616.6,763.9,615.7,763.2,614.7,762.7L614.7,762.7z"/>
<path class="st8" d="M463.1,804.2c-0.8-0.8-1.4-1.7-1.8-2.7c-0.1-0.3-0.2-0.7-0.2-1l-0.3,1c0,0,0,0,0,0.1l-0.1-0.1
	c-0.5-0.3-0.8-0.6-1.1-1.1c-0.2-0.3-0.4-0.5-0.6-0.7c-0.6-0.6-1.1-1.4-1.5-2.2c0,0.1,0.1,0.2,0.1,0.3c-0.3-0.5-0.5-0.9-0.8-1.4
	c-0.6-1-1-2.1-1.4-3.2c-0.3-1.3-0.6-2.5-0.8-3.8c-0.2-1.3-0.3-2.5-0.3-3.8c0.1-1,0.3-1.9,0.5-2.9c0.4-1.8,0.9-3.7,1.5-5.5
	c0.3-1.1,0.7-2.2,1.2-3.2c0.3-0.5,0.5-0.9,0.8-1.3c0.6-0.8,1.1-1.8,1.4-2.8c0-0.1,0.1-0.2,0.1-0.3c1.2-0.9,2.6-1.5,4.1-1.6
	c1.6-0.1,3.2,0.1,4.7,0.5c4,1.1,7.8,2.7,11.4,4.8c0.4,4,5.4,6.8,8.6,7.6l0.5,0.1c0.5,0,1,0.2,1.4,0.4c0.4,0.2,0.8,0.6,1.1,1
	c0.5,0.9-0.1,2.2-0.8,3.1c-0.7,0.7-1.6,1.3-2.5,1.6c-1,0.3-2,0.4-3,0.2c-0.7-0.1-1.5-0.3-2.1-0.6c-0.8-0.3-1.5-0.5-2.4-0.7
	c-2.1-0.2-3.2,0.6-4.3,2.3c-1.9,2.8-2.6,6.3-3.3,9.6c-0.9,4.2-1.7,8.1-4.7,11c-0.9,0.9-2.9,2.2-4.4,1.3c-0.3-0.2-0.5-0.5-0.7-0.8
	c-0.2-0.3-0.3-0.7-0.3-1C462.8,807.1,462.8,805.7,463.1,804.2z"/>
<path class="st2" d="M568.1,787.2c0,0-0.5-14.1,15.7-25.6c0,0,12.8-8.7,26.7-1.5l4.2,2.6c0,0-18.8-9.4-32.4,4.1
	c0,0-11.1,8.5-10.7,22.7L568.1,787.2z"/>
<path class="st10" d="M521.9,723.5c-2.6-2-5.3-0.5-6.5,0.3c-0.3,0.2-0.6,0.5-0.8,0.7c-1.8,1.8-4,3.2-6.4,4.2
	c-1.2,0.5-2.2,1.3-2.8,2.4c-2.1,3.3-7.1,4.6-7.1,4.6c1.7,3.6-0.1,7-1.8,9.1c-1.6,1.9-2.8,4.2-3.5,6.6l-1.4,4.9
	c-3,11.1-9.7,15.3-9.7,15.3c-17.7-12-21.6-4.3-21.6-4.3c-5.1-5.1-2.1-12.7-0.1-16.5c0.9-1.7,1.6-3.6,1.8-5.6l1.1-8.9l15.7-25.5
	c0.3-0.6,0.6-1.2,0.9-1.8c1.2-3,6.9-8.9,9.7-11.8c1-1,2.1-1.8,3.3-2.4c1.4-0.8,2.8-1.6,4.2-2.6c1.3-1,2.4-2.1,3.3-3.5
	c2.9-4.2,7-7.4,11.8-9.2L521.9,723.5z"/>
<path class="st11" d="M517.8,706c0.1,1.3-0.1,2.7-0.5,3.9c-0.4,1.3-1.1,2.4-2.1,3.4c-0.2,0.2-0.5,0.5-0.8,0.7c-1.4,1-4,4.6-4,4.6
	c-0.7,1-3.5,2.4-5.1,3.1c-0.5,0.2-1.1,0.4-1.6,0.6c-1.4,0.6-2.7,1.3-3.9,2.2c-0.9,0.7-1.5,1.5-1.9,2.5c-0.8,1.9-2.9-0.1-2.9-0.1
	c0,2.6-1.7,2.4-1.7,2.4c0.9,2.3-1,2.3-1,2.3c3.2,4.6,2.4,8.5,1.8,10c-0.2,0.5-0.3,1-0.4,1.5c-0.5,2-1.3,3.9-2.4,5.6
	c-0.8,1.1-1.8,2.1-2.9,2.9c-1.8,1.2-2.1,2.2-2.1,2.9c0.2,1.1,0.2,2.2,0.1,3.3c-1.6,13.1-11.4,9.8-11.4,9.8c2.3,1.2,4.6,2.5,6.7,4
	c0,0,6.7-4.2,9.7-15.3l1.4-4.9c0.7-2.4,1.9-4.6,3.5-6.6c1.7-2.1,3.6-5.5,1.8-9.1c0,0,5.1-1.3,7.1-4.6c0.7-1.1,1.7-1.9,2.9-2.4
	c2.4-1,4.5-2.4,6.4-4.2c0.3-0.3,0.5-0.5,0.8-0.7c1.2-0.9,4-2.4,6.5-0.3L517.8,706z"/>
<g class="st12">
	<path class="st13" d="M457.8,797.4c0,0-0.1,0.1-0.1,0.1c-0.1,0-0.1,0-0.2-0.1c0,0-0.1-0.1-0.1-0.2c-0.2-3.2,0-6.4,0.5-9.6
		c0,0,0-0.1,0-0.1c0,0,0-0.1,0.1-0.1c0,0,0.1,0,0.1,0c0,0,0.1,0,0.1,0s0.1,0,0.1,0c0,0,0.1,0,0.1,0.1c0,0,0,0.1,0,0.1
		c0,0,0,0.1,0,0.1c-0.5,3.1-0.6,6.3-0.5,9.5C457.9,797.3,457.9,797.3,457.8,797.4C457.9,797.4,457.9,797.4,457.8,797.4L457.8,797.4z
		"/>
</g>
<g class="st12">
	<path class="st13" d="M463.2,804.4c-0.1,0-0.1,0.1-0.2,0c0,0-0.1,0-0.1,0c0,0,0,0-0.1-0.1c0,0,0-0.1,0-0.1c0,0,0-0.1,0-0.1
		c0-0.1,2.1-12.2,5.2-17.8c0-0.1,0.1-0.1,0.1-0.1c0.1,0,0.1,0,0.2,0c0,0,0.1,0,0.1,0.1c0,0,0,0.1,0,0.1c0,0,0,0.1,0,0.1
		c0,0,0,0.1,0,0.1c-3,5.5-5.1,17.6-5.1,17.7C463.3,804.3,463.3,804.4,463.2,804.4L463.2,804.4z"/>
</g>
<g class="st12">
	<path class="st13" d="M461.2,800.7c0,0-0.1,0.1-0.1,0.1c-0.1,0-0.1,0-0.2-0.1c0,0-0.1-0.1-0.1-0.2c0-0.3-0.1-8.6,1.8-12.8
		c0-0.1,0.1-0.1,0.1-0.1c0.1,0,0.1,0,0.2,0c0.1,0,0.1,0.1,0.1,0.1c0,0.1,0,0.1,0,0.2c-1.9,4.1-1.8,12.5-1.8,12.6
		C461.3,800.5,461.3,800.6,461.2,800.7C461.2,800.6,461.2,800.7,461.2,800.7z"/>
</g>
<path class="st10" d="M462.2,735.8l3.2,1.1c2.4-10,7.7-19.1,15.3-26.1l-3-1.7C477.7,709.1,462.5,720.9,462.2,735.8z"/>
<path class="st13" d="M462.2,735.8l3.2,1.1c2.4-10,7.7-19.1,15.3-26.1l-3-1.7C477.7,709.1,462.5,720.9,462.2,735.8z"/>
<path class="st2" d="M511.7,679.4c0,0,12.2,3.2,16.8,21.6c0,0,3.6,14.9-6.6,22.4l1,2.7c0,0,12-11.2,8.2-27.8c0,0-5.6-18.5-17.9-19.8
	L511.7,679.4z"/>
<path class="st2" d="M568.2,649.4c3.5,2.5,6.5,5.7,8.8,9.4c2.3,3.7,3.8,7.8,4.6,12h-1.9c-2.1-7.1-5.9-13.6-11.3-18.8L568.2,649.4z"
	/>
<path class="st9" d="M552.7,671.1c0,0,5.7,5.6,8,11.1l2.3-1.7c0,0-4.1-7.5-7.7-10.8L552.7,671.1z"/>
<path class="st9" d="M579.5,714.3c1.5,3.3,3.5,6.3,5.9,8.9c0.3,0.3,0.6,0.5,0.9,0.8c1.5,1.2,6.7,5.8,7.3,9.8c0,0,0.1,1.2,2.2,4
	c0.3,0.4,0.7,0.9,0.9,1.4c1.1,1.7,3.2,5.3,3.4,7.3l2.2-2c0,0-2.2-6.6-4.4-9.1c0,0-0.3-0.3-0.7-0.9c-0.6-0.9-1.2-1.8-1.6-2.7
	c-1.5-3-3.4-5.8-5.8-8.1c-0.6-0.6-1.2-1.2-1.9-1.7c-0.8-0.7-3.7-3.4-6.1-9.6L579.5,714.3z"/>
<g class="st17">
	<path class="st6" d="M657.1,761.4c-0.2,0.9-0.6,1.8-0.9,2.7c-0.2,0.4-0.3,0.9-0.4,1.3c-0.1,0.2-0.1,0.4-0.1,0.7
		c0,0.2,0,0.5,0.1,0.7c-0.1-0.1-0.2-0.2-0.2-0.3c-0.1-0.1-0.1-0.2-0.1-0.4c0-0.2,0-0.5,0-0.7c0.1-0.5,0.2-0.9,0.3-1.4
		C656.1,763,656.5,762.2,657.1,761.4L657.1,761.4z"/>
</g>
<g class="st17">
	<path class="st6" d="M659,769.1c0.6-1.2,1.3-2.3,2.1-3.3c0.8-1.1,1.7-2,2.8-2.7c-0.4,0.5-0.8,1-1.2,1.5l-1.2,1.5
		C660.7,767.1,659.9,768.2,659,769.1z"/>
</g>
<g class="st17">
	<path class="st6" d="M662,772.3c0.6-0.1,1.1-0.2,1.6-0.3c0.5-0.1,1.1-0.3,1.6-0.5c1-0.4,2-0.9,2.9-1.5c-0.4,0.4-0.8,0.8-1.2,1.2
		c-0.5,0.3-1,0.6-1.5,0.8C664.3,772.4,663.1,772.5,662,772.3L662,772.3z"/>
</g>
<g class="st17">
	<path class="st6" d="M612.9,814.4c0.2-0.5,0.5-0.8,0.7-1.2c0.2-0.4,0.5-0.8,0.8-1.2c0,0.5-0.1,1-0.3,1.5
		C613.8,813.8,613.4,814.2,612.9,814.4L612.9,814.4z"/>
</g>
<g class="st17">
	<path class="st6" d="M619.4,818c0.1-0.3,0.3-0.6,0.5-0.8c0-0.1,0-0.2,0-0.3c0-0.1,0.1-0.2,0.2-0.2c0.1,0,0.2-0.1,0.3,0
		c0.1,0,0.2,0.1,0.3,0.2c0.1,0.1,0.1,0.2,0.1,0.3c0,0.1,0,0.2-0.1,0.3c-0.1,0.1-0.1,0.2-0.2,0.2c-0.1,0-0.2,0-0.3,0
		C620,817.8,619.7,817.9,619.4,818L619.4,818z"/>
</g>
<g class="st17">
	<path class="st6" d="M622.6,823.4c0.3-0.1,0.6-0.1,0.9-0.2c0.3-0.1,0.6-0.2,0.8-0.3c0.5-0.2,1.1-0.5,1.7-0.8
		c-0.2,0.3-0.4,0.5-0.7,0.7c-0.3,0.2-0.5,0.4-0.8,0.5c-0.3,0.1-0.6,0.2-0.9,0.2C623.2,823.5,622.9,823.5,622.6,823.4z"/>
</g>
<g class="st17">
	<path class="st6" d="M642.6,851.6c0.3,0.7,0.7,1.3,1.1,1.9c0.4,0.6,0.9,1.2,1.4,1.7c0.5,0.5,1.1,0.9,1.8,1.2
		c0.7,0.2,1.4,0.4,2.2,0.3c-0.7,0.2-1.5,0.2-2.3,0c-0.7-0.2-1.4-0.6-2-1.2c-0.6-0.5-1-1.2-1.4-1.8
		C643.1,853,642.8,852.3,642.6,851.6L642.6,851.6z"/>
</g>
<g class="st17">
	<path class="st6" d="M658,853.8c0.5-0.8,0.9-1.6,1.3-2.4c0.4-0.8,0.6-1.6,0.6-2.5c0-0.4-0.2-0.9-0.2-1.3c0-0.5-0.1-0.9-0.1-1.4
		c0-0.9,0.1-1.8,0.4-2.7c-0.1,0.9-0.1,1.8,0,2.7c0,0.5,0.1,0.9,0.1,1.3s0.2,0.8,0.2,1.4c0,0.9-0.2,1.9-0.7,2.7
		C659.2,852.4,658.7,853.2,658,853.8L658,853.8z"/>
</g>
<g class="st17">
	<path class="st6" d="M687.4,813.6c-0.1,1.4-0.1,2.8,0.1,4.1c0.1,0.7,0.3,1.3,0.6,1.9c0.3,0.6,0.8,1.1,1.5,1.4
		c-0.4-0.1-0.7-0.2-1-0.4c-0.3-0.2-0.6-0.5-0.8-0.8c-0.4-0.6-0.7-1.3-0.8-2C686.8,816.4,687,815,687.4,813.6L687.4,813.6z"/>
</g>
<g class="st17">
	<path class="st6" d="M703.3,813.3c0.4-0.6,0.7-1.2,0.8-1.9c0.2-0.6,0.2-1.3-0.1-1.9c-0.6-1.3-0.6-2.8-0.2-4.2c0,0.7,0,1.4,0.1,2.1
		c0.1,0.7,0.3,1.4,0.6,2c0.3,0.7,0.3,1.5,0,2.2C704.3,812.2,703.9,812.8,703.3,813.3L703.3,813.3z"/>
</g>
<g class="st17">
	<path class="st6" d="M619.3,767.1c-0.3-0.4-0.7-0.8-1.1-1.2c-0.4-0.4-0.8-0.7-1.1-1.1c-0.8-0.7-1.6-1.3-2.5-1.9
		c-0.8-0.6-1.7-1.2-2.6-1.8s-1.8-1.1-2.7-1.6c0.5,0.2,1,0.4,1.5,0.6c0.5,0.2,1,0.5,1.4,0.7c0.9,0.5,1.8,1.1,2.7,1.7
		c0.9,0.6,1.7,1.3,2.4,2.1C618.1,765.3,618.8,766.2,619.3,767.1L619.3,767.1z"/>
</g>
<g class="st17">
	<path class="st6" d="M614.7,762.7c-0.4-0.5-0.8-1-1.2-1.4c-0.4-0.4-0.7-1-1.1-1.5c-0.7-1.1-1.3-2.2-1.7-3.4
		c-0.5-1.2-0.8-2.4-0.9-3.7c-0.1-1.3,0-2.5,0.5-3.7c-0.2,0.6-0.2,1.2-0.2,1.8c0,0.6,0,1.2,0.1,1.8c0.2,1.2,0.5,2.4,1,3.6
		c0.4,1.2,1,2.3,1.6,3.3l1,1.6C614,761.7,614.3,762.2,614.7,762.7z"/>
</g>
<g class="st17">
	<path class="st6" d="M606.6,750.9c0.1,0.5,0.2,0.9,0.3,1.4c0.1,0.4,0.3,0.9,0.5,1.3c0.4,0.8,0.9,1.6,1.5,2.3
		c-0.4-0.2-0.8-0.5-1.2-0.9c-0.3-0.4-0.6-0.8-0.8-1.2C606.5,752.9,606.4,751.9,606.6,750.9z"/>
</g>
<g class="st17">
	<path class="st6" d="M492.6,729.4c0.6,0.3,1.2,0.7,1.8,1.2c0.5,0.5,1.1,0.9,1.5,1.5c0.5,0.5,0.9,1.1,1.3,1.7
		c0.4,0.6,0.8,1.2,1.1,1.8l-0.4,0.2c-0.3-1-0.6-2-0.9-3c-0.3-1-0.7-2-1.1-3c0.6,0.9,1,1.9,1.4,2.8c0.4,1,0.8,2,1.1,3l0.7,2.2l-1.1-2
		c-0.7-1.2-1.4-2.4-2.3-3.5c-0.4-0.5-0.9-1.1-1.4-1.5C493.7,730.3,493.2,729.8,492.6,729.4z"/>
</g>
<g class="st17">
	<path class="st6" d="M465.4,763.4c-0.9-1-1.6-2.3-1.9-3.6c-0.2-0.7-0.3-1.4-0.3-2.1c0-0.7,0.1-1.4,0.3-2c-0.1,0.7-0.1,1.3,0,2
		c0.1,0.7,0.2,1.3,0.4,2C464.3,761,464.8,762.2,465.4,763.4L465.4,763.4z"/>
</g>
<g class="st17">
	<path class="st6" d="M478.2,767.4c0.6,0.1,1.3,0.1,1.9,0c0.3-0.1,0.6-0.2,0.9-0.3c0.3-0.1,0.6-0.3,0.8-0.5c1-0.8,1.8-1.7,2.4-2.8
		c0.6-1.1,1.1-2.3,1.4-3.5c0.4-1.2,0.6-2.5,1-3.8c-0.1,0.6-0.1,1.3-0.2,1.9c-0.1,0.6-0.3,1.3-0.4,1.9l-0.1,0.5l-0.1,0.5l-0.3,0.9
		c-0.1,0.3-0.2,0.6-0.4,0.9c-0.1,0.3-0.3,0.6-0.4,0.9c-0.6,1.2-1.6,2.2-2.7,2.9c-0.6,0.3-1.2,0.6-1.9,0.6
		C479.5,767.7,478.8,767.6,478.2,767.4z"/>
</g>
<g class="st17">
	<path class="st6" d="M600.5,642.7c0.8,0.6,1.5,1.3,2.3,1.9c0.8,0.6,1.7,1.1,2.6,1.5c0.9,0.5,1.8,0.8,2.7,1.2c1,0.4,1.8,0.9,2.5,1.7
		c-0.4-0.3-0.8-0.6-1.3-0.8c-0.5-0.2-0.9-0.4-1.4-0.6c-1-0.3-1.9-0.7-2.8-1.1c-0.9-0.5-1.8-1-2.6-1.7c-0.4-0.3-0.8-0.6-1.1-1
		C601.2,643.5,600.8,643.1,600.5,642.7z"/>
</g>
<g class="st17">
	<path class="st6" d="M605.5,640.5c0.5,0.1,0.9,0.3,1.3,0.5c0.4,0.3,0.7,0.6,1,1c0.3,0.4,0.5,0.7,0.7,1.2c0.1,0.2,0.2,0.4,0.2,0.6
		c0.1,0.2,0.1,0.4,0.2,0.7c-0.3-0.4-0.5-0.7-0.8-1.1s-0.5-0.7-0.8-1.1c-0.3-0.3-0.5-0.7-0.8-1C606.3,641,605.9,640.7,605.5,640.5
		L605.5,640.5z"/>
</g>
<g class="st17">
	<path class="st6" d="M610.5,637.6c0,0.5-0.1,0.9-0.1,1.4c0,0.4,0,0.9,0.1,1.3c0.2,0.9,0.4,1.8,0.8,2.6c-0.3-0.3-0.6-0.7-0.8-1.1
		c-0.2-0.4-0.4-0.9-0.4-1.4C609.9,639.4,610,638.5,610.5,637.6z"/>
</g>
<g class="st17">
	<path class="st6" d="M591.1,750.1c4.6-0.8,8.7-3.1,11.9-6.5c1-1.1,2-2.4,2.8-3.7c-0.4,0.7-0.7,1.4-1.1,2c-2.1,3.3-5.3,5.9-9,7.2
		C594.2,749.7,592.7,750,591.1,750.1L591.1,750.1z"/>
</g>
<g class="st17">
	<path class="st6" d="M605.2,745.6c-0.5,0.9-1.1,1.7-1.8,2.4c-0.7,0.7-1.5,1.4-2.4,1.9c-0.9,0.6-1.8,1-2.7,1.4
		c-0.9,0.4-1.9,0.6-2.9,0.8c0.9-0.3,1.9-0.7,2.8-1.1c0.9-0.4,1.8-0.9,2.6-1.5c0.8-0.5,1.6-1.1,2.3-1.8
		C603.8,747.1,604.5,746.4,605.2,745.6L605.2,745.6z"/>
</g>
<g class="st17">
	<path class="st6" d="M608.9,725.7c0.4,0.7,0.6,1.6,0.6,2.4c0,0.8-0.1,1.7-0.4,2.5c-0.2,0.8-0.6,1.5-1.1,2.2c-0.2,0.3-0.5,0.7-0.8,1
		c-0.2,0.4-0.6,0.6-0.9,0.9c0.2-0.3,0.5-0.7,0.7-1c0.2-0.3,0.5-0.7,0.6-1c0.4-0.7,0.7-1.4,1-2.2c0.2-0.7,0.4-1.5,0.5-2.3
		C609.2,727.3,609.1,726.5,608.9,725.7L608.9,725.7z"/>
</g>
<g class="st17">
	<path class="st6" d="M614.6,727.3c-0.1,0.9-0.4,1.7-0.9,2.5c-0.5,0.8-1.1,1.4-1.9,1.8c0.5-0.7,1-1.3,1.5-2
		C613.8,728.8,614.2,728.1,614.6,727.3L614.6,727.3z"/>
</g>
<path class="st0" d="M1210.4,574.1c0,16-4.8,31.7-13.7,45.1c-8.9,13.3-21.6,23.7-36.4,29.9c-14.8,6.1-31.1,7.7-46.9,4.6
	c-15.7-3.1-30.2-10.9-41.5-22.2c-11.3-11.3-19.1-25.8-22.2-41.5c-3.1-15.7-1.5-32.1,4.6-46.9c6.2-14.8,16.6-27.5,29.9-36.4
	c13.3-8.9,29-13.7,45.1-13.7c21.5,0,42.2,8.5,57.4,23.8C1201.9,532,1210.4,552.6,1210.4,574.1L1210.4,574.1z"/>
<path class="st0" d="M1129.3,638.5c35.5,0,64.3-28.8,64.3-64.3c0-35.5-28.8-64.3-64.3-64.3s-64.3,28.8-64.3,64.3
	C1065,609.7,1093.8,638.5,1129.3,638.5z"/>
<path class="st10" d="M1129.3,629.8c30.8,0,55.7-24.9,55.7-55.7c0-30.8-24.9-55.7-55.7-55.7s-55.7,24.9-55.7,55.7
	C1073.6,604.9,1098.5,629.8,1129.3,629.8z"/>
<path class="st18" d="M1129.3,629.8c30.8,0,55.7-24.9,55.7-55.7c0-30.8-24.9-55.7-55.7-55.7s-55.7,24.9-55.7,55.7
	C1073.6,604.9,1098.5,629.8,1129.3,629.8z"/>
<path class="st8" d="M1129.3,627.1c29.3,0,53-23.7,53-53s-23.7-53-53-53s-53,23.7-53,53S1100,627.1,1129.3,627.1z"/>
<path class="st19" d="M1149.3,604.1c-8.9,0-17.6-2.2-25.3-6.5c-7.8-4.2-14.4-10.3-19.2-17.8c-4.8-7.4-7.7-15.9-8.3-24.8
	c-0.7-8.8,0.9-17.7,4.5-25.7c-7,4.4-12.9,10.4-17.1,17.5c-4.3,7.1-6.8,15.1-7.5,23.3c-0.6,8.2,0.7,16.5,3.8,24.2
	c3.1,7.7,8,14.5,14.3,19.9c6.2,5.4,13.7,9.3,21.7,11.4c8,2,16.4,2.2,24.5,0.4c8.1-1.8,15.6-5.4,22.1-10.6
	c6.4-5.2,11.5-11.9,14.9-19.4C1169.1,601.3,1159.3,604.1,1149.3,604.1z"/>
<path class="st19" d="M1139.3,616.1c-9.6,0-19.1-2.6-27.3-7.6s-15-12.1-19.5-20.6c-4.5-8.5-6.6-18.1-6.1-27.7
	c0.5-9.6,3.7-18.9,9.1-26.9c-5.9,4.8-10.6,10.9-13.9,17.7c-3.3,6.8-5.1,14.3-5.3,21.9c-0.2,7.6,1.3,15.1,4.3,22.1
	c3,7,7.5,13.3,13.1,18.4s12.3,9,19.5,11.3c7.2,2.3,14.9,3,22.4,2.1c7.6-0.9,14.8-3.4,21.3-7.4c6.5-4,12-9.3,16.3-15.6
	C1163.6,611.8,1151.7,616.1,1139.3,616.1L1139.3,616.1z"/>
<path class="st19" d="M1152.4,532.1c0,0-20-7.5-17.7,12.2c0,0,0.5,12.3,15.1,13.6c2.4,0.3,4.7-0.2,6.8-1.2c2.1-1.1,3.8-2.7,5-4.8
	c1.6-3,2.1-7-1.2-11.8C1160.5,540,1155.8,533.2,1152.4,532.1z"/>
<path class="st19" d="M1168.5,565c2.5,0,4.5-1.6,4.5-3.5s-2-3.5-4.5-3.5s-4.5,1.6-4.5,3.5S1166,565,1168.5,565z"/>
<path class="st19" d="M1153,567c1.7,0,3-1,3-2.3c0-1.3-1.3-2.3-3-2.3s-3,1-3,2.3C1150,566,1151.3,567,1153,567z"/>
<path class="st2" d="M1172.4,740.3l-11.8-8.4l6.2-8.7l11.8,8.4L1172.4,740.3z M1091,772.4l-3-2.3l3-16.7c4.8,3.8,9.8,7.3,15,10.5
	l-14.2,8.3L1091,772.4z M1098.1,674.4l11.8,8.4l-6.2,8.7l-11.8-8.4L1098.1,674.4z M978.7,643l9.9-14l0.9,0.6l-9.9,14l46.2,32.8
	l9.9-14l0.9,0.6l-9.9,14l46.2,32.8l16.9-23.8l11.8,8.4l-7.1,10h-0.4l3.3,11.4c-9.2-1.6-17.7,0.3-23,7.7c-3.9,5.5,2.8,17.6,15.6,29
	l-3,16.7l-1.7,1l-0.6,0.8l-8.3,11.9c-1.9,2.6,4.9,7.5,6.8,4.8l8.3-11.8l0.6-0.8l0.9-2.2l14.1-8.3c15.1,8.3,28.9,11,32.9,5.5
	c5.2-7.4,4.2-16.1-0.3-24.2l11.8-0.7l-0.1-0.4l7.1-10l11.8,8.4l-16.8,23.8l46.2,32.8l9.9-14l0.9,0.6l-9.9,14l46.2,32.8l9.9-14
	l0.9,0.6l-9.9,14l46.2,32.8l43.5-61.3l-46.2-32.8l-9.9,14l-0.9-0.7l9.9-14l-46.2-32.8l-9.9,14l-0.9-0.7l9.9-14l-46.2-32.8
	l-16.2,22.9l-11.8-8.4l5.4-7.7l-2-7l-1.4,0.4l8.3-11.1l13.9-2.2l0.1-0.1c1.8-2.6,1.8-6,0-10.1l0.9-0.3c0.9-0.3,1.6-0.9,2.2-1.7
	c0.5-0.8,0.9-1.7,0.9-2.6c0.1-7.8-11.8-19-22-26.3c-10.3-7.3-24.8-14.8-32.1-12.2c-0.9,0.3-1.6,0.9-2.2,1.7
	c-0.5,0.8-0.8,1.7-0.8,2.6v1c-4.2-0.3-7.6,0.6-9.6,3.4l-0.1,0.1l1.1,15.8l-4.3,7.8l-9.7,0.7l-5.4,7.6l-11.8-8.4l16.3-22.9
	l-46.2-32.8l-9.9,14l-0.9-0.7l9.9-14l-46.2-32.8l-9.9,14l-0.9-0.6l9.9-14L976.1,549l-43.5,61.3L978.7,643z"/>
<path class="st2" d="M1172.4,740.3l-11.8-8.4l6.2-8.7l11.8,8.4L1172.4,740.3z M1091,772.4l-3-2.3l3-16.7c4.8,3.8,9.8,7.3,15,10.5
	l-14.2,8.3L1091,772.4z M1098.1,674.4l11.8,8.4l-6.2,8.7l-11.8-8.4L1098.1,674.4z M978.7,643l9.9-14l0.9,0.6l-9.9,14l46.2,32.8
	l9.9-14l0.9,0.6l-9.9,14l46.2,32.8l16.9-23.8l11.8,8.4l-7.1,10h-0.4l3.3,11.4c-9.2-1.6-17.7,0.3-23,7.7c-3.9,5.5,2.8,17.6,15.6,29
	l-3,16.7l-1.7,1l-0.6,0.8l-8.3,11.9c-1.9,2.6,4.9,7.5,6.8,4.8l8.3-11.8l0.6-0.8l0.9-2.2l14.1-8.3c15.1,8.3,28.9,11,32.9,5.5
	c5.2-7.4,4.2-16.1-0.3-24.2l11.8-0.7l-0.1-0.4l7.1-10l11.8,8.4l-16.8,23.8l46.2,32.8l9.9-14l0.9,0.6l-9.9,14l46.2,32.8l9.9-14
	l0.9,0.6l-9.9,14l46.2,32.8l43.5-61.3l-46.2-32.8l-9.9,14l-0.9-0.7l9.9-14l-46.2-32.8l-9.9,14l-0.9-0.7l9.9-14l-46.2-32.8
	l-16.2,22.9l-11.8-8.4l5.4-7.7l-2-7l-1.4,0.4l8.3-11.1l13.9-2.2l0.1-0.1c1.8-2.6,1.8-6,0-10.1l0.9-0.3c0.9-0.3,1.6-0.9,2.2-1.7
	c0.5-0.8,0.9-1.7,0.9-2.6c0.1-7.8-11.8-19-22-26.3c-10.3-7.3-24.8-14.8-32.1-12.2c-0.9,0.3-1.6,0.9-2.2,1.7
	c-0.5,0.8-0.8,1.7-0.8,2.6v1c-4.2-0.3-7.6,0.6-9.6,3.4l-0.1,0.1l1.1,15.8l-4.3,7.8l-9.7,0.7l-5.4,7.6l-11.8-8.4l16.3-22.9
	l-46.2-32.8l-9.9,14l-0.9-0.7l9.9-14l-46.2-32.8l-9.9,14l-0.9-0.6l9.9-14L976.1,549l-43.5,61.3L978.7,643z"/>
<path class="st1" d="M1130.2,728.2c-1.4-2.3-3.3-4.3-5.6-5.9c-4.4-3.1-10.4-4.9-14.5-2.3l0.4,0.2c7.9,3.6,15.1,8.7,21.1,15
	C1132.1,732.8,1131.5,730.3,1130.2,728.2L1130.2,728.2z"/>
<path class="st1" d="M1115.5,734.8c18,12.2,29.3,28.3,24.7,35.1c-4.6,6.8-23.1,2.4-41.4-10.5c-17.8-12.6-28.9-27.7-24.3-34.5
	C1079.2,718.1,1097.5,722.5,1115.5,734.8z"/>
<path class="st20" d="M1091.1,753.3c2.3,1.9,4.8,3.9,7.4,5.7c1.5-9.8,6.9-19.9,16.2-24.8c-17.8-11.8-35.6-16-40.2-9.4
	c-0.8,1.2-1.1,2.5-1,3.9c0.1,1.5,0.5,3,1,4.4c2.2,5.6,7.8,12.5,15.6,19.3l3.2-19.8c0-0.1,0-0.2,0.1-0.2c0-0.1,0.1-0.1,0.2-0.2
	c0.1-0.1,0.3-0.1,0.4-0.1c0.1,0,0.3,0.1,0.3,0.2c0,0.1,0.1,0.1,0.1,0.2c0,0.1,0,0.2,0,0.2L1091.1,753.3z"/>
<path class="st11" d="M1095.5,705.5l21.1-1.2l27.7,19.7l5.8,20.4l-11.1,0.6c-1.6-2.7-3.5-5.2-5.5-7.6c1.6-2.6,1.7-5.7,0.1-8.9
	c-1.7-3.4-4.3-6.2-7.4-8.4c-6.1-4.3-14.5-6.5-18.7-1.2c-2.9-1.2-5.9-2.1-9-2.7L1095.5,705.5L1095.5,705.5z"/>
<path class="st11" d="M1125.2,721.5c4.9,3.5,8.9,9.3,7.2,14.6c0.1,0.1,0.2,0.3,0.4,0.4c3-5.2-1.5-11.7-7.2-15.7L1125.2,721.5
	L1125.2,721.5z"/>
<path class="st4" d="M1087.8,770.7c-0.1,0-0.2,0-0.3,0c-0.1,0-0.3-0.1-0.4-0.2c-0.1-0.1-0.2-0.2-0.3-0.3c-0.1-0.1-0.2-0.3-0.2-0.4
	c0-0.1,0-0.3,0-0.4l6.7-37.5c0-0.2,0.1-0.3,0.1-0.4c0.1-0.1,0.2-0.3,0.3-0.3c0.1-0.1,0.3-0.2,0.4-0.2c0.2,0,0.3,0,0.5,0
	c0.2,0,0.3,0.1,0.4,0.2c0.1,0.1,0.2,0.2,0.3,0.3c0.1,0.1,0.1,0.3,0.2,0.4c0,0.2,0,0.3,0,0.5l-6.7,37.5c0,0.2-0.2,0.4-0.3,0.6
	C1088.3,770.5,1088.1,770.6,1087.8,770.7L1087.8,770.7z"/>
<path class="st4" d="M1091.7,774.1c-0.2,0-0.4,0-0.7-0.1c-0.2-0.1-0.4-0.3-0.5-0.5c-0.1-0.3-0.2-0.6-0.1-0.8
	c0.1-0.3,0.3-0.5,0.5-0.7l33.2-18.6c0.1-0.1,0.3-0.1,0.4-0.2c0.1,0,0.3,0,0.4,0c0.2,0,0.3,0.1,0.4,0.2c0.1,0.1,0.2,0.2,0.3,0.3
	c0.1,0.1,0.1,0.3,0.1,0.4c0,0.2,0,0.3,0,0.5c0,0.1-0.1,0.3-0.2,0.4c-0.1,0.1-0.2,0.2-0.4,0.3l-33.2,18.6
	C1092,774,1091.8,774.1,1091.7,774.1L1091.7,774.1z"/>
<path class="st11" d="M1130.2,728.2c-1.4-2.3-3.3-4.3-5.6-5.9l-3,4.3c3.6,2.6,6.9,5.4,10,8.6
	C1132.1,732.8,1131.6,730.3,1130.2,728.2L1130.2,728.2z"/>
<path class="st11" d="M1121.8,739.1c12.9,10.8,22.4,23.3,19.2,29.8c7.7-15.5-5.6-32.4-19.6-42.3
	C1121.4,726.5,1125.3,732.8,1121.8,739.1L1121.8,739.1z"/>
<path class="st11" d="M1125.9,720.5l22.6,16l2.2,8.3l-11.4,0.8c0,0-2.6-4.5-3.3-5.4c-0.7-0.8-3.2-3.9-3.2-3.9l1.4-1
	c0.1-1.7-0.1-3.4-0.5-5c-1.1-2.6-2.7-4.9-4.6-7C1127.9,722.1,1125.9,720.5,1125.9,720.5L1125.9,720.5z"/>
<path class="st10" d="M1075.8,783.5l9.2-13l7.2,5.1l-9.2,13C1081.2,791.2,1074,786.1,1075.8,783.5z"/>
<path class="st11" d="M1085,770.6l-9.2,13c-0.7,1,0,2.4,1.2,3.5l10.5-14.8L1085,770.6z"/>
<path class="st11" d="M1189.5,676.3c1.3,1.7,2.8,4.6,3.8,6.1l-0.1-0.2l0.9-0.3c0.9-0.3,1.6-0.9,2.2-1.7c0.5-0.8,0.9-1.7,0.9-2.6
	c0.1-7.8-11.8-19-22-26.3l-4.9,6.8C1178.4,664,1185.2,670.4,1189.5,676.3z"/>
<path class="st4" d="M1086.2,768.2l7.7,5.5l-1.7,2.4l-7.7-5.5L1086.2,768.2z"/>
<path class="st11" d="M1171.7,705.8l0.1-0.1L1171.7,705.8L1171.7,705.8z"/>
<path class="st11" d="M1160.2,672.4l-6.1,8.6l14,10l3.4,14l7.3-9.7C1177.8,688.7,1169.3,678.9,1160.2,672.4z"/>
<path class="st21" d="M1280.5,855.9l11.9,8.4l2.1-0.3l8.4-11.9l-0.4-2.3l-11.6-8.2l-2.5,0.4l-8.2,11.6L1280.5,855.9L1280.5,855.9z
	 M1265.3,845.2l11.9,8.4l2.3-0.4l8.2-11.6l-0.4-2.6l-11.6-8.2l-2.5,0.4l-8.2,11.6L1265.3,845.2L1265.3,845.2z M1258.4,820.5h-0.1
	l-8.4,11.9l0.3,2.1l11.8,8.4l2.3-0.4l8.2-11.6l-0.4-2.6l-10.7-7.6c-0.3,0.3-0.7,0.5-1.2,0.5c-0.4,0-0.9-0.1-1.2-0.3L1258.4,820.5
	L1258.4,820.5z M1233.4,822.5l11.8,8.4l2.1-0.3l8.4-11.9v-0.1l-0.8-0.5c-0.3-0.3-0.6-0.6-0.7-1.1s-0.1-0.9,0.1-1.3l-10.6-7.5
	l-2.6,0.4l-8.2,11.6L1233.4,822.5L1233.4,822.5z M1218.2,811.8l11.9,8.4l2.3-0.4l8.2-11.6l-0.4-2.5l-11.6-8.2l-2.6,0.4l-8.2,11.6
	L1218.2,811.8z M1211.3,787.1h-0.1l-8.4,11.9l0.3,2.1l11.8,8.4l2.3-0.4l8.2-11.6l-0.4-2.6l-10.6-7.5c-0.3,0.3-0.7,0.5-1.2,0.5
	c-0.4,0-0.9-0.1-1.2-0.3L1211.3,787.1L1211.3,787.1z M1186.3,789.1l11.8,8.4l2.1-0.4l8.4-11.9v-0.1l-0.6-0.5
	c-0.4-0.3-0.6-0.6-0.7-1.1c-0.1-0.4-0.1-0.9,0.1-1.3l-10.7-7.6l-2.5,0.4l-8.2,11.6L1186.3,789.1L1186.3,789.1z M1171.2,778.4
	l11.9,8.4l2.3-0.4l8.2-11.6l-0.4-2.5l-11.6-8.3l-2.6,0.4l-8.2,11.6L1171.2,778.4L1171.2,778.4z M1156,767.6l11.9,8.4l2.3-0.4
	l8.2-11.6l-0.4-2.6l-11.6-8.2l-2.3,0.4l-8.4,11.9L1156,767.6L1156,767.6z M1171.1,743.8l-4.7,6.6l0.4,2.3l11.6,8.2l2.6-0.4l8.2-11.6
	l-0.4-2.5l-11.6-8.2l-2.3,0.4l-1.6,2.3L1171.1,743.8z M1181.9,763.5l11.6,8.2l2.6-0.4l8.2-11.6l-0.4-2.5l-11.6-8.2l-2.5,0.4
	l-8.2,11.6L1181.9,763.5z M1210.7,782h0.2l8.4-11.9V770l-0.6-0.5c-0.4-0.3-0.6-0.6-0.7-1c-0.1-0.4-0.1-0.9,0.1-1.3l-10.7-7.6
	l-2.5,0.4l-8.2,11.6l0.4,2.5l10.7,7.6c0.3-0.3,0.7-0.5,1.2-0.5c0.4,0,0.9,0.1,1.2,0.3L1210.7,782L1210.7,782z M1222.1,772h-0.2
	l-8.4,11.9v0.2l0.7,0.5c0.4,0.3,0.6,0.6,0.7,1c0.1,0.4,0.1,0.9-0.1,1.3l10.6,7.5l2.5-0.4l8.2-11.6l-0.4-2.5l-10.6-7.5
	c-0.3,0.3-0.7,0.5-1.2,0.5c-0.4,0-0.9-0.1-1.2-0.3L1222.1,772L1222.1,772z M1229,796.9l11.6,8.2l2.6-0.4l8.2-11.6l-0.4-2.5
	l-11.6-8.2l-2.5,0.4l-8.2,11.6L1229,796.9z M1257.8,815.5h0.2l8.4-11.9v-0.2l-0.8-0.5c-0.4-0.3-0.6-0.6-0.7-1
	c-0.1-0.4-0.1-0.9,0.1-1.3l-10.6-7.5l-2.6,0.4l-8.2,11.6l0.4,2.6l10.6,7.5c0.3-0.3,0.7-0.5,1.2-0.5c0.4,0,0.9,0.1,1.2,0.3
	L1257.8,815.5L1257.8,815.5z M1269.2,805.4h-0.2l-8.4,11.9v0.2l0.6,0.4c0.4,0.3,0.6,0.6,0.7,1c0.1,0.4,0.1,0.9-0.1,1.3l10.7,7.6
	l2.5-0.4l8.2-11.6l-0.4-2.6l-10.7-7.6c-0.3,0.3-0.7,0.5-1.2,0.5c-0.4,0-0.9-0.1-1.2-0.3L1269.2,805.4L1269.2,805.4z M1276.1,830.3
	l11.6,8.2l2.5-0.4l8.2-11.6l-0.4-2.5l-11.6-8.2l-2.5,0.4l-8.2,11.6L1276.1,830.3L1276.1,830.3z M1291.2,841l11.6,8.2l2.3-0.4
	l8.4-11.9l-0.4-2.3l-11.6-8.2l-2.6,0.4l-8.2,11.6L1291.2,841z M1302,825.9l11.6,8.2l2.3-0.4l8.4-11.9l-0.4-2.3l-11.6-8.2l-2.5,0.4
	l-8.2,11.6L1302,825.9L1302,825.9z M1286.9,815.2l11.6,8.2l2.6-0.4l8.2-11.6l-0.4-2.5l-11.6-8.2l-2.5,0.4l-8.2,11.6L1286.9,815.2
	L1286.9,815.2z M1280,790.3h-0.2l-8.4,11.8v0.2l0.6,0.4c0.4,0.3,0.6,0.6,0.7,1.1c0.1,0.4,0.1,0.9-0.1,1.3l10.7,7.6l2.6-0.4l8.2-11.6
	l-0.4-2.6l-10.7-7.6c-0.3,0.3-0.7,0.5-1.2,0.5c-0.4,0-0.9-0.1-1.2-0.4L1280,790.3L1280,790.3z M1254.9,792.5l10.6,7.5
	c0.3-0.3,0.7-0.5,1.2-0.5c0.4,0,0.9,0.1,1.2,0.3l0.8,0.5h0.2l8.4-11.8v-0.2l-0.7-0.5c-0.3-0.3-0.6-0.6-0.7-1
	c-0.1-0.4-0.1-0.9,0.1-1.3l-10.6-7.5l-2.6,0.4l-8.3,11.6L1254.9,792.5L1254.9,792.5z M1239.8,781.8l11.6,8.2l2.5-0.4l8.2-11.6
	l-0.4-2.5l-11.6-8.2l-2.6,0.4l-8.2,11.6L1239.8,781.8z M1232.9,756.9h-0.2l-8.4,11.9v0.2l0.7,0.5c0.4,0.3,0.6,0.6,0.7,1.1
	c0.1,0.4,0.1,0.9-0.1,1.3l10.6,7.5l2.6-0.4l8.2-11.6l-0.4-2.5l-10.5-7.5c-0.3,0.3-0.7,0.5-1.2,0.5c-0.4,0-0.9-0.1-1.2-0.3
	L1232.9,756.9L1232.9,756.9z M1221.5,766.9h0.2l8.4-11.8v-0.2l-0.6-0.5c-0.3-0.3-0.6-0.6-0.7-1c-0.1-0.4-0.1-0.9,0.1-1.3l-10.7-7.6
	l-2.6,0.4l-8.2,11.6l0.4,2.5l10.7,7.6c0.3-0.3,0.7-0.5,1.2-0.5c0.4,0,0.9,0.1,1.2,0.3L1221.5,766.9L1221.5,766.9z M1192.7,748.4
	l11.6,8.2l2.6-0.4l8.2-11.6l-0.4-2.5l-11.6-8.2l-2.6,0.4l-8.2,11.6L1192.7,748.4L1192.7,748.4z M1179.4,732.1l-2.3,3.2l0.4,2.3
	l11.6,8.2l2.5-0.4l8.2-11.6l-0.4-2.5l-11.6-8.2l-2.3,0.4l-4.1,5.7L1179.4,732.1L1179.4,732.1z M1188.3,722.5l11.6,8.2l2.5-0.4
	l8.2-11.6l-0.4-2.3l-11.9-8.4l-2.1,0.3l-8.4,11.9L1188.3,722.5L1188.3,722.5z M1203.4,733.2l11.6,8.2l2.6-0.4l8.2-11.6l-0.4-2.3
	l-11.9-8.4l-2.3,0.4l-8.2,11.6L1203.4,733.2L1203.4,733.2z M1232.3,751.8h0.2l8.4-11.8l-0.3-2.1l-11.8-8.4l-2.3,0.4l-8.2,11.6
	l0.4,2.5l10.7,7.6c0.3-0.3,0.7-0.5,1.2-0.5c0.4,0,0.9,0.1,1.2,0.3L1232.3,751.8L1232.3,751.8z M1235,753.8l0.8,0.5
	c0.4,0.3,0.6,0.6,0.7,1.1c0.1,0.4,0.1,0.9-0.1,1.3l10.6,7.5l2.6-0.4l8.2-11.6l-0.4-2.3l-11.8-8.4l-2.1,0.4l-8.4,11.8L1235,753.8
	L1235,753.8z M1250.5,766.7l11.6,8.2l2.5-0.4l8.2-11.6l-0.4-2.3l-11.9-8.4l-2.3,0.4l-8.2,11.6L1250.5,766.7L1250.5,766.7z
	 M1265.6,777.4l10.6,7.5c0.3-0.3,0.7-0.5,1.2-0.5c0.4,0,0.9,0.1,1.2,0.3l0.8,0.5h0.1l8.4-11.8l-0.4-2.1l-11.8-8.4l-2.3,0.4
	l-8.2,11.6L1265.6,777.4L1265.6,777.4z M1282.1,787.2l0.6,0.5c0.4,0.3,0.6,0.6,0.7,1.1c0.1,0.4,0.1,0.9-0.1,1.3l10.7,7.6l2.6-0.4
	l8.2-11.6l-0.4-2.3l-11.8-8.4l-2.1,0.4l-8.4,11.8L1282.1,787.2L1282.1,787.2z M1297.6,800.1l11.6,8.2l2.5-0.4l8.2-11.6l-0.4-2.3
	l-11.9-8.4l-2.3,0.4l-8.2,11.6L1297.6,800.1z M1312.3,808.3l8.2-11.6l2.3-0.4l11.9,8.4l0.4,2.1l-8.4,11.8l-2.3,0.4l-11.6-8.2
	L1312.3,808.3L1312.3,808.3z"/>
<path class="st21" d="M1059.6,699.2l11.9,8.4l2.1-0.3l8.4-11.9l-0.4-2.3l-11.6-8.2l-2.6,0.4l-8.2,11.6L1059.6,699.2L1059.6,699.2z
	 M1044.5,688.5l11.9,8.4l2.3-0.4l8.2-11.6l-0.4-2.5l-11.6-8.2l-2.6,0.4l-8.2,11.6L1044.5,688.5L1044.5,688.5z M1037.6,663.8h-0.2
	l-8.4,11.9l0.3,2.1l11.8,8.4l2.3-0.4l8.2-11.6l-0.4-2.6l-10.7-7.6c-0.3,0.3-0.7,0.5-1.2,0.5c-0.4,0-0.9-0.1-1.2-0.3L1037.6,663.8
	L1037.6,663.8z M1012.5,665.8l11.8,8.4l2.1-0.4l8.4-11.9v-0.1l-0.8-0.5c-0.4-0.3-0.6-0.6-0.7-1.1c-0.1-0.4-0.1-0.9,0.1-1.3
	l-10.6-7.5l-2.6,0.4l-8.2,11.6L1012.5,665.8L1012.5,665.8z M997.4,655l11.9,8.4l2.3-0.4l8.2-11.6l-0.4-2.5l-11.6-8.2l-2.6,0.4
	l-8.2,11.6L997.4,655L997.4,655z M990.5,630.3h-0.1l-8.4,11.9l0.3,2.1l11.9,8.4l2.3-0.4l8.2-11.6l-0.4-2.6l-10.6-7.5
	c-0.3,0.3-0.7,0.5-1.2,0.5c-0.4,0-0.9-0.1-1.2-0.3L990.5,630.3L990.5,630.3z M965.4,632.3l11.9,8.4l2.1-0.3l8.4-11.9v-0.2l-0.6-0.5
	c-0.4-0.3-0.6-0.6-0.7-1.1c-0.1-0.4-0.1-0.9,0.1-1.3l-10.7-7.6l-2.5,0.4L965,630L965.4,632.3L965.4,632.3z M950.3,621.6l11.9,8.4
	l2.3-0.4l8.2-11.6l-0.4-2.5l-11.6-8.2l-2.5,0.4l-8.2,11.6L950.3,621.6L950.3,621.6z M935.2,610.9l11.9,8.4l2.3-0.4l8.2-11.6
	l-0.4-2.5l-11.6-8.2l-2.3,0.4l-8.4,11.9L935.2,610.9L935.2,610.9z M950.3,587.1l-4.7,6.6l0.4,2.3l11.6,8.2l2.5-0.4l8.2-11.6
	l-0.4-2.5l-11.6-8.2l-2.3,0.4l-1.6,2.3L950.3,587.1L950.3,587.1z M961.1,606.7l11.6,8.2l2.6-0.4l8.2-11.6l-0.4-2.5l-11.6-8.2
	l-2.5,0.4l-8.2,11.6L961.1,606.7L961.1,606.7z M989.9,625.3h0.2l8.4-11.9v-0.2l-0.6-0.4c-0.4-0.3-0.6-0.6-0.7-1
	c-0.1-0.4-0.1-0.9,0.1-1.3l-10.7-7.6l-2.5,0.4l-8.2,11.6l0.4,2.5l10.7,7.5c0.3-0.3,0.7-0.5,1.2-0.5c0.4,0,0.9,0.1,1.2,0.3
	L989.9,625.3L989.9,625.3z M1001.2,615.2h-0.2l-8.4,11.9v0.2l0.7,0.5c0.4,0.3,0.6,0.6,0.7,1c0.1,0.4,0.1,0.9-0.1,1.3l10.6,7.5
	l2.6-0.4l8.2-11.6l-0.4-2.6l-10.6-7.5c-0.3,0.3-0.7,0.5-1.2,0.5c-0.4,0-0.9-0.1-1.2-0.3L1001.2,615.2L1001.2,615.2z M1008.2,640.1
	l11.6,8.2l2.5-0.4l8.2-11.6l-0.4-2.5l-11.6-8.2l-2.5,0.4l-8.2,11.6L1008.2,640.1L1008.2,640.1z M1037,658.7h0.2l8.4-11.9v-0.2
	l-0.8-0.5c-0.4-0.3-0.6-0.6-0.7-1c-0.1-0.4-0.1-0.9,0.1-1.3l-10.6-7.5l-2.6,0.4l-8.2,11.6l0.4,2.6l10.6,7.5c0.3-0.3,0.7-0.5,1.2-0.5
	c0.4,0,0.9,0.1,1.2,0.3L1037,658.7L1037,658.7z M1048.4,648.7h-0.2l-8.4,11.9v0.2l0.6,0.4c0.4,0.3,0.6,0.6,0.7,1
	c0.1,0.4,0.1,0.9-0.1,1.3l10.7,7.6l2.5-0.4l8.2-11.6l-0.4-2.5l-10.7-7.6c-0.3,0.3-0.7,0.5-1.2,0.5c-0.4,0-0.9-0.1-1.2-0.3
	L1048.4,648.7L1048.4,648.7z M1055.3,673.6l11.6,8.2l2.5-0.4l8.2-11.6l-0.4-2.6l-11.6-8.2l-2.5,0.4l-8.2,11.6L1055.3,673.6
	L1055.3,673.6z M1070.4,684.3l11.6,8.2l2.3-0.4l8.4-11.9l-0.4-2.3l-11.6-8.2l-2.5,0.4l-8.2,11.6L1070.4,684.3L1070.4,684.3z
	 M1081.1,669.2l11.6,8.2l2.3-0.4l8.4-11.8l-0.4-2.3l-11.6-8.2l-2.5,0.4l-8.2,11.6L1081.1,669.2L1081.1,669.2z M1066,658.5l11.6,8.2
	l2.6-0.4l8.2-11.6l-0.4-2.6l-11.6-8.2l-2.5,0.4l-8.2,11.6L1066,658.5z M1059.1,633.5h-0.2l-8.4,11.8v0.2l0.6,0.4
	c0.4,0.3,0.6,0.6,0.7,1.1c0.1,0.4,0.1,0.9-0.1,1.3l10.7,7.6l2.6-0.4l8.2-11.6l-0.4-2.6l-10.7-7.6c-0.3,0.3-0.7,0.5-1.2,0.5
	c-0.4,0-0.9-0.1-1.2-0.3L1059.1,633.5L1059.1,633.5z M1034,635.8l10.6,7.5c0.3-0.3,0.7-0.5,1.2-0.5c0.4,0,0.9,0.1,1.2,0.3l0.8,0.5
	h0.2l8.4-11.8v-0.2l-0.7-0.5c-0.4-0.3-0.6-0.6-0.7-1c-0.1-0.4-0.1-0.9,0.1-1.3l-10.6-7.5l-2.6,0.4l-8.2,11.6L1034,635.8L1034,635.8z
	 M1018.9,625l11.6,8.2l2.5-0.4l8.2-11.6l-0.4-2.5l-11.6-8.2l-2.6,0.4l-8.2,11.6L1018.9,625z M1012,600.1h-0.2l-8.4,11.9v0.2l0.7,0.5
	c0.4,0.3,0.6,0.6,0.7,1.1c0.1,0.4,0.1,0.9-0.1,1.3l10.6,7.5l2.5-0.4l8.2-11.6l-0.4-2.6l-10.6-7.5c-0.3,0.3-0.7,0.5-1.2,0.5
	c-0.4,0-0.9-0.1-1.2-0.4L1012,600.1L1012,600.1z M1000.6,610.2h0.2l8.4-11.9v-0.2l-0.6-0.4c-0.4-0.3-0.6-0.6-0.7-1
	c-0.1-0.4-0.1-0.9,0.1-1.3l-10.7-7.6l-2.5,0.4l-8.2,11.6l0.4,2.5l10.7,7.6c0.3-0.3,0.7-0.5,1.2-0.5c0.4,0,0.9,0.1,1.2,0.3
	L1000.6,610.2L1000.6,610.2z M971.8,591.6l11.6,8.2l2.5-0.4l8.2-11.6l-0.4-2.5l-11.6-8.2l-2.6,0.4l-8.2,11.6L971.8,591.6z
	 M958.6,575.4l-2.3,3.2l0.4,2.3l11.6,8.2l2.5-0.4l8.2-11.6l-0.4-2.5l-11.6-8.2l-2.3,0.4l-4.1,5.7L958.6,575.4L958.6,575.4z
	 M967.4,565.8L979,574l2.5-0.4l8.2-11.6l-0.4-2.3l-11.9-8.4l-2.1,0.3l-8.4,11.8L967.4,565.8L967.4,565.8z M982.5,576.5l11.6,8.2
	l2.5-0.4l8.2-11.6l-0.4-2.3l-11.9-8.4l-2.3,0.4l-8.2,11.6L982.5,576.5L982.5,576.5z M1011.4,595.1h0.1l8.4-11.9l-0.4-2.1l-11.8-8.4
	l-2.3,0.4l-8.2,11.6l0.4,2.5l10.7,7.6c0.3-0.3,0.7-0.5,1.2-0.5c0.4,0,0.9,0.1,1.2,0.3L1011.4,595.1L1011.4,595.1z M1014.2,597.1
	l0.8,0.5c0.4,0.3,0.6,0.6,0.7,1.1c0.1,0.4,0.1,0.9-0.1,1.3l10.6,7.5l2.6-0.4l8.2-11.6l-0.4-2.3l-11.8-8.4l-2.1,0.4l-8.4,11.9
	L1014.2,597.1L1014.2,597.1z M1029.6,610l11.6,8.2l2.5-0.4l8.2-11.6l-0.4-2.3l-11.9-8.4l-2.3,0.4l-8.2,11.6L1029.6,610L1029.6,610z
	 M1044.8,620.7l10.6,7.5c0.3-0.3,0.7-0.5,1.2-0.5c0.4,0,0.9,0.1,1.2,0.3l0.8,0.5h0.1l8.4-11.9l-0.4-2.1l-11.8-8.4l-2.3,0.4
	l-8.2,11.6L1044.8,620.7L1044.8,620.7z M1061.2,630.5l0.6,0.4c0.4,0.3,0.6,0.6,0.7,1.1c0.1,0.4,0.1,0.9-0.1,1.3l10.7,7.6l2.6-0.4
	l8.2-11.6l-0.4-2.3l-11.9-8.4l-2.1,0.3l-8.4,11.8L1061.2,630.5L1061.2,630.5z M1076.7,643.4l11.6,8.2l2.5-0.4l8.2-11.6l-0.4-2.3
	l-11.9-8.4l-2.3,0.4l-8.2,11.6L1076.7,643.4L1076.7,643.4z M1091.4,651.6l8.2-11.6l2.3-0.4l11.9,8.4l0.4,2.1l-8.4,11.9l-2.3,0.4
	l-11.6-8.2L1091.4,651.6L1091.4,651.6z"/>
<path class="st4" d="M1130.5,661.9l-0.1,2.3c4.7-6.4,19-0.7,30.4,7.4c6.1,4.4,11.3,9.2,14.5,13.7c3.7,5.2,4.6,9.6,2.4,12.6l2.5-1
	c3.9-6.3-6.1-18.1-18.2-26.7C1149.8,661.6,1135,655.9,1130.5,661.9L1130.5,661.9z M1139,656c-3.9-0.4-6.7,0.5-8.3,2.6l-0.1,2.2
	c5.6-5.5,20.1,0.5,31.7,8.8c6.6,4.7,12.1,9.9,15.6,14.7c3.4,4.8,4.6,9,3.3,12.1l2-0.8c1.3-2.2,1.2-5.1-0.4-8.5
	C1176.9,674.4,1152.8,657.3,1139,656L1139,656z M1186.1,694.3c4.2-7.2-6.8-20.4-20.2-30c-13.4-9.5-29.6-15.6-35-9.1l-0.1,2.2
	c1.8-1.8,4.6-2.5,8.3-2.1c7.2,0.7,16.7,5.3,25.3,11.3c8.5,6,16,13.6,19,20.1c1.5,3.3,1.8,6.1,0.8,8.4L1186.1,694.3L1186.1,694.3z
	 M1189.1,693.1c4.5-7.7-7.1-21.6-21.2-31.6c-14.1-10-31-16.3-36.8-9.5l-0.1,2.2c3.2-3,8.8-2.9,15.2-0.9c6.4,2,13.7,6,20.1,10.5
	c12.8,9.1,24.3,22.1,20.8,30.1L1189.1,693.1L1189.1,693.1z M1169.7,659c15.1,10.7,27.7,25.3,22.8,32.7l-2.4,1
	c1.6-3.7,0.4-8.6-3.6-14.4c-4-5.8-10.4-11.9-18.1-17.4c-13.5-9.6-30.4-16.4-37.1-10l0.2-2.6C1136.6,641.3,1154.6,648.4,1169.7,659
	L1169.7,659z"/>
<path class="st11" d="M1120.9,677.2l3.1-4.3l3.1-0.2l-3,4.2L1120.9,677.2z"/>
<path class="st11" d="M1124.9,676.8l3-4.2l2.6-0.2l-2.9,4.1L1124.9,676.8z"/>
<path class="st11" d="M1110,690.9l5.1-7.2l5.3-0.4l4-5.7l3.6-0.3l3.4-4.8l7.5-0.4l-22.2,31.2l-7.5,0.4l3.9-5.5l-3.6,0.3l5.7-8.1
	L1110,690.9z"/>
<path class="st11" d="M1114.7,683l-6.1,8.6l5.3-0.5l-5.2,7.4l-4,0.4l-3.7,5.2l-5.1,0.3l6.6-9.4l2.1-2.9l6.2-8.7l2.1-2.9l5.1-7.2
	l5.1-0.3l-3.6,5.1l4-0.4l-3.5,4.9L1114.7,683z"/>
<path class="st11" d="M1105.1,703.9l-3.3,0.2l3.2-4.5l3.1-0.3l-3.2,4.5L1105.1,703.9z"/>
<path class="st11" d="M1105.7,703.9l3.3-4.7l2.7-0.2l-3.4,4.7L1105.7,703.9z"/>
<path class="st13" d="M1166.7,704.8l3-4.3l0.7,2.6l0,0l-3.1,4.3L1166.7,704.8z"/>
<path class="st13" d="M1167.6,708.3l3.1-4.4l0.9,2.9l-3.2,4.5L1167.6,708.3z"/>
<path class="st13" d="M1145.3,723.7l22.1-31.2l2.1,7.2l-3.5,5l0.9,3.5l-4,5.7l1.4,5.1l-5.1,7.2l-1.3-5.2l-5.7,8.1l-0.9-3.5l-3.8,5.3
	L1145.3,723.7z"/>
<path class="st13" d="M1147.6,731.7l3.2-4.6l0.7,2.6l-3.2,4.5L1147.6,731.7z"/>
<path class="st13" d="M1148.6,735.1l3.2-4.5l0.8,3l-3.1,4.4L1148.6,735.1z"/>
<path class="st13" d="M1168,719.6l-2.1,2.9l-6.2,8.7l-2.1,2.9l-6.6,9.4l-1.3-4.7l3.6-5.1l-1-3.9l5.2-7.4l1.3,5.2l6.1-8.6l-1.3-5.1
	l3.5-4.9l1,3.9l3.7-5.3l1.3,4.7L1168,719.6z"/>
<path class="st11" d="M1135.7,695.2l7.4-10.4l10.7,7.6l-7.4,10.4L1135.7,695.2z"/>
<path class="st11" d="M1131.8,700.8l3.4-4.8l10.7,7.6l-3.4,4.8L1131.8,700.8z"/>
<path class="st11" d="M1117.6,703.7l22.3-31.5l13.1,9.3l-4.2,6l-6-4.2l-12.6,17.7l6,4.2l-5.5,7.8L1117.6,703.7z"/>
<path class="st11" d="M1149.4,688l4.2-6l13.3,9.4l-22.3,31.5l-13.3-9.4l5.5-7.8l5.9,4.2l12.6-17.7L1149.4,688z"/>
<path class="st11" d="M1177.9,684.3c3.5,4.9,4.6,9.1,3.3,12.1l2-0.8c1.3-2.2,1.2-5.1-0.4-8.5c-2.9-6.3-10.4-13.8-18.9-19.8l-1.6,2.3
	h0.1C1168.9,674.2,1174.4,679.5,1177.9,684.3L1177.9,684.3z"/>
<path class="st11" d="M1175.2,685.3c3.7,5.2,4.6,9.6,2.4,12.6l2.5-1c3.9-6.3-6.1-18.1-18.2-26.7h-0.1l-1.1,1.5
	C1166.9,676,1172,680.9,1175.2,685.3L1175.2,685.3z"/>
<path class="st11" d="M1168.3,661c7.7,5.5,14.1,11.6,18.1,17.3c4,5.7,5.2,10.7,3.6,14.4l2.4-1c5-7.3-7.6-22-22.7-32.7L1168.3,661
	L1168.3,661z"/>
<path class="st11" d="M1189.1,693.1c4.5-7.7-7.1-21.6-21.1-31.6l-1.6,2.3c12.8,9.1,24.3,22.1,20.8,30.1L1189.1,693.1L1189.1,693.1z"
	/>
<path class="st11" d="M1186.1,694.4c4.2-7.2-6.8-20.5-20.2-30l-1.6,2.3c8.5,6.1,16,13.6,19,20.1c1.5,3.3,1.8,6.1,0.8,8.4
	L1186.1,694.4L1186.1,694.4z"/>
<path class="st11" d="M1187.1,693.9c3.6-8-7.9-21-20.8-30.1l-0.4,0.6c13.4,9.5,24.4,22.7,20.2,30L1187.1,693.9L1187.1,693.9z"/>
<path class="st11" d="M1181.1,696.5c1.3-3.1,0.2-7.2-3.3-12.1c-3.5-4.9-9-10.1-15.6-14.7h-0.1l-0.4,0.6h0.1
	c12.1,8.6,22.1,20.4,18.2,26.7L1181.1,696.5L1181.1,696.5z"/>
<path class="st11" d="M1184.1,695.2c1-2.3,0.8-5.1-0.8-8.4c-3-6.5-10.5-14-19-20.1l-0.4,0.6c8.5,6,16,13.5,18.9,19.8
	c1.6,3.5,1.7,6.3,0.4,8.5L1184.1,695.2L1184.1,695.2z"/>
<path class="st11" d="M1186.4,678.3c-4-5.7-10.4-11.9-18.1-17.3l-0.4,0.6c14.1,10,25.6,23.9,21.1,31.6l1-0.4
	C1191.7,689,1190.5,684.1,1186.4,678.3L1186.4,678.3z"/>
<path class="st11" d="M1160.8,731.9l11.9,8.4l-1.2,1.7l-11.9-8.4L1160.8,731.9z"/>
<path class="st11" d="M1169,719.9l11.8,8.4l-1.3,1.9l-11.8-8.4L1169,719.9z"/>
<path class="st11" d="M1091.6,683.1l11.9,8.4l-1,1.5l-11.9-8.4L1091.6,683.1z"/>
<path class="st11" d="M1100.3,671.5l11.8,8.4l-1.2,1.7l-11.8-8.4L1100.3,671.5z"/>
<path class="st22" d="M1221.6,767.6l1.9,1.4l9.2-12.9l-1.9-1.4L1221.6,767.6z M1268.8,801.1l1.9,1.4l9.2-12.9l-1.9-1.4L1268.8,801.1
	z M1210.8,782.8l1.9,1.4l9.2-12.9l-1.9-1.4L1210.8,782.8z M1267.2,803.3l1.9,1.4l-9.1,12.9l-1.9-1.4L1267.2,803.3L1267.2,803.3z"/>
<path class="st9" d="M1000.8,610.9l1.9,1.4l9.2-12.9l-1.9-1.3L1000.8,610.9L1000.8,610.9z M1047.9,644.3l1.9,1.4l9.2-12.9l-1.9-1.4
	L1047.9,644.3z M990,626l1.9,1.4l9.2-12.9l-1.9-1.4L990,626z M1046.3,646.6l1.9,1.4l-9.2,12.9l-1.9-1.4L1046.3,646.6z"/>
<path class="st11" d="M1084.6,770.6l1.7-2.4l2.7,1.9l-1.6,2.4L1084.6,770.6z"/>
<path class="st9" d="M1291.1,772.6l-9.9,14l-0.9-0.6l9.9-14l-46.2-32.8l-9.9,14l-0.9-0.6l9.9-14l-46.2-32.8l-16.3,22.9l-0.6,0.8
	l-0.9,1.2l-0.6,0.8l-6.2,8.7l-0.6,0.8l-0.8,1.2l-0.7,0.9l-16.9,23.8l46.2,32.8l9.9-14l0.9,0.6l-9.9,14l46.2,32.8l9.9-14l0.9,0.6
	l-9.9,14l46.2,32.8l43.5-61.3L1291.1,772.6z M1307.7,785.6l11.9,8.4l0.4,2.3l-8.2,11.6l-2.5,0.4l-11.6-8.2l-0.4-2.5l8.2-11.6
	L1307.7,785.6z M1261.2,817.9l-0.6-0.4v-0.2l8.4-11.9h0.2l0.6,0.4c0.4,0.3,0.8,0.4,1.2,0.3c0.4,0,0.9-0.2,1.2-0.5l10.7,7.6l0.4,2.5
	l-8.2,11.6l-2.5,0.4l-10.7-7.6c0.2-0.4,0.2-0.9,0.1-1.3C1261.9,818.5,1261.6,818.1,1261.2,817.9L1261.2,817.9z M1214.2,784.5
	l-0.7-0.5v-0.2l8.4-11.9h0.2l0.7,0.5c0.4,0.3,0.8,0.4,1.2,0.3c0.4,0,0.8-0.2,1.2-0.5l10.6,7.5l0.5,2.5L1228,794l-2.6,0.4l-10.6-7.5
	c0.2-0.4,0.2-0.9,0.1-1.3C1214.9,785.2,1214.6,784.8,1214.2,784.5L1214.2,784.5z M1229.4,754.4l0.6,0.5v0.2l-8.4,11.8h-0.2l-0.6-0.5
	c-0.4-0.2-0.8-0.4-1.2-0.3c-0.4,0-0.8,0.2-1.2,0.5l-10.7-7.6l-0.4-2.6l8.2-11.6l2.5-0.4l10.7,7.6c-0.2,0.4-0.2,0.9-0.1,1.3
	S1229.1,754.2,1229.4,754.4L1229.4,754.4z M1276.4,787.8l0.7,0.5v0.2l-8.4,11.8h-0.2l-0.8-0.5c-0.4-0.3-0.8-0.4-1.2-0.3
	c-0.4,0-0.8,0.2-1.2,0.5l-10.6-7.5l-0.4-2.6l8.2-11.6l2.6-0.4l10.6,7.5c-0.2,0.4-0.2,0.9-0.1,1.3
	C1275.8,787.1,1276,787.5,1276.4,787.8L1276.4,787.8z M1272,802.8l-0.6-0.4v-0.2l8.4-11.8h0.2l0.6,0.4c0.4,0.3,0.8,0.4,1.2,0.4
	c0.4,0,0.8-0.2,1.2-0.5l10.7,7.6l0.4,2.5l-8.2,11.6l-2.6,0.4l-10.7-7.6c0.2-0.4,0.2-0.9,0.1-1.3C1272.6,803.4,1272.4,803,1272,802.8
	L1272,802.8z M1271.6,804.8c-0.1,0.1-0.2,0.2-0.2,0.2c-0.1,0.1-0.2,0.1-0.3,0.1c-0.1,0-0.2,0-0.3,0c-0.1,0-0.2-0.1-0.3-0.1l-4.2-2.9
	c-0.2-0.1-0.3-0.3-0.3-0.6c0-0.2,0-0.5,0.1-0.6c0.1-0.2,0.3-0.3,0.5-0.3c0.2,0,0.5,0,0.6,0.1l4.2,3c0.1,0.1,0.2,0.1,0.2,0.2
	c0.1,0.1,0.1,0.2,0.1,0.3c0,0.1,0,0.2,0,0.3C1271.7,804.6,1271.7,804.7,1271.6,804.8L1271.6,804.8z M1253.9,789.5l-2.5,0.4
	l-11.6-8.2l-0.4-2.5l8.2-11.6l2.5-0.4l11.6,8.2l0.4,2.6L1253.9,789.5z M1238.8,778.8l-2.6,0.4l-10.6-7.5c0.2-0.4,0.2-0.9,0.1-1.3
	c-0.1-0.4-0.4-0.8-0.7-1.1l-0.7-0.5v-0.2l8.4-11.8h0.2l0.7,0.5c0.3,0.3,0.8,0.4,1.2,0.3c0.4,0,0.9-0.2,1.2-0.5l10.6,7.5l0.5,2.6
	L1238.8,778.8z M1224.6,771.4c-0.1,0.2-0.3,0.3-0.6,0.3c-0.2,0-0.5,0-0.6-0.1l-4.2-3c-0.1-0.1-0.2-0.1-0.2-0.2
	c-0.1-0.1-0.1-0.2-0.1-0.3c0-0.1,0-0.2,0-0.3c0-0.1,0.1-0.2,0.1-0.3c0.1-0.2,0.3-0.3,0.6-0.3c0.2,0,0.4,0,0.6,0.1l4.2,3
	c0.1,0.1,0.2,0.1,0.3,0.2c0.1,0.1,0.1,0.2,0.1,0.3c0,0.1,0,0.2,0,0.4C1224.8,771.3,1224.7,771.4,1224.6,771.4L1224.6,771.4z
	 M1206.8,756.1l-2.6,0.4l-11.6-8.2l-0.4-2.5l8.2-11.6l2.6-0.4l11.6,8.2l0.4,2.5L1206.8,756.1z M1203.8,757.1l0.4,2.5l-8.2,11.6
	l-2.6,0.4l-11.6-8.2l-0.4-2.6l8.2-11.6l2.6-0.4L1203.8,757.1z M1204.8,760.1l2.5-0.4l10.7,7.6c-0.2,0.4-0.2,0.8-0.1,1.3
	c0.1,0.4,0.4,0.8,0.7,1l0.6,0.4v0.2l-8.4,11.8h-0.2l-0.6-0.4c-0.4-0.2-0.8-0.4-1.2-0.3c-0.4,0-0.8,0.2-1.2,0.5l-10.7-7.6l-0.4-2.5
	L1204.8,760.1z M1236.8,782.8l2.6-0.4l11.6,8.2l0.4,2.6l-8.2,11.6l-2.6,0.4l-11.6-8.2l-0.4-2.5L1236.8,782.8z M1251.9,793.5l2.6-0.4
	l10.6,7.5c-0.2,0.4-0.2,0.8-0.1,1.3c0.1,0.4,0.4,0.8,0.7,1l0.8,0.5v0.2l-8.4,11.9h-0.2l-0.7-0.5c-0.4-0.2-0.8-0.4-1.2-0.3
	c-0.4,0-0.8,0.2-1.2,0.5l-10.6-7.5l-0.4-2.6L1251.9,793.5z M1283.9,816.2l2.5-0.4l11.5,8.2l0.4,2.6l-8.2,11.6l-2.5,0.4l-11.6-8.2
	l-0.4-2.5L1283.9,816.2z M1286.9,815.2l-0.4-2.5l8.2-11.6l2.5-0.4l11.6,8.2l0.4,2.5L1301,823l-2.6,0.4L1286.9,815.2z M1290.5,775.2
	l2.1-0.4l11.8,8.4l0.4,2.3l-8.2,11.6l-2.6,0.4l-10.7-7.6c0.2-0.4,0.2-0.9,0.1-1.3c-0.1-0.4-0.4-0.8-0.7-1.1l-0.6-0.5v-0.1
	L1290.5,775.2z M1282.2,788.5c0.2,0.1,0.3,0.3,0.3,0.6c0,0.2,0,0.5-0.2,0.6c-0.1,0.2-0.3,0.3-0.5,0.3c-0.2,0-0.5,0-0.6-0.2l-4.2-3
	c-0.2-0.1-0.3-0.3-0.3-0.5c0-0.2,0-0.4,0.1-0.6c0.1-0.1,0.1-0.2,0.2-0.2c0.1-0.1,0.2-0.1,0.3-0.1s0.2,0,0.3,0c0.1,0,0.2,0.1,0.3,0.1
	L1282.2,788.5z M1275.7,762.9l11.8,8.4l0.4,2.1l-8.4,11.8h-0.1l-0.8-0.5c-0.4-0.3-0.8-0.4-1.2-0.3c-0.4,0-0.8,0.2-1.2,0.5l-10.6-7.5
	l-0.4-2.5l8.2-11.6L1275.7,762.9z M1260.6,752.1l11.9,8.4l0.4,2.3l-8.2,11.6l-2.5,0.4l-11.6-8.2l-0.4-2.5l8.2-11.6L1260.6,752.1z
	 M1235,753.6l8.4-11.8l2.1-0.3l11.8,8.4l0.4,2.3l-8.2,11.6l-2.6,0.4l-10.6-7.5c0.2-0.4,0.2-0.9,0.1-1.3c-0.1-0.4-0.4-0.8-0.7-1.1
	l-0.8-0.5L1235,753.6z M1235.2,755.2c0.2,0.1,0.3,0.3,0.3,0.6s0,0.5-0.1,0.6c-0.1,0.1-0.2,0.2-0.2,0.2c-0.1,0.1-0.2,0.1-0.3,0.1
	c-0.1,0-0.2,0-0.3,0c-0.1,0-0.2-0.1-0.3-0.1l-4.2-2.9c-0.1-0.1-0.2-0.1-0.2-0.2c-0.1-0.1-0.1-0.2-0.1-0.3c0-0.1,0-0.2,0-0.3
	c0-0.1,0.1-0.2,0.1-0.3c0.1-0.1,0.2-0.2,0.2-0.2c0.1-0.1,0.2-0.1,0.3-0.1c0.1,0,0.2,0,0.3,0c0.1,0,0.2,0.1,0.3,0.1L1235.2,755.2z
	 M1228.6,729.5l11.8,8.4l0.3,2.1l-8.4,11.9h-0.2l-0.6-0.5c-0.4-0.3-0.8-0.4-1.2-0.3c-0.4,0-0.8,0.2-1.2,0.5l-10.7-7.5l-0.4-2.5
	l8.2-11.6L1228.6,729.5z M1213.5,718.7l11.9,8.4l0.4,2.3l-8.2,11.5l-2.6,0.4l-11.6-8.2l-0.4-2.5l8.2-11.6L1213.5,718.7z
	 M1196.3,708.4l2.1-0.4l11.9,8.4l0.4,2.3l-8.2,11.6l-2.5,0.4l-11.6-8.2l-0.4-2.3L1196.3,708.4z M1179.4,732.1l2.1-2.9l4.1-5.7
	l2.3-0.4l11.6,8.2l0.4,2.5l-8.2,11.6l-2.6,0.4l-11.6-8.2l-0.4-2.3L1179.4,732.1z M1171.1,743.8l2.1-2.9l1.6-2.3l2.3-0.4l11.6,8.2
	l0.4,2.5l-8.2,11.6l-2.5,0.4l-11.6-8.2l-0.4-2.3L1171.1,743.8z M1167.9,776l-11.9-8.4l-0.3-2.1l8.4-11.9l2.3-0.4l11.6,8.2l0.4,2.5
	l-8.2,11.6L1167.9,776z M1183,786.8l-11.9-8.4l-0.4-2.3l8.2-11.6l2.6-0.4l11.6,8.2l0.4,2.6l-8.2,11.6L1183,786.8z M1200.2,797.1
	l-2.1,0.4l-11.8-8.4l-0.4-2.3l8.2-11.6l2.5-0.4l10.7,7.6c-0.2,0.4-0.2,0.8-0.1,1.3c0.1,0.4,0.4,0.8,0.7,1.1l0.6,0.4v0.2
	L1200.2,797.1z M1208.5,783.8c-0.2-0.1-0.3-0.3-0.3-0.5c0-0.2,0-0.4,0.1-0.6c0.1-0.1,0.1-0.2,0.2-0.2c0.1-0.1,0.2-0.1,0.3-0.1
	c0.1,0,0.2,0,0.3,0c0.1,0,0.2,0.1,0.3,0.1l4.2,2.9c0.1,0.1,0.2,0.1,0.2,0.2c0.1,0.1,0.1,0.2,0.1,0.3c0,0.1,0,0.2,0,0.3
	c0,0.1-0.1,0.2-0.1,0.3c-0.1,0.1-0.2,0.2-0.2,0.2c-0.1,0.1-0.2,0.1-0.3,0.1s-0.2,0-0.3,0c-0.1,0-0.2-0.1-0.3-0.1L1208.5,783.8z
	 M1215,809.5l-11.8-8.4l-0.3-2.1l8.4-11.9h0.1l0.8,0.5c0.4,0.3,0.8,0.4,1.2,0.3c0.4,0,0.8-0.2,1.2-0.5l10.6,7.5l0.4,2.5l-8.2,11.6
	L1215,809.5z M1230.1,820.2l-11.9-8.4l-0.4-2.3l8.2-11.6l2.5-0.4l11.6,8.2l0.4,2.5l-8.2,11.6L1230.1,820.2z M1255.7,818.7l-8.4,11.9
	l-2.1,0.4l-11.8-8.4l-0.4-2.3l8.2-11.6l2.6-0.4l10.6,7.5c-0.2,0.4-0.2,0.8-0.1,1.3c0.1,0.4,0.4,0.8,0.7,1.1l0.8,0.5L1255.7,818.7z
	 M1255.5,817.2c-0.1-0.1-0.2-0.1-0.2-0.2c-0.1-0.1-0.1-0.2-0.1-0.3c0-0.1,0-0.2,0-0.3c0-0.1,0.1-0.2,0.1-0.3
	c0.1-0.1,0.1-0.2,0.2-0.2c0.1-0.1,0.2-0.1,0.3-0.1s0.2,0,0.3,0c0.1,0,0.2,0.1,0.3,0.1l4.2,3c0.1,0.1,0.2,0.1,0.2,0.2
	c0.1,0.1,0.1,0.2,0.1,0.3c0,0.1,0,0.2,0,0.3c0,0.1-0.1,0.2-0.1,0.3c-0.1,0.1-0.2,0.2-0.2,0.2c-0.1,0.1-0.2,0.1-0.3,0.1
	c-0.1,0-0.2,0-0.3,0c-0.1,0-0.2-0.1-0.3-0.1L1255.5,817.2z M1262.1,842.9l-11.8-8.4l-0.3-2.1l8.4-11.9h0.2l0.6,0.4
	c0.4,0.3,0.8,0.4,1.2,0.3c0.4,0,0.8-0.2,1.2-0.5l10.7,7.6l0.4,2.5l-8.2,11.6L1262.1,842.9z M1277.2,853.6l-11.9-8.4l-0.4-2.3
	l8.2-11.6l2.5-0.4l11.6,8.2l0.4,2.5l-8.2,11.6L1277.2,853.6z M1294.4,864l-2.1,0.4l-11.9-8.4l-0.4-2.3l8.2-11.6l2.5-0.4l11.6,8.2
	l0.4,2.3L1294.4,864z M1305.1,848.9l-2.3,0.4l-11.6-8.2l-0.4-2.5l8.2-11.6l2.5-0.4l11.6,8.2l0.4,2.3L1305.1,848.9z M1315.8,833.8
	l-2.3,0.4l-11.5-8.2l-0.4-2.5l8.2-11.6l2.5-0.4l11.6,8.2l0.4,2.3L1315.8,833.8z M1324.3,819l-11.6-8.2l-0.4-2.5l8.2-11.6l2.3-0.4
	l11.9,8.4l0.4,2.1l-8.4,11.8L1324.3,819z"/>
<path class="st9" d="M1072.9,709.9l15.4-21.7l3.6-5l6.2-8.7l3.5-5l14.8-20.9l-46.2-32.8l-9.9,14l-0.9-0.6l9.9-14l-46.2-32.8l-9.9,14
	l-0.9-0.6l9.9-14L976,549l-43.5,61.3l46.2,32.7l9.9-14l0.9,0.6l-9.9,14l46.2,32.8l9.9-14l0.9,0.6l-9.9,14L1072.9,709.9z
	 M1056.3,696.9l-11.8-8.4l-0.4-2.3l8.2-11.6l2.5-0.4l11.6,8.2l0.4,2.6l-8.2,11.6L1056.3,696.9z M1040.4,661.2l-0.6-0.5v-0.2
	l8.4-11.9h0.2l0.6,0.5c0.3,0.3,0.8,0.4,1.2,0.3c0.4,0,0.8-0.2,1.2-0.5l10.7,7.6l0.4,2.5l-8.2,11.6l-2.6,0.4l-10.7-7.6
	c0.2-0.4,0.2-0.9,0.1-1.3C1041.1,661.8,1040.8,661.4,1040.4,661.2L1040.4,661.2z M993.4,627.8l-0.7-0.5v-0.2l8.4-11.9h0.2l0.8,0.5
	c0.3,0.3,0.8,0.4,1.2,0.3c0.4,0,0.9-0.2,1.2-0.5l10.6,7.5l0.4,2.5l-8.2,11.6l-2.5,0.4l-10.6-7.5c0.2-0.4,0.2-0.9,0.1-1.3
	C994.1,628.4,993.8,628.1,993.4,627.8L993.4,627.8z M1008.5,597.7l0.6,0.4v0.2l-8.4,11.9h-0.2l-0.6-0.4c-0.4-0.3-0.8-0.4-1.2-0.3
	c-0.4,0-0.8,0.2-1.2,0.5l-10.7-7.6l-0.4-2.5l8.2-11.6l2.6-0.4l10.7,7.6c-0.2,0.4-0.2,0.9-0.1,1.3S1008.2,597.4,1008.5,597.7
	L1008.5,597.7z M1055.6,631l0.7,0.5v0.2l-8.4,11.8h-0.2l-0.7-0.5c-0.4-0.3-0.8-0.4-1.2-0.3c-0.4,0-0.8,0.2-1.2,0.5l-10.6-7.5
	l-0.4-2.6l8.2-11.6l2.5-0.4l10.6,7.5c-0.2,0.4-0.2,0.8-0.1,1.3C1054.9,630.4,1055.2,630.8,1055.6,631L1055.6,631z M1066,658.5
	l-0.4-2.5l8.2-11.6l2.5-0.4l11.6,8.2l0.4,2.6l-8.2,11.6l-2.6,0.4L1066,658.5z M1077.6,669.8l-8.2,11.6l-2.6,0.4l-11.6-8.2l-0.4-2.5
	l8.2-11.6l2.5-0.4l11.6,8.2L1077.6,669.8z M1065,655.5l-2.6,0.4l-10.7-7.6c0.2-0.4,0.2-0.8,0.1-1.3c-0.1-0.4-0.4-0.8-0.7-1l-0.6-0.5
	v-0.2l8.4-11.9h0.2l0.6,0.5c0.3,0.3,0.8,0.4,1.2,0.3c0.4,0,0.9-0.2,1.2-0.5l10.7,7.6l0.4,2.5L1065,655.5z M1050.8,648.1
	c-0.1,0.2-0.3,0.3-0.6,0.3c-0.2,0-0.4,0-0.6-0.1l-4.1-3c-0.1-0.1-0.2-0.1-0.2-0.2c-0.1-0.1-0.1-0.2-0.1-0.3c0-0.1,0-0.2,0-0.3
	c0-0.1,0.1-0.2,0.1-0.3c0.1-0.1,0.2-0.2,0.2-0.2c0.1-0.1,0.2-0.1,0.3-0.1c0.1,0,0.2,0,0.3,0s0.2,0.1,0.3,0.1l4.1,2.9
	c0.1,0.1,0.2,0.2,0.2,0.2c0.1,0.1,0.1,0.2,0.1,0.3c0,0.1,0,0.2,0,0.3C1050.9,647.9,1050.8,648,1050.8,648.1L1050.8,648.1z
	 M1049.6,644.9l-0.9-0.7l8.6-12.1l0.9,0.7L1049.6,644.9z M1033,632.8l-2.6,0.4l-11.5-8.2l-0.4-2.5l8.2-11.6l2.5-0.4l11.6,8.2
	l0.4,2.5L1033,632.8z M1017.9,622.1l-2.5,0.4l-10.6-7.5c0.2-0.4,0.2-0.8,0.1-1.3c-0.1-0.4-0.4-0.8-0.7-1l-0.8-0.5V612l8.4-11.8h0.2
	l0.7,0.5c0.3,0.3,0.8,0.4,1.2,0.3c0.4,0,0.8-0.2,1.2-0.5l10.6,7.5l0.4,2.5L1017.9,622.1z M1003.8,614.7c-0.1,0.1-0.1,0.2-0.2,0.2
	c-0.1,0.1-0.2,0.1-0.3,0.1c-0.1,0-0.2,0-0.3,0s-0.2-0.1-0.3-0.1l-4.1-2.9c-0.2-0.1-0.3-0.3-0.3-0.6c0-0.2,0-0.5,0.2-0.6
	s0.3-0.3,0.6-0.3c0.2,0,0.5,0,0.6,0.2l4.2,3c0.2,0.1,0.3,0.3,0.3,0.5C1004,614.3,1003.9,614.5,1003.8,614.7L1003.8,614.7z
	 M1002.5,611.5l-0.9-0.6l8.6-12.1l0.9,0.6L1002.5,611.5z M985.9,599.4l-2.5,0.4l-11.5-8.2l-0.4-2.5l8.2-11.6l2.5-0.4l11.6,8.2
	l0.4,2.5L985.9,599.4z M983,600.4l0.4,2.5l-8.2,11.6l-2.5,0.4l-11.6-8.2l-0.4-2.5l8.2-11.6l2.5-0.4L983,600.4z M984,603.3l2.6-0.4
	l10.7,7.6c-0.2,0.4-0.2,0.8-0.1,1.3c0.1,0.4,0.4,0.8,0.7,1l0.6,0.4v0.2l-8.4,11.9h-0.2l-0.6-0.4c-0.4-0.2-0.8-0.4-1.2-0.3
	s-0.8,0.2-1.2,0.5l-10.7-7.6l-0.4-2.6L984,603.3z M999.4,613.9l0.9,0.6l-8.6,12.1l-0.9-0.6L999.4,613.9z M1016,626l2.5-0.4l11.6,8.2
	l0.4,2.5l-8.2,11.6l-2.5,0.4l-11.6-8.2l-0.4-2.5L1016,626z M1031.1,636.7l2.6-0.4l10.6,7.5c-0.2,0.4-0.2,0.8-0.1,1.3
	c0.1,0.4,0.4,0.8,0.7,1l0.7,0.5v0.2l-8.4,11.9h-0.2l-0.7-0.5c-0.4-0.3-0.8-0.4-1.2-0.3c-0.4,0-0.8,0.2-1.2,0.5l-10.6-7.5l-0.4-2.5
	L1031.1,636.7z M1046.6,647.3l0.9,0.6l-8.6,12l-0.9-0.6L1046.6,647.3z M1073.6,707.2l-2.1,0.4l-11.8-8.4l-0.4-2.3l8.2-11.6l2.5-0.4
	l11.6,8.2l0.4,2.3L1073.6,707.2z M1091.1,682.5l-2.1,3l-4.7,6.6l-2.3,0.4l-11.6-8.2l-0.4-2.5l8.2-11.6l2.5-0.4l11.6,8.2l0.4,2.3
	L1091.1,682.5z M1099.3,670.9l-2.1,2.9l-2.3,3.2l-2.3,0.4l-11.6-8.2l-0.4-2.5l8.2-11.6l2.5-0.4l11.6,8.2l0.4,2.3L1099.3,670.9z
	 M1101.9,639.5l11.9,8.4l0.3,2.1l-8.4,11.8l-2.3,0.4l-11.6-8.2l-0.4-2.5l8.2-11.6L1101.9,639.5z M1086.8,628.8l11.9,8.4l0.4,2.3
	l-8.2,11.6l-2.6,0.4l-11.6-8.2l-0.4-2.5l8.2-11.6L1086.8,628.8z M1069.6,618.4l2.1-0.4l11.9,8.4l0.4,2.3l-8.2,11.6l-2.6,0.4
	l-10.7-7.6c0.2-0.4,0.2-0.9,0.1-1.3c-0.1-0.4-0.4-0.8-0.7-1.1l-0.7-0.5v-0.1L1069.6,618.4z M1061.3,631.7c0.2,0.1,0.3,0.3,0.3,0.5
	s0,0.4-0.1,0.6c-0.1,0.2-0.3,0.3-0.6,0.3c-0.2,0-0.5,0-0.6-0.1l-4.2-2.9c-0.2-0.1-0.3-0.3-0.3-0.6c0-0.2,0-0.5,0.1-0.6
	c0.1-0.2,0.3-0.3,0.6-0.3c0.2,0,0.4,0,0.6,0.1L1061.3,631.7z M1054.8,606.1l11.9,8.4l0.4,2.1l-8.4,11.9h-0.1l-0.8-0.5
	c-0.4-0.3-0.8-0.4-1.2-0.3c-0.4,0-0.9,0.2-1.2,0.5l-10.6-7.5l-0.4-2.5l8.2-11.6L1054.8,606.1z M1039.7,595.4l11.9,8.4l0.4,2.3
	l-8.2,11.6l-2.6,0.4l-11.6-8.2l-0.4-2.6l8.2-11.6L1039.7,595.4z M1022.5,585l2.1-0.3l11.8,8.4l0.4,2.3l-8.2,11.6l-2.6,0.4l-10.6-7.5
	c0.2-0.4,0.2-0.9,0.1-1.3c-0.1-0.4-0.4-0.8-0.7-1.1l-0.8-0.5v-0.1L1022.5,585z M1014.3,598.4c0.2,0.1,0.3,0.3,0.3,0.6
	c0,0.2,0,0.5-0.1,0.6c-0.1,0.2-0.3,0.3-0.5,0.3c-0.2,0-0.5,0-0.6-0.1l-4.2-3c-0.1-0.1-0.2-0.1-0.2-0.2c-0.1-0.1-0.1-0.2-0.1-0.3
	c0-0.1,0-0.2,0-0.3c0-0.1,0.1-0.2,0.1-0.3c0.1-0.1,0.2-0.2,0.2-0.2c0.1-0.1,0.2-0.1,0.3-0.1c0.1,0,0.2,0,0.3,0
	c0.1,0,0.2,0.1,0.3,0.1L1014.3,598.4z M1007.7,572.7l11.9,8.4l0.3,2.1l-8.4,11.8h-0.1l-0.6-0.5c-0.4-0.3-0.8-0.4-1.2-0.3
	c-0.4,0-0.9,0.2-1.2,0.5l-10.7-7.6l-0.4-2.6l8.2-11.6L1007.7,572.7z M992.6,562l11.9,8.4l0.4,2.3l-8.2,11.6l-2.5,0.4l-11.6-8.2
	l-0.4-2.5l8.2-11.6L992.6,562z M975.4,551.6l2.1-0.3l11.9,8.4l0.4,2.3l-8.2,11.6L979,574l-11.6-8.2l-0.4-2.3L975.4,551.6z
	 M964.7,566.7l2.3-0.4l11.6,8.2l0.4,2.5l-8.2,11.6l-2.6,0.4l-11.6-8.2l-0.4-2.3L964.7,566.7z M954,581.8l2.3-0.4l11.6,8.2l0.4,2.6
	l-8.2,11.6l-2.6,0.4L946,596l-0.4-2.3L954,581.8z M947,619.3l-11.9-8.4l-0.3-2.1l8.4-11.9l2.3-0.4l11.6,8.2l0.4,2.6l-8.2,11.6
	L947,619.3z M962.2,630l-11.9-8.4l-0.4-2.3l8.2-11.6l2.5-0.4l11.6,8.2l0.4,2.6l-8.2,11.6L962.2,630z M987.8,628.5l-8.4,11.9
	l-2.1,0.3l-11.8-8.4L965,630l8.2-11.6l2.6-0.4l10.7,7.6c-0.2,0.4-0.2,0.9-0.1,1.3c0.1,0.4,0.4,0.8,0.7,1.1l0.6,0.4L987.8,628.5z
	 M987.7,627.1c-0.2-0.1-0.3-0.3-0.3-0.6s0-0.5,0.1-0.6c0.1-0.2,0.3-0.3,0.6-0.3c0.2,0,0.5,0,0.6,0.1l4.2,3c0.1,0.1,0.2,0.1,0.2,0.2
	c0.1,0.1,0.1,0.2,0.1,0.3c0,0.1,0,0.2,0,0.3c0,0.1-0.1,0.2-0.1,0.3c-0.1,0.1-0.1,0.2-0.2,0.2c-0.1,0.1-0.2,0.1-0.3,0.1
	c-0.1,0-0.2,0-0.3,0s-0.2-0.1-0.3-0.1L987.7,627.1z M994.1,652.7l-11.8-8.4l-0.3-2.1l8.4-11.9h0.2l0.8,0.5c0.4,0.3,0.8,0.4,1.2,0.3
	c0.4,0,0.9-0.2,1.2-0.5l10.6,7.5l0.4,2.5l-8.2,11.6L994.1,652.7z M1009.2,663.4l-11.9-8.4l-0.4-2.3l8.2-11.6l2.6-0.4l11.6,8.2
	l0.4,2.5l-8.2,11.6L1009.2,663.4z M1026.4,673.8l-2.1,0.4l-11.9-8.4l-0.4-2.3l8.2-11.6l2.5-0.4l10.6,7.5c-0.2,0.4-0.2,0.8-0.1,1.3
	c0.1,0.4,0.4,0.8,0.7,1l0.8,0.5v0.1L1026.4,673.8z M1034.7,660.4c-0.1-0.1-0.2-0.1-0.2-0.2c-0.1-0.1-0.1-0.2-0.1-0.3
	c0-0.1,0-0.2,0-0.3c0-0.1,0.1-0.2,0.1-0.3c0.1-0.1,0.2-0.2,0.2-0.2c0.1-0.1,0.2-0.1,0.3-0.1c0.1,0,0.2,0,0.3,0
	c0.1,0,0.2,0.1,0.3,0.1l4.1,2.9c0.1,0.1,0.2,0.1,0.2,0.2c0.1,0.1,0.1,0.2,0.1,0.3c0,0.1,0,0.2,0,0.3c0,0.1-0.1,0.2-0.1,0.3
	c-0.1,0.1-0.1,0.2-0.2,0.2c-0.1,0.1-0.2,0.1-0.3,0.1c-0.1,0-0.2,0-0.3,0c-0.1,0-0.2-0.1-0.3-0.1L1034.7,660.4z M1037.4,663.8h0.1
	l0.7,0.5c0.4,0.3,0.8,0.4,1.2,0.3c0.4,0,0.8-0.2,1.2-0.5l10.7,7.6l0.4,2.5l-8.2,11.6l-2.3,0.4l-11.8-8.4l-0.3-2.1L1037.4,663.8z"/>
<path class="st9" d="M1193.2,682.3c-0.1-0.3-0.3-0.6-0.4-0.9c-0.9-1.8-1.9-3.5-3.1-5c-4.3-5.9-11.2-12.3-19.4-18.1
	c-6.4-4.6-13.3-8.4-20.6-11.3c-3.6-1.4-7.5-2.2-11.4-2.4c-3.4,0-6.2,1-7.9,3.4l-0.1,0.1l-1.1,19.7l1.5-2l0.4-0.7
	c4-5.7,17.6-0.5,29,7.5c11.1,7.9,20.2,18.7,16.9,24.5l-1.7,3l17.7-7.3l0.1-0.1C1195,689.8,1195,686.4,1193.2,682.3z M1177.7,697.9
	c2.1-3,1.3-7.4-2.4-12.6c-3.2-4.5-8.3-9.4-14.5-13.7c-11.3-8.1-25.7-13.8-30.4-7.4l0.1-2.3c4.5-6,19.2-0.4,31.4,8.2
	c12.2,8.7,22.1,20.4,18.2,26.7L1177.7,697.9z M1181.1,696.5c1.3-3.1,0.2-7.2-3.3-12.1c-3.5-4.9-9-10.1-15.6-14.7
	c-11.7-8.3-26.2-14.3-31.7-8.8l0.1-2.2c1.6-2.1,4.4-2.9,8.3-2.6c13.8,1.3,37.9,18.4,43.7,31c1.6,3.5,1.7,6.3,0.4,8.5L1181.1,696.5z
	 M1184.1,695.2c1-2.3,0.8-5.1-0.8-8.4c-3-6.5-10.5-14-19-20.1c-8.5-6.1-18.1-10.6-25.3-11.3c-3.7-0.3-6.5,0.4-8.3,2.2l0.1-2.2
	c5.4-6.5,21.6-0.4,35,9.1c13.4,9.5,24.4,22.7,20.2,30L1184.1,695.2z M1187.1,693.9c3.6-8-7.9-21-20.8-30.1
	c-6.4-4.6-13.7-8.5-20.1-10.5c-6.4-2-12-2.1-15.2,0.9l0.1-2.2c5.8-6.7,22.8-0.4,36.8,9.5c14.1,10,25.6,23.9,21.2,31.6L1187.1,693.9z
	 M1192.5,691.7l-2.4,1c1.6-3.7,0.4-8.6-3.6-14.4s-10.4-11.9-18.1-17.3c-13.5-9.6-30.3-16.4-37.1-10l0.2-2.6
	c5.3-7.1,23.3,0,38.4,10.7S1197.4,684.3,1192.5,691.7L1192.5,691.7z"/>
<path class="st9" d="M1108.5,719.3c3.9-4.5,11.5-2.4,17.1,1.6s10.1,10.5,7.2,15.7c0.2,0.3,0.5,0.5,0.7,0.8c1.6-2.6,1.7-5.6,0.1-8.9
	c-1.7-3.4-4.3-6.2-7.4-8.4c-6.1-4.3-14.5-6.5-18.7-1.1L1108.5,719.3z"/>
<path class="st9" d="M1132.4,736.1c1.7-5.3-2.3-11.2-7.2-14.6c-2.4-1.8-5.3-3-8.2-3.5c-1.4-0.3-2.8-0.3-4.1,0
	c-1.4,0.3-2.7,0.8-3.8,1.6l1.1,0.5c4.1-2.6,10.1-0.8,14.5,2.3c2.2,1.6,4.1,3.5,5.6,5.9c1.4,2.1,1.9,4.6,1.4,7L1132.4,736.1z"/>
<path class="st9" d="M1172.4,706.1l-0.2-0.6l-0.6-2l-3.6-12.5l-28.3-20.1l-12.7,0.7l-2.1,0.1l-7.6,0.4l-4.5,6.3l-1.6,2.2l-0.9,1.3
	l-8.3,11.6v0.1l-0.6,0.8l-7.1,10h-0.4l3.3,11.4c0,0,0.4,0.1,1.1,0.2l-3-10.7l21.1-1.2l27.7,19.7l5.8,20.3l-11,0.6
	c0.2,0.3,0.4,0.7,0.6,1l11.8-0.7l-0.1-0.4l7.1-10l0.6-0.8l0.9-1.2l0.6-0.8l3.1-4.4l3.7-5.1l0.2-0.3l1.2-1.8l5.4-7.6l-1.8-6.4
	L1172.4,706.1z M1171.5,706.8l-3.2,4.5l-0.8-3l3.1-4.4L1171.5,706.8z M1170.5,703.1l-3.1,4.3l-0.7-2.6l3-4.3L1170.5,703.1z
	 M1127.9,672.7l2.6-0.2l-2.9,4.1l-2.7,0.2L1127.9,672.7z M1127,672.7l-3,4.2l-3.1,0.3l3.1-4.3L1127,672.7z M1095.8,704.4l6.6-9.4
	l2.1-2.9l6.2-8.7l2.1-2.9l5.1-7.2l5.1-0.3l-3.6,5.1l4-0.4l-3.4,5l-5.3,0.4l-6.1,8.6l5.3-0.5l-5.2,7.4l-4,0.4l-3.7,5.2L1095.8,704.4z
	 M1101.8,704l3.2-4.5l3.1-0.3l-3.2,4.5l0.2,0.1L1101.8,704z M1105.8,703.8l3.3-4.6l2.7-0.2l-3.4,4.7L1105.8,703.8z M1109.3,703.6
	l3.9-5.5l-3.6,0.3l5.7-8.1l-5.3,0.5l5.1-7.2l5.3-0.4l4-5.7l3.6-0.3l3.4-4.8l7.5-0.4l-22.1,31.2L1109.3,703.6z M1117.7,703.7
	l22.3-31.4l13.1,9.3l-4.2,6l-6-4.2l-12.6,17.7l6,4.2l-5.5,7.8L1117.7,703.7z M1135.8,695.2l7.4-10.4l10.7,7.6l-7.4,10.4
	L1135.8,695.2z M1145.9,703.6l-3.4,4.8l-10.7-7.6l3.4-4.8L1145.9,703.6z M1131.4,713.4l5.5-7.8l5.9,4.2l12.6-17.7l-5.9-4.2l4.2-6
	l13.3,9.4l-22.3,31.4L1131.4,713.4z M1145.4,723.7l22.2-31.2l2,7.2l-3.5,5l0.9,3.5l-4,5.7l1.3,5.1l-5.1,7.2l-1.3-5.2l-5.8,8.1
	l-0.9-3.5l-3.8,5.3L1145.4,723.7z M1147.7,731.7l3.2-4.6l0.6,2.6l-3.2,4.5L1147.7,731.7z M1148.7,735l3.2-4.5l0.8,3l-3.1,4.3
	L1148.7,735z M1168,719.6l-2.1,2.9l-6.2,8.7l-2.1,2.9l-6.6,9.4l-1.3-4.7l3.6-5.1l-1-3.9l5.2-7.4l1.3,5.2l6.1-8.6l-1.3-5.1l3.5-4.9
	l1,3.9l3.7-5.3l1.3,4.7L1168,719.6z"/>
<path class="st23" d="M827,919c-213.2,0-398.2,120.4-490.8,296.9l981.3-0.7C1224.7,1039.1,1039.9,919,827,919z"/>
<path class="st10" d="M403.6,1214.5H1251c-84.4-146.3-242.3-244.8-423.3-244.9C646.4,969.5,488.1,1068.1,403.6,1214.5z"/>
<path class="st0" d="M403.6,1214.5H1251c-84.4-146.3-242.3-244.8-423.3-244.9C646.4,969.5,488.1,1068.1,403.6,1214.5z"/>
<path class="st13" d="M678,1205.2c1.5-7.4,22.3-20.2,37.6-24c15.3-3.8,19-10.3,16.7-15.2c-2.3-4.9,0.3-12.7,0.3-15.1
	c0-2.5,0.5-3.9,3-2.8c2.5,1.2,6.2-3.8,12.5-5.5s4.5-8.2,9.8-10.7s10.5-1.5,18.1-1.9c7.6-0.4-8.5-13.2,8.6-17.7
	c17.2-4.5,23.9-0.7,24.6-5.6c0.8-4.9,2.2-3.8,7.3-4.1c5.1-0.3,0,1.9-5.3,6.5c-5.3,4.6,1.8,8.1,10,6.3c8.2-1.8,15.7-6.3,19.9-8.8
	c4.2-2.5,10.1,0.4,9.8-4.4c-0.3-4.8-8.5-4.2-12.6-4.6c-4.1-0.4-2.5-1.2-6.3-2.7s-2.9-3.8-5.9-5.8c-3-1.9-0.1-3.1-0.5-6.1
	c-0.4-3,3.7-1.6,7-5c3.3-3.4-8.1-5-15.9-4.1c-7.8,0.9-16.5,3-21.3,5.4c-4.8,2.4-7.6,3.2-7.2,1.6c0.4-1.7,8.6-6.6,13-6.2
	c4.4,0.4,6,0.2,8.5-1.9s0.6-4.6,13.3-4.2c12.7,0.3,26.2,3.8,34.4-1.9c8.2-5.7,9.5-4.3,17.8-6.1s7-7.6,6.2-9.7s-5.1-3.8-6.6-5.3
	c-1.5-1.5-3.1-1-5.8-0.8c-2.7,0.1,1.1-0.8-3.1-4.7c-4.1-3.9-13.2-2.5-15.4-4.1c-2.2-1.6-4-1.7-6.8-1.1c-2.8,0.6-1.4-2.4,0.5-4.9
	c1.9-2.5-10.9-7.7-17.8-12.9s-6.1,0.1-6.7,3.5c-0.6,3.4-7.7,3.3-10.2,4.7s-5.5-0.8-7.9-3.1c-2.3-2.2-2.4-4.7-1.3-8.3s-2.7-1.7-5.2,0
	c-2.5,1.7-7.3-4.4-10.8-6.5c-3.4-2.1-18.1-0.6-21.2-0.8c-3.1-0.1-5.8,1.4-6,7.3s-3.8,3.5-5.8,8.8c-1.9,5.3,5.3,5.6,5.9,8.8
	c0.5,3.2-8.4,8.2-17,8.9s-6.7,17.4-6.9,21.7c-0.2,4.4-4.5,8.3-8.9,7.7c-4.4-0.6-7-13.1-6.3-19.9c0.7-6.8,0.1-9.6-5.2-8.9
	c-5.3,0.6-7.9-0.8-12-2.7c-4.1-1.9-5.4,0-9.2-5.1c-3.7-5.1-11-3.1-15.5-0.9s-5.1,1.4-3.7-3.5c1.4-5-2.5-3-0.1-7.1s14.5-8.2,21.8-9.8
	s9.4-2.3,14.6-5.1c5.2-2.7,11.9,0,14.7-1.8s8.9-5.8,11.4-7s5.5,0.6,9-0.9c3.5-1.6,12.5-1.2,14.8-3.3c2.4-2.1-2.9-4.4-0.8-6.9
	c2.1-2.5,8.2,1.2,11.7,2.4c3.5,1.2,2.9-2.3,4.8-4.8s2.1,2.7,6.7,5.5c4.6,2.8-10.2-0.2-7.1,3.7c3.1,3.9,14.8-5.2,17.5-2.6
	c2.7,2.6-23.3,7.2-27.5,8.8c-4.2,1.6-1,3.5,8.2,3.3s14.9,1.9,19.2,4.3c4.3,2.4,21.4,4.5,24.3,1.3s-13.2-3.2-13-5
	c0.2-1.8,12.4,1.4,15.3-0.7c2.9-2.1-4.9-2-8.5-5.3c-3.7-3.3,7.9-2.2,14.7-0.3s4.1-0.7,5.4-3s-5.5-2.4-14.2-4.2
	c-8.7-1.7-2.8-2.2-1.8-4.1c1-2-8-2.3-14.2-2.8c-6.2-0.6-6.8-2.7-4.7-5.5s-8.1-0.8-11.9,0.7s-4.1,1.8-10.5,0s-15.5,7.2-17,4.4
	c-1.5-2.9-5.6-1.3-9.9,0.3c-4.3,1.6,0.8,3.7,3.8,6.5c3,2.8-7.9,4.2-9.6,6.1s-5.5-0.2-2.5-1.9c2.9-1.7,2-4.6-2.8-5s-9.6,5.1-12,5.5
	s0.5-1.7-0.1-5.6c-0.6-3.9-8.2,5.4-11.4,8c-3.2,2.7-10.2,0.5-15.7,2.2c-5.5,1.7-13.8,2.7-16.7,1.3c-2.9-1.4,0-2.6,7.8-4.4
	c7.8-1.8-0.6-3.2-8.5-0.2c-8,3-7.6,3.6-7.4,7c0.2,3.4-5,2.4-9.9,0.1c-4.9-2.3-8.3,5.1-9.5,2.4c-1.2-2.7-3-1.4-3-1.4
	c-71.8,28.6-132.3,79.6-132.3,79.6c-13.3,10.5-13.3,21.7-24.4,28.8s-19.2,27-28.4,37.7c-9.2,10.7-14.7,36.4-11.1,45.6
	c1.7,4.3,0.8,11.8-0.3,19.1h168.6c2.7-0.4,5.4-0.9,8-1.5c6.8-1.7,8.3-0.4,10.3,1.5h39.4C677.3,1211.5,677.3,1208.2,678,1205.2
	L678,1205.2z"/>
<path class="st13" d="M731.7,1008c0,0-5.5-0.8-4.8,0.8c0.7,1.7,4,1.9,5.6,1.2c1.6-0.7,3.7-0.7,3-1.7
	C734.9,1007.3,732,1008.1,731.7,1008z"/>
<path class="st13" d="M738.2,1005.7c-1,0.8-3.7,3-1.1,2.7c2.6-0.3,4.3-0.3,6.7-0.4c2.3,0,5.4-0.2,3.8-1.1S742.8,1002.3,738.2,1005.7
	z"/>
<path class="st13" d="M751.2,1004.8c-1.3-0.3-1.3,0.3-2,1.2c-0.7,0.9,0.2,2,1.5,1.8C752.1,1007.7,752.7,1005.1,751.2,1004.8z"/>
<path class="st13" d="M749.8,1009.7c-0.6,0.2-1.2,0.6-1.6,1.2c-0.4,0.5-0.7,1.2-0.7,1.8c0.1,1,1.3,1.2,2.9,1
	c1.6-0.2,3.8-0.5,3.2-1.9S752.8,1008.9,749.8,1009.7z"/>
<path class="st13" d="M738.8,1009.5c-0.7,0.2-4.2,1-4.4,2.1c-0.2,1.1,1.2,1.9,3.3,2.2c2.2,0.2,3.2,0.4,4.3-1.1s2-1.5,1.1-2.6
	S740.3,1009,738.8,1009.5z"/>
<path class="st13" d="M853.3,1086.8c-2.1,1.6-5.3,5-5.8,6.1c-0.5,1.1,4.1,4.5,4.8,5.4c0.7,0.9,1.5-1.5,2.2-0.6s0.6,2.7,3.6,1.9
	c3-0.8,5-0.9,3.6-3c-1.4-2.1-2,0.1-3.3-3.8c-1.3-3.9,0.5-7-1.8-7.8S855.6,1085.1,853.3,1086.8z"/>
<path class="st13" d="M871,1069c-2.1,1.9-1.9,6.8-3.7,7.6c-1.8,0.8-7,1-6.5,2.9s6.4-0.7,5.4,1.2c-1,2-6.7,3-5.2,4.1
	c1.5,1.1,6.6,0.9,11.9-0.2c5.4-1.1,7,0.4,8.1,1.5c1.1,1.2,3,1.1,5.1,0.6c2.1-0.5,5.7-1.8,3.8-0.2c-1.8,1.6-5.4,3.1-4.7,4.5
	s1.9,3.3,4.8,0.6c2.8-2.7,8.6-3.2,9.6-5.2s5.2-2.8,2.8-5.5s-1.8-3,0-3.9c1.8-0.9,4.1-1.8-0.5-3.5s-11-2.6-14.2-2.2
	c-3.2,0.4-10.3,0.4-7.6-2.4s8.1-9.7,4.6-10.2s-7,3.6-10.6,3.6C870.5,1062.5,872.8,1067.4,871,1069z"/>
<path class="st13" d="M907.2,1084.7c1.5,0.5,6.3-3.4,5.7-1c-0.6,2.4-1.1,9.3-3.4,10.2c-2.2,0.9-7.5,1.8-7.9-0.3
	c-0.4-2.2-3.4-2.1-2-3.9C901.1,1087.8,903.6,1083.4,907.2,1084.7z"/>
<path class="st13" d="M933.8,1151.5c7.1-4,3.8-4.9,16.2-6.4c12.4-1.5,25.1,0.5,31.4,1.6c6.3,1,11.6,5.5,18.9,8.3
	c7.2,2.8,10,7.9,16.2,8.1s12.6,8.3,14.9,9.6c2.3,1.3,10.9,6.4-1.1,7.9c-11.9,1.5-32.6-0.7-35.1,0c-2.6,0.7,1.9-4.5-2.3-7.2
	s-4-8.9-8.7-9.4c-4.7-0.4-12.6-2.6-21.3-4.7c-8.7-2.1-25.3,4.9-29,3.6C930.1,1161.5,924.9,1156.6,933.8,1151.5z"/>
<path class="st13" d="M1053.5,1177.4c5.1,0.8,14.7,2.1,20.4,5.3c5.8,3.2,16.7,5.7,14.6,10.7s-0.8,8.8-6.9,6.1c-6.1-2.7-9.8-2-15.3,0
	s-11.1,10.1-14.5,5.6s-13.4-4-21.7-5.6c-8.3-1.6-11.2-7.6-6.8-8.2c4.4-0.6,16.5-0.8,16.6-4.9
	C1039.9,1182.3,1046.3,1176.3,1053.5,1177.4z"/>
<path class="st13" d="M1106.2,1194.8c6.8,0.5,14.7,3.1,13,4.7c-1.7,1.5-4.2,2.6-7.7,4.2c-3.4,1.6-3.4,0-7.4-0.7
	c-4-0.7-10.4-4-8.1-5.9C1098.2,1195.3,1103,1194.6,1106.2,1194.8z"/>
<path class="st13" d="M997.1,1124.3c2.9,0.7,6.8,1.7,7.7,4.9c1,3.2,4.4,13-2,12.8c-6.4-0.2-8.9-1.7-10.9-6.8
	C989.9,1130.1,987.7,1122,997.1,1124.3z"/>
<path class="st13" d="M817.4,973.5c2.7-0.1,10.5-0.1,18.5-0.8s21.4-2,44.5,1.8c23.1,3.8,33.2,6.3,47.1,8.7
	c13.9,2.4,42.8,6.9,35.9,10.5s-14.3-1.1-13.1,3.7c1.2,4.8-12.8,0.6-12,5.9c0.8,5.2,8.2,21.9,0.8,20.3c-7.3-1.6-15.1-5.1-23.7-7.1
	c-8.6-2-8.1,1.1-25.1-7.4c-17-8.4-18.8-13.6-22-15.4c-3.2-1.7-0.2-2.5-4.4-3.6s4-2.5-3.1-4.3c-7.1-1.8-8-6.7-18.9-7
	c-11-0.3-21,2.3-29.6,0.6c-8.6-1.7-18.6-3.6-12.7-4.8S812.1,973.7,817.4,973.5z"/>
<path class="st13" d="M986,1010.1c13.2,2.3,20.8,3.8,20.5,1c-0.3-2.8-1.6-5-6.9-7.2c-5.3-2.2-19-6.4-18.5-2.2
	C981.5,1005.8,982.6,1009.5,986,1010.1z"/>
<path class="st13" d="M1061.6,1052.7c7.9,8.9,11.9,13.6,18.7,16.2c6.8,2.6,15.8,3.9,12.9-6s-2.3-17.9-14-17.7
	S1051.3,1041.1,1061.6,1052.7z"/>
<path class="st13" d="M1134.3,1094.5c3,6,29.4,24.9,21.7,26c-7.7,1.1-10.2,4.5-2.8,13.2s17.7,11.4,20.3,23.1
	c2.6,11.6,8,16.5,15.4,20.1c7.4,3.7,5.1-2.4,10,0.9s7,5.8,6.8-2.7c-0.2-8.5,2.1-5.5-5.3-17.5c-7.4-11.9-6.9-22-15.3-28.1
	C1176.8,1123.3,1113.8,1053.6,1134.3,1094.5z"/>
<path class="st13" d="M1228.5,1183.8c-34.8-41.2-11.1,1.4-20.9,0.8c-9.8-0.6-10.2-0.9-10.4,3.1c-0.5,7.6,2.4,18.1,3.7,26.9h48.5
	C1243.3,1203.7,1236.3,1193.4,1228.5,1183.8L1228.5,1183.8z"/>
<path class="st11" d="M403.6,1214.5h166.2c-6.3-29.2,3.3-62.7,22.8-86.4c26.7-32.4,67.3-49.9,107.6-61.7
	c68.4-19.9,139.9-26.9,210.8-20.4c15.9,1.5,32.3,3.5,47.5-1.1c20.3-6.1,34.8-23.4,42.3-43.5c-55.4-21-114.1-31.8-173.3-31.8
	C646.4,969.5,488.1,1068.1,403.6,1214.5z"/>
<path class="st1" d="M228.1,757.9l5.7-5.7c0.4-0.4,0.7-0.8,0.9-1.4c0.2-0.5,0.3-1.1,0.3-1.6c0-0.6-0.1-1.1-0.3-1.6
	c-0.2-0.5-0.5-1-0.9-1.4l0,0c-0.4-0.4-0.8-0.7-1.4-0.9c-0.5-0.2-1.1-0.3-1.6-0.3c-0.6,0-1.1,0.1-1.6,0.3c-0.5,0.2-1,0.5-1.4,0.9
	l-5.7,5.7c-0.8,0.8-1.2,1.8-1.2,3c0,1.1,0.4,2.2,1.2,3c0.8,0.8,1.9,1.2,3,1.2S227.3,758.7,228.1,757.9L228.1,757.9z"/>
<path class="st1" d="M306,814.4l3.6-7.2c0.2-0.5,0.4-1,0.4-1.6c0-0.5,0-1.1-0.2-1.6c-0.2-0.5-0.4-1-0.8-1.4c-0.4-0.4-0.8-0.8-1.3-1
	l0,0c-1-0.5-2.1-0.6-3.2-0.2c-1.1,0.3-1.9,1.1-2.4,2.1l-3.6,7.2c-0.2,0.5-0.4,1-0.4,1.6c0,0.5,0,1.1,0.2,1.6s0.4,1,0.8,1.4
	c0.4,0.4,0.8,0.8,1.3,1l0,0c1,0.5,2.1,0.6,3.2,0.2C304.6,816.2,305.5,815.4,306,814.4z"/>
<path class="st1" d="M256.1,741.8l4.3-0.6c0.5-0.1,1.1-0.3,1.5-0.5c0.5-0.3,0.9-0.7,1.2-1.1c0.3-0.4,0.6-0.9,0.7-1.5
	c0.1-0.5,0.2-1.1,0.1-1.6l0,0c-0.2-1.1-0.7-2.1-1.6-2.7c-0.9-0.7-2-1-3.1-0.8l-4.3,0.6c-1.1,0.2-2.1,0.7-2.7,1.6
	c-0.7,0.9-0.9,2-0.8,3.1l0,0c0.1,0.5,0.3,1.1,0.5,1.5c0.3,0.5,0.6,0.9,1.1,1.2c0.4,0.3,0.9,0.6,1.5,0.7
	C255,741.8,255.5,741.9,256.1,741.8z"/>
<path class="st1" d="M222,798.4l-0.6-4.3c-0.2-1.1-0.7-2.1-1.6-2.8c-0.9-0.7-2-1-3.1-0.8l0,0c-1.1,0.2-2.1,0.7-2.8,1.6
	c-0.7,0.9-1,2-0.8,3.1l0.6,4.3c0.2,1.1,0.7,2.1,1.6,2.8c0.9,0.7,2,1,3.1,0.8l0,0c1.1-0.2,2.1-0.8,2.8-1.6
	C221.9,800.6,222.2,799.5,222,798.4L222,798.4z"/>
<path class="st1" d="M314,791.4V783c0-1.2-1-2.2-2.2-2.2h-4c-1.2,0-2.2,1-2.2,2.2v8.4c0,1.2,1,2.2,2.2,2.2h4
	C313,793.5,314,792.6,314,791.4z"/>
<path class="st1" d="M248.3,834.8l4.2,1.1c0.5,0.1,1.1,0.2,1.6,0.1c0.5-0.1,1.1-0.3,1.5-0.5c0.5-0.3,0.9-0.6,1.2-1.1
	c0.3-0.4,0.6-0.9,0.7-1.5l0,0c0.1-0.5,0.2-1.1,0.1-1.6c-0.1-0.5-0.3-1.1-0.5-1.5s-0.6-0.9-1.1-1.2c-0.4-0.3-0.9-0.6-1.5-0.7
	l-4.2-1.1c-0.5-0.1-1.1-0.2-1.6-0.1c-0.5,0.1-1.1,0.3-1.5,0.5c-0.5,0.3-0.9,0.6-1.2,1.1c-0.3,0.4-0.6,0.9-0.7,1.5l0,0
	c-0.1,0.5-0.2,1.1-0.1,1.6c0.1,0.5,0.3,1.1,0.5,1.5s0.6,0.9,1.1,1.2C247.3,834.4,247.8,834.6,248.3,834.8L248.3,834.8z"/>
<path class="st1" d="M262.8,833.6c26.6,0,48.2-21.6,48.2-48.2s-21.6-48.2-48.2-48.2s-48.2,21.6-48.2,48.2S236.1,833.6,262.8,833.6z"
	/>
<path class="st11" d="M280.3,756.8c0.1,2.3-0.5,4.6-1.8,6.5c-1.3,2-3.1,3.6-5.2,4.6c-2.2,1.1-4.7,1.3-7.1,0.6
	c-2.2-0.7-4.1-2.2-5.4-4.1c1.7,1.3,3.7,2.1,5.8,2.5c1,0.2,2,0.2,3,0c1-0.2,1.9-0.5,2.8-0.9c0.4-0.2,0.9-0.5,1.4-0.7
	c0.4-0.3,0.9-0.5,1.2-0.9c0.8-0.6,1.6-1.3,2.2-2.1C278.6,760.7,279.7,758.8,280.3,756.8L280.3,756.8z"/>
<path class="st11" d="M263,759.5c-0.2-1.6,0.1-3.2,1-4.6c0.9-1.4,2.1-2.6,3.6-3.3c0.8-0.4,1.6-0.6,2.5-0.7c0.9-0.1,1.7,0,2.5,0.3
	c1.6,0.5,2.8,1.6,3.6,3.1c-1.2-0.8-2.6-1.3-4-1.5c-1.3-0.1-2.6,0.1-3.7,0.7C266,754.8,264,756.9,263,759.5L263,759.5z"/>
<path class="st11" d="M246.6,792.7c0.6,1.5,0.6,3.1,0.1,4.6c-0.5,1.6-1.5,2.9-2.8,3.9c-0.7,0.5-1.4,0.9-2.2,1.1
	c-0.8,0.2-1.7,0.3-2.5,0.2c-1.6-0.2-3-1-4-2.2c1.3,0.4,2.7,0.6,4.1,0.6c1.2-0.1,2.4-0.5,3.4-1.3c1-0.8,1.9-1.8,2.6-2.9
	C246,795.4,246.4,794.1,246.6,792.7z"/>
<path class="st11" d="M236.7,798.1c-0.3-0.5-0.4-1-0.5-1.6c-0.1-0.6,0-1.1,0.2-1.6c0.3-1.1,1-2.1,1.9-2.8c0.5-0.4,1-0.7,1.6-0.8
	c0.6-0.2,1.2-0.2,1.8-0.1c0.6,0.1,1.1,0.3,1.6,0.6c0.5,0.3,0.9,0.7,1.2,1.2c-0.9-0.2-1.9-0.2-2.8-0.1c-0.8,0.1-1.5,0.4-2.1,0.9
	C238.1,794.9,237.1,796.4,236.7,798.1z"/>
<path class="st11" d="M229.4,781.9c0.4,0.4,0.8,0.9,1,1.4c0.2,0.5,0.4,1.1,0.4,1.7c0,0.6-0.1,1.3-0.3,1.8c-0.2,0.6-0.6,1.1-1,1.6
	c-0.5,0.5-1,0.8-1.6,1s-1.3,0.3-1.9,0.2c-1.1-0.1-2.2-0.6-3-1.5c1,0,2,0,3-0.2c0.8-0.1,1.5-0.5,2.1-1c0.6-0.6,1-1.3,1.2-2.1
	C229.4,783.9,229.4,782.9,229.4,781.9L229.4,781.9z"/>
<path class="st11" d="M223.4,786.6c-0.4-0.2-0.6-0.6-0.9-0.9c-0.2-0.4-0.3-0.8-0.3-1.2c0-0.5,0.1-0.9,0.2-1.4
	c0.2-0.4,0.4-0.8,0.8-1.2c0.3-0.3,0.8-0.6,1.2-0.7c0.5-0.1,0.9-0.2,1.4-0.1c0.4,0.1,0.8,0.2,1.2,0.4c0.4,0.2,0.7,0.5,0.9,0.8
	c-0.7,0.1-1.3,0.2-2,0.4c-0.4,0.1-0.9,0.3-1.2,0.7c-0.3,0.3-0.6,0.8-0.8,1.2C223.6,785.3,223.5,785.9,223.4,786.6L223.4,786.6z"/>
<path class="st11" d="M295.5,767.6c0.1,0.6,0,1.2-0.2,1.7c-0.2,0.6-0.5,1.1-0.8,1.5c-0.4,0.5-0.9,0.9-1.5,1.2
	c-0.6,0.3-1.2,0.4-1.8,0.5c-0.6,0-1.3-0.1-1.9-0.3c-0.6-0.2-1.1-0.6-1.6-1.1c-0.8-0.9-1.2-2-1.3-3.1c0.7,0.7,1.5,1.3,2.4,1.8
	c0.7,0.4,1.4,0.6,2.2,0.6c0.8-0.1,1.6-0.3,2.3-0.8C294.2,769.1,294.9,768.4,295.5,767.6L295.5,767.6z"/>
<path class="st11" d="M287.9,767.2c-0.1-0.4-0.1-0.8,0-1.3c0.1-0.4,0.3-0.8,0.5-1.1c0.3-0.4,0.6-0.7,1.1-0.9s0.9-0.3,1.3-0.4
	c0.5,0,1,0,1.4,0.2c0.4,0.2,0.8,0.5,1.1,0.9c0.5,0.6,0.8,1.5,0.7,2.3c-0.6-0.4-1.2-0.7-1.8-1c-0.4-0.2-0.9-0.3-1.3-0.3
	c-0.5,0-1,0.2-1.4,0.4C288.9,766.3,288.4,766.7,287.9,767.2L287.9,767.2z"/>
<path class="st0" d="M282.5,794.9c2.4-5.4,0-11.7-5.4-14.1c-5.4-2.4-11.7,0-14.1,5.4c-2.4,5.4,0,11.7,5.4,14.1
	C273.8,802.8,280.1,800.3,282.5,794.9z"/>
<path class="st11" d="M277.8,785.6c1.4,0.6,2.6,1.6,3.6,2.7c1,1.2,1.6,2.6,1.9,4.1c0.3-1.8,0.1-3.6-0.4-5.3
	c-0.6-1.7-1.6-3.2-2.9-4.4c-1.3-1.2-2.9-2-4.7-2.5c-1.7-0.4-3.6-0.4-5.3,0.1c-1.7,0.5-3.3,1.4-4.6,2.6s-2.2,2.8-2.8,4.5
	c-0.5,1.7-0.6,3.5-0.2,5.3c0.4,1.8,1.2,3.4,2.3,4.7c-0.6-1.8-0.7-3.7-0.2-5.5c0.5-1.8,1.5-3.5,2.8-4.8c1.4-1.3,3.1-2.1,5-2.4
	S276,784.8,277.8,785.6L277.8,785.6z"/>
<path class="st11" d="M287.5,792.4c0.1,2.8-0.8,5.6-2.4,8c-1.6,2.4-3.8,4.3-6.4,5.6c-2.7,1.3-5.7,1.6-8.6,0.8
	c-2.7-0.8-5.1-2.6-6.7-4.9c2.1,1.7,4.5,2.8,7.1,3.3c0.6,0.1,1.2,0.2,1.9,0.2c0.6,0,1.2,0,1.9-0.1c1.2-0.2,2.4-0.6,3.5-1.1
	c0.6-0.3,1.1-0.6,1.7-0.9c0.5-0.3,1.1-0.7,1.6-1.1c1-0.8,2-1.7,2.8-2.7C285.5,797.4,286.8,795,287.5,792.4L287.5,792.4z"/>
<path class="st0" d="M299.2,796.5c0.8,0.2,1.6,0.1,2.3-0.2c0.7-0.3,1.4-0.8,1.8-1.4c0.5-0.6,0.7-1.4,0.7-2.2c0-0.8-0.2-1.6-0.6-2.2
	s-1-1.2-1.8-1.5c-0.7-0.3-1.5-0.4-2.3-0.3c-0.8,0.1-1.5,0.5-2.1,1c-0.6,0.5-1,1.2-1.1,2c-0.2,1,0,2.1,0.5,3
	C297.3,795.6,298.2,796.3,299.2,796.5z"/>
<path class="st11" d="M301.6,790.4c0.6,0.1,1.1,0.4,1.5,0.7c0.4,0.4,0.8,0.8,1,1.4c0-0.7-0.2-1.3-0.5-1.9c-0.3-0.6-0.8-1.1-1.4-1.4
	c-0.6-0.4-1.2-0.6-1.9-0.6c-0.7,0-1.4,0.1-2,0.4c-0.6,0.3-1.1,0.8-1.5,1.3c-0.4,0.6-0.6,1.2-0.7,1.9c-0.1,0.7,0,1.4,0.3,2
	c0.3,0.6,0.7,1.2,1.2,1.6c-0.5-0.8-0.6-1.7-0.4-2.6c0.2-0.9,0.8-1.7,1.6-2.2C299.6,790.4,300.6,790.2,301.6,790.4L301.6,790.4z"/>
<path class="st11" d="M305.6,792.2c0.3,1,0.2,2.1-0.2,3.1c-0.4,1-1.1,1.9-2,2.6c-0.9,0.7-2,1-3.2,0.9c-1.1-0.1-2.1-0.6-2.8-1.4
	c0.9,0.4,1.9,0.6,2.8,0.6c0.9,0,1.8-0.4,2.5-0.9c0.8-0.6,1.4-1.3,1.9-2.1C305.2,794.1,305.5,793.2,305.6,792.2z"/>
<path class="st0" d="M271.8,822.3c1.1,0.1,2.2-0.2,3.2-0.8c1-0.6,1.7-1.4,2.2-2.4c0.5-1,0.7-2.1,0.5-3.2c-0.2-1.1-0.6-2.1-1.4-3
	c-0.7-0.8-1.7-1.4-2.8-1.7s-2.2-0.2-3.3,0.1c-1.1,0.4-2,1-2.7,1.9c-0.7,0.9-1.1,2-1.1,3.1c0,0.7,0.1,1.5,0.3,2.2
	c0.2,0.7,0.6,1.4,1.1,1.9c0.5,0.6,1.1,1,1.8,1.3C270.3,822.1,271.1,822.3,271.8,822.3z"/>
<path class="st11" d="M273.6,813.2c0.8,0,1.6,0.3,2.3,0.7c0.7,0.4,1.3,1,1.7,1.6c-0.2-0.9-0.6-1.8-1.2-2.5c-0.6-0.7-1.4-1.3-2.3-1.6
	c-0.9-0.3-1.8-0.5-2.8-0.3c-0.9,0.1-1.8,0.5-2.6,1.1c-0.8,0.6-1.4,1.3-1.8,2.2c-0.4,0.9-0.6,1.8-0.5,2.8c0.1,0.9,0.4,1.9,0.9,2.7
	c0.5,0.8,1.2,1.5,2.1,1.9c-0.6-0.8-1-1.7-1.1-2.7c-0.1-1,0.1-2,0.5-2.9c0.4-0.9,1.1-1.6,2-2.1S272.6,813.2,273.6,813.2L273.6,813.2z
	"/>
<path class="st11" d="M279.8,814.8c0.6,1.4,0.7,2.9,0.3,4.4c-0.3,1.5-1.1,2.9-2.1,4c-1.1,1.2-2.5,1.9-4.1,2c-1.5,0.1-3-0.3-4.2-1.2
	c1.3,0.4,2.8,0.6,4.1,0.3c1.3-0.2,2.5-0.9,3.4-1.9c0.9-1,1.7-2.2,2.1-3.5C279.7,817.6,279.9,816.2,279.8,814.8L279.8,814.8z"/>
<path class="st0" d="M246.6,767.7c-2.6,3.9-8.2,4.7-12.6,1.8c-4.4-2.9-5.9-8.4-3.4-12.3c2.6-3.9,8.2-4.7,12.6-1.8
	C247.6,758.3,249.1,763.8,246.6,767.7z"/>
<path class="st11" d="M232.6,760.9c-0.7,1.1-1,2.3-1.1,3.5c-0.1,1.2,0.2,2.5,0.7,3.6c-2.9-3-3.7-7.5-1.5-10.8
	c2.6-3.9,8.2-4.7,12.6-1.8c1.5,0.9,2.7,2.2,3.5,3.7c0.8,1.5,1.2,3.3,1.1,5c-0.7-2-2-3.8-3.8-4.9C240,756.6,234.9,757.3,232.6,760.9z
	"/>
<path class="st11" d="M249.7,761.2c0.7,1,1.1,2.1,1.3,3.3c0.2,1.2,0.2,2.4-0.1,3.6c-0.3,1.2-0.8,2.4-1.6,3.4c-0.8,1-1.7,1.8-2.8,2.5
	c-1.1,0.6-2.3,1-3.6,1.2c-1.2,0.1-2.4,0.1-3.6-0.1c-2.3-0.4-4.5-1.4-6.4-2.8c2.1,0.6,4.3,1,6.6,1.1c2.1,0.2,4.1-0.3,5.9-1.3
	c0.9-0.5,1.6-1.2,2.3-2c0.7-0.8,1.2-1.6,1.6-2.6C250.1,765.5,250.2,763.3,249.7,761.2L249.7,761.2z"/>
</svg>
