<?xml version="1.0" encoding="utf-8"?>
<!-- Generator: Adobe Illustrator 24.2.3, SVG Export Plug-In . SVG Version: 6.00 Build 0)  -->
<svg version="1.1" id="e2652d7b-d014-44e7-aeea-709bf92e6067"
	 xmlns="http://www.w3.org/2000/svg" xmlns:xlink="http://www.w3.org/1999/xlink" x="0px" y="0px" viewBox="0 0 853.3 818"
	 style="enable-background:new 0 0 853.3 818;" xml:space="preserve">
<style type="text/css">
	.st0{opacity:0.34;fill:#3F3D56;}
	.st1{fill:#E6E6E6;}
	.st2{fill:#CBCBCB;}
	.st3{fill:#9C00FF;}
	.st4{opacity:0.8;fill:url(#SVGID_1_);enable-background:new    ;}
	.st5{opacity:0.8;fill:url(#SVGID_2_);enable-background:new    ;}
	.st6{fill:#2F2E41;}
	.st7{fill:#6B007F;}
	.st8{fill:#17001F;}
</style>
<path class="st0" d="M707.5,464.2C599.8,627.2,549.1,818,353.8,818S0,659.6,0,464.2s176.5-271.5,353.8-353.8
	C929.4-156.6,948.5,99.5,707.5,464.2z"/>
<circle class="st1" cx="669.5" cy="94.2" r="66.2"/>
<circle class="st2" cx="663" cy="48.6" r="7.6"/>
<circle class="st2" cx="676" cy="124.6" r="7.6"/>
<circle class="st2" cx="705.3" cy="82.3" r="5.4"/>
<circle class="st2" cx="643.5" cy="99.6" r="17.4"/>
<circle class="st3" cx="441.6" cy="196.2" r="10.9"/>
<circle class="st3" cx="732.5" cy="224.4" r="10.9"/>
<circle class="st1" cx="603.3" cy="245.1" r="6.5"/>
<circle class="st1" cx="102" cy="450.1" r="6.5"/>
<circle class="st1" cx="487.2" cy="624.8" r="6.5"/>
<polygon class="st3" points="589.2,438.2 586,441.5 582.7,438.2 580.6,440.4 583.8,443.6 580.6,446.9 582.7,449 586,445.8 
	589.2,449 591.4,446.9 588.1,443.6 591.4,440.4 "/>
<polygon class="st1" points="158.4,544.6 155.2,547.8 152,544.6 149.8,546.7 153,550 149.8,553.2 151.9,555.4 155.2,552.1 
	158.4,555.4 160.6,553.2 157.3,550 160.6,546.8 "/>
<polygon class="st1" points="184.5,355.8 181.2,359 178,355.8 175.8,357.9 179.1,361.2 175.8,364.4 178,366.5 181.2,363.3 
	184.4,366.6 186.6,364.4 183.4,361.2 186.6,357.9 "/>
<polygon class="st1" points="752,155 748.7,158.3 745.5,155 743.3,157.2 746.6,160.4 743.3,163.6 745.5,165.8 748.7,162.6 
	752,165.8 754.1,163.7 750.9,160.4 754.1,157.2 "/>
<polygon class="st1" points="495.9,245.1 492.7,248.3 489.4,245.1 487.3,247.2 490.5,250.5 487.2,253.7 489.4,255.9 492.6,252.6 
	495.9,255.9 498,253.7 494.8,250.5 498.1,247.3 "/>
<linearGradient id="SVGID_1_" gradientUnits="userSpaceOnUse" x1="689.8706" y1="421.4423" x2="776.6805" y2="421.4423" gradientTransform="matrix(1 0 0 -1 -173.3513 777)">
	<stop  offset="0" style="stop-color:#FFFFFF"/>
	<stop  offset="1" style="stop-color:#FFFFFF;stop-opacity:0.3"/>
</linearGradient>
<path class="st4" d="M518.4,406l33-38.6l33-38.6L603,307c1-1.2-0.6-3.1-1.6-1.9l-33,38.6l-33,38.6l-18.6,21.8
	C515.8,405.3,517.4,407.2,518.4,406z"/>
<linearGradient id="SVGID_2_" gradientUnits="userSpaceOnUse" x1="631.2739" y1="282.5464" x2="718.0838" y2="282.5464" gradientTransform="matrix(1 0 0 -1 -173.3513 777)">
	<stop  offset="0" style="stop-color:#FFFFFF"/>
	<stop  offset="1" style="stop-color:#FFFFFF;stop-opacity:0.3"/>
</linearGradient>
<path class="st5" d="M459.8,544.9l33-38.6l33-38.6l18.6-21.8c1-1.2-0.6-3.1-1.6-1.9l-33,38.6l-33,38.6L458.3,543
	C457.2,544.2,458.8,546.1,459.8,544.9L459.8,544.9z"/>
<path class="st6" d="M298.1,339.3h52.1l0,0v24.3c0,8.7-6,15.8-13.3,15.8l0,0h-25.4c-7.3,0-13.3-7.1-13.3-15.8l0,0L298.1,339.3
	L298.1,339.3z"/>
<path class="st1" d="M367.6,657.7c-11.9,14.3-23.7,14.4-35.6,0.5l-9.1-96l-6.4,96.2c-11.9,11.4-23,13-32.9,0.4
	c-9.5-83.1-14.6-160.3-6.4-219.2L259.8,356l39.3-21.7c7.9,23.2-4.6,35.1,23.6,34.7c28-0.4,25.9-12.9,24.8-34.7l36.1,16.5
	c6.4,2.9,9.8,11.2,7.7,19L373,438.5C380.1,473.2,372.9,569.6,367.6,657.7z"/>
<path class="st6" d="M312.8,741.2c0,0-29.2,3-33.1,1.1l0,0c-0.2-0.1-0.5-0.3-0.7-0.4c-5.8-3.5-6-13.4-0.6-17.7l11.5-9.1l-10-64
	l38.8,0.5L312.8,741.2z"/>
<path class="st6" d="M334.7,741.8c0,0,29.2,3,33.1,1.1l0,0c0.2-0.1,0.5-0.3,0.7-0.4c5.8-3.5,6-13.4,0.6-17.7l-11.5-9.1l14.2-64H331
	L334.7,741.8z"/>
<path class="st1" d="M266.2,513.4l5.8,27.5c1.5,6.9-1,14.2-6.1,18l0,0c-6.5,4.9-15.1,2.6-19.2-5.1c-1.1-2.1-1.9-4.6-2.1-7.1
	l-1.2-13.7l-4.6-130.5c0-22.2,11.2-42.2,28.5-50.7l8.9-4.4L266.2,513.4z"/>
<path class="st1" d="M411.4,401.4l0,0.8l-3.7,105.3l-0.7,20.3l-0.1,4l-1.3,13.7c-0.8,9.1-7.7,15.7-15.3,14.7
	c-7.6-1-13.2-9.1-12.4-18.2c0.1-0.8,0.2-1.5,0.3-2.2l5.8-27.5l-0.1-2l-0.8-12.8L374,346.3l9,4.4
	C400.1,359.2,411.4,379.2,411.4,401.4z"/>
<path class="st6" d="M326.5,521.2c-33.2,0-53.6-13.7-53.9-13.9l0.9-1.9c0.4,0.3,41.5,27.6,101.8,3.9l0.6,2.1
	C359.9,517.8,343.3,521.1,326.5,521.2z"/>
<path class="st6" d="M293.7,621.2c-7.3-19.5-7.3-104.4-7.3-108l1.8,0c0,0.9,0,88,7.2,107.1L293.7,621.2z"/>
<path class="st6" d="M297.5,622.1c-6.5,0-10.8-1.6-13.6-3.5c-5.1-3.4-6.2-8.1-6.2-8.3l1.8-0.5l-0.9,0.3l0.9-0.3c0,0.2,1,4.1,5.4,7
	c4.9,3.3,14.9,5.7,34.1-1.2l0.5,2.1C310.2,620.9,303,622.1,297.5,622.1z"/>
<polygon class="st6" points="279.3,344.8 281.1,344.7 288.1,514.6 286.3,514.7 "/>
<path class="st6" d="M355.6,621.2l-1.7-0.9c7.1-19.1,7.2-106.2,7.2-107.1l1.8,0C362.9,516.9,362.9,601.7,355.6,621.2z"/>
<path class="st6" d="M351.8,622.1c-5.6,0-12.8-1.2-22-4.5l0.5-2.1c19.3,6.9,29.2,4.5,34.1,1.2c4.5-3,5.4-6.9,5.4-7l1.8,0.5
	c0,0.2-1.1,4.9-6.2,8.3C362.6,620.5,358.3,622.1,351.8,622.1z"/>
<polygon class="st6" points="361.1,514.6 368.1,344.7 369.9,344.8 362.9,514.7 "/>
<polygon class="st3" points="350.1,370.1 336.5,394 307.3,394 297.5,370.1 301.8,370.1 309.1,389.7 333.8,389.7 345.6,370.1 "/>
<polygon points="383.1,382.1 383.3,382.6 383.1,383.2 "/>
<path class="st7" d="M413.2,401.4l0,0.8l-17.3,6l-10.7-25.5l11-23.9C406.9,369.1,413.2,384.8,413.2,401.4z"/>
<path class="st7" d="M237.7,401.4l0,0.8l17.3,6l10.7-25.5l-11-23.9C243.9,369.1,237.7,384.8,237.7,401.4z"/>
<circle class="st1" cx="322.3" cy="294.5" r="54.7"/>
<circle class="st8" cx="321.8" cy="298.9" r="43"/>
<polygon class="st7" points="408.2,507.4 407.5,527.8 384,512.8 383.4,510.2 382.6,497.5 "/>
<polygon class="st7" points="241.6,507.4 242.4,527.8 267,512.8 267.6,510.2 268.5,497.5 "/>
<polygon class="st6" points="337,395.1 306.7,395.1 289.9,354.1 289.1,339.4 290.9,339.3 291.7,353.6 307.9,392.9 336,392.9 
	356.7,356.6 361.1,340.6 362.8,341.3 358.3,357.7 "/>
<ellipse transform="matrix(0.8192 -0.5736 0.5736 0.8192 -99.7348 247.0584)" class="st1" cx="341.9" cy="281.7" rx="5.1" ry="10"/>
</svg>
