<?xml version="1.0" encoding="utf-8"?>
<!-- Generator: Adobe Illustrator 24.2.3, SVG Export Plug-In . SVG Version: 6.00 Build 0)  -->
<svg version="1.1" id="e2652d7b-d014-44e7-aeea-709bf92e6067"
	 xmlns="http://www.w3.org/2000/svg" xmlns:xlink="http://www.w3.org/1999/xlink" x="0px" y="0px" viewBox="0 0 853.3 818"
	 style="enable-background:new 0 0 853.3 818;" xml:space="preserve">
<style type="text/css">
	.st0{opacity:0.34;fill:#3F3D56;}
	.st1{fill:#E6E6E6;}
	.st2{fill:#CBCBCB;}
	.st3{fill:#9C00FF;}
	.st4{opacity:0.8;fill:url(#SVGID_1_);enable-background:new    ;}
	.st5{opacity:0.8;fill:url(#SVGID_2_);enable-background:new    ;}
	.st6{fill:#2F2E41;}
	.st7{fill:#6B007F;}
	.st8{fill:#1A001F;}
</style>
<path class="st0" d="M707.5,464.2C599.8,627.2,549.1,818,353.8,818S0,659.6,0,464.2s176.5-271.5,353.8-353.8
	C929.4-156.6,948.5,99.5,707.5,464.2z"/>
<circle class="st1" cx="669.5" cy="94.2" r="66.2"/>
<circle class="st2" cx="663" cy="48.6" r="7.6"/>
<circle class="st2" cx="676" cy="124.6" r="7.6"/>
<circle class="st2" cx="705.3" cy="82.3" r="5.4"/>
<circle class="st2" cx="643.5" cy="99.6" r="17.4"/>
<circle class="st3" cx="441.6" cy="196.2" r="10.9"/>
<circle class="st3" cx="732.5" cy="224.4" r="10.9"/>
<circle class="st1" cx="603.3" cy="245.1" r="6.5"/>
<circle class="st1" cx="102" cy="450.1" r="6.5"/>
<circle class="st1" cx="487.2" cy="624.8" r="6.5"/>
<polygon class="st3" points="589.2,438.2 586,441.5 582.7,438.2 580.6,440.4 583.8,443.6 580.6,446.9 582.7,449 586,445.8 
	589.2,449 591.4,446.9 588.1,443.6 591.4,440.4 "/>
<polygon class="st1" points="158.4,544.6 155.2,547.8 152,544.6 149.8,546.7 153,550 149.8,553.2 151.9,555.4 155.2,552.1 
	158.4,555.4 160.6,553.2 157.3,550 160.6,546.8 "/>
<polygon class="st1" points="184.5,355.8 181.2,359 178,355.8 175.8,357.9 179.1,361.2 175.8,364.4 178,366.5 181.2,363.3 
	184.4,366.6 186.6,364.4 183.4,361.2 186.6,357.9 "/>
<polygon class="st1" points="752,155 748.7,158.3 745.5,155 743.3,157.2 746.6,160.4 743.3,163.6 745.5,165.8 748.7,162.6 
	752,165.8 754.1,163.7 750.9,160.4 754.1,157.2 "/>
<polygon class="st1" points="495.9,245.1 492.7,248.3 489.4,245.1 487.3,247.2 490.5,250.5 487.2,253.7 489.4,255.9 492.6,252.6 
	495.9,255.9 498,253.7 494.8,250.5 498.1,247.3 "/>
<linearGradient id="SVGID_1_" gradientUnits="userSpaceOnUse" x1="689.8706" y1="421.4423" x2="776.6805" y2="421.4423" gradientTransform="matrix(1 0 0 -1 -173.3513 777)">
	<stop  offset="0" style="stop-color:#FFFFFF"/>
	<stop  offset="1" style="stop-color:#FFFFFF;stop-opacity:0.3"/>
</linearGradient>
<path class="st4" d="M518.4,406l33-38.6l33-38.6L603,307c1-1.2-0.6-3.1-1.6-1.9l-33,38.6l-33,38.6l-18.6,21.8
	C515.8,405.3,517.4,407.2,518.4,406z"/>
<linearGradient id="SVGID_2_" gradientUnits="userSpaceOnUse" x1="631.2739" y1="282.5464" x2="718.0838" y2="282.5464" gradientTransform="matrix(1 0 0 -1 -173.3513 777)">
	<stop  offset="0" style="stop-color:#FFFFFF"/>
	<stop  offset="1" style="stop-color:#FFFFFF;stop-opacity:0.3"/>
</linearGradient>
<path class="st5" d="M459.8,544.9l33-38.6l33-38.6l18.6-21.8c1-1.2-0.6-3.1-1.6-1.9l-33,38.6l-33,38.6L458.3,543
	C457.2,544.2,458.8,546.1,459.8,544.9L459.8,544.9z"/>
<path class="st6" d="M293.5,331.3h61.9l0,0v24.3c0,8.7-7.1,15.8-15.8,15.8l0,0h-30.2c-8.7,0-15.8-7.1-15.8-15.8l0,0L293.5,331.3
	L293.5,331.3z"/>
<path class="st1" d="M376,654.7c-14.1,14.3-28.2,14.4-42.3,0.5l-10.9-96l-7.6,96.2c-14.1,11.4-27.3,13-39.1,0.4
	c-11.2-83.1-17.4-160.3-7.6-219.2L248,353l46.7-21.7c9.4,23.2-5.4,35.1,28.1,34.7c33.2-0.4,30.7-12.9,29.4-34.7l42.9,16.5
	c7.6,2.9,11.6,11.2,9.1,19l-21.7,68.7C390.9,470.2,382.3,566.6,376,654.7z"/>
<path class="st6" d="M310.9,738.2c0,0-34.6,3-39.3,1.1l0,0c-0.3-0.1-0.6-0.3-0.9-0.4c-6.9-3.5-7.1-13.4-0.7-17.7l13.7-9.1l-11.9-64
	l46.1,0.5L310.9,738.2z"/>
<path class="st6" d="M336.9,738.8c0,0,34.6,3,39.3,1.1l0,0c0.3-0.1,0.6-0.3,0.9-0.4c6.9-3.5,7.1-13.4,0.7-17.7l-13.7-9.1l16.8-64
	h-48.3L336.9,738.8z"/>
<path class="st1" d="M255.5,510.4l6.9,27.5c1.7,6.9-1.2,14.2-7.2,18l0,0c-7.7,4.9-17.9,2.6-22.8-5.1c-1.4-2.1-2.2-4.6-2.5-7.1
	l-1.5-13.7L223,399.4c0-22.2,13.4-42.2,33.9-50.7l10.6-4.4L255.5,510.4z"/>
<path class="st1" d="M428.1,398.4l0,0.8l-4.4,105.3l-0.8,20.3l-0.2,4l-1.5,13.7c-1,9.1-9.1,15.7-18.2,14.7
	c-9.1-1-15.7-9.1-14.7-18.2c0.1-0.8,0.2-1.5,0.4-2.2l6.9-27.5l-0.2-2l-0.9-12.8l-10.9-151.2l10.6,4.4
	C414.7,356.2,428.1,376.2,428.1,398.4z"/>
<path class="st6" d="M327.2,518.2c-39.4,0-63.7-13.7-64.1-13.9l1.1-1.9c0.5,0.3,49.2,27.6,120.9,3.9l0.7,2.1
	C366.9,514.8,347.2,518.1,327.2,518.2z"/>
<path class="st6" d="M288.2,618.2c-8.7-19.5-8.7-104.4-8.7-108l2.2,0c0,0.9,0,88,8.5,107.1L288.2,618.2z"/>
<path class="st6" d="M292.7,619.1c-7.7,0-12.9-1.6-16.2-3.5c-6.1-3.4-7.4-8.1-7.4-8.3l2.1-0.5l-1.1,0.3l1-0.3c0,0.2,1.1,4.1,6.5,7
	c5.9,3.3,17.7,5.7,40.6-1.2l0.6,2.1C307.9,617.9,299.3,619.1,292.7,619.1z"/>
<rect x="275.3" y="341.6" transform="matrix(0.9988 -4.891688e-02 4.891688e-02 0.9988 -20.5423 14.0315)" class="st6" width="2.2" height="170.2"/>
<path class="st6" d="M361.8,618.2l-2-0.9c8.5-19.1,8.5-106.2,8.5-107.1l2.2,0C370.5,513.9,370.5,598.7,361.8,618.2z"/>
<path class="st6" d="M357.3,619.1c-6.6,0-15.2-1.2-26.1-4.5l0.6-2.1c22.9,6.9,34.7,4.5,40.6,1.2c5.3-3,6.4-6.9,6.5-7l2.1,0.5
	c-0.1,0.2-1.3,4.9-7.4,8.3C370.1,617.5,365,619.1,357.3,619.1z"/>
<rect x="288.5" y="425.6" transform="matrix(4.881750e-02 -0.9988 0.9988 4.881750e-02 -70.8478 779.0197)" class="st6" width="170.2" height="2.2"/>
<polygon class="st3" points="355.2,367.1 339.1,391 304.4,391 292.8,367.1 297.9,367.1 306.5,386.7 335.8,386.7 350,367.1 "/>
<polygon points="394.4,379.1 394.7,379.6 394.4,380.2 "/>
<path class="st7" d="M430.3,398.4l0,0.8l-20.6,6l-12.7-25.5l13-23.9C422.8,366.1,430.3,381.8,430.3,398.4z"/>
<path class="st7" d="M221.7,398.4l0,0.8l20.6,6l12.7-25.5l-13-23.9C229.1,366.1,221.7,381.8,221.7,398.4z"/>
<circle class="st1" cx="324.5" cy="291.7" r="57.5"/>
<circle class="st8" cx="324.5" cy="299.3" r="42.3"/>
<polygon class="st7" points="424.3,504.4 423.4,524.8 395.6,509.8 394.8,507.2 393.9,494.5 "/>
<polygon class="st7" points="226.3,504.4 227.2,524.8 256.5,509.8 257.3,507.2 258.3,494.5 "/>
<polygon class="st6" points="339.7,392.1 303.7,392.1 283.8,351.1 282.8,336.4 284.9,336.3 285.9,350.6 305.1,389.9 338.5,389.9 
	363.1,353.6 368.3,337.6 370.4,338.3 365,354.7 "/>
</svg>
