<?xml version="1.0"?>
<svg xmlns:rdf="http://www.w3.org/1999/02/22-rdf-syntax-ns#" xmlns="http://www.w3.org/2000/svg" xmlns:cc="http://web.resource.org/cc/" xmlns:xlink="http://www.w3.org/1999/xlink" xmlns:dc="http://purl.org/dc/elements/1.1/" xmlns:svg="http://www.w3.org/2000/svg" id="Layer_1" xml:space="preserve" overflow="visible" viewBox="0 0 289.264 272.222" version="1.1" enable-background="new 0 0 289.264 272.222">
	<path d="m42.339 49.98s-9.918-1.387-19.569 0.22c-3.824 0.638-16.566 4.462-18.746 7.604-1.018 25.147 2.18 48.465 2.18 48.465l22.062 2.613" fill="#fff"/>
		<path stroke-linejoin="round" d="m42.339 49.98s-9.918-1.387-19.569 0.22c-3.824 0.638-16.566 4.462-18.746 7.604-1.018 25.147 2.18 48.465 2.18 48.465l22.062 2.613" stroke="#010101" stroke-linecap="round" stroke-miterlimit="14.3" stroke-width="3.42" fill="none"/>
	<path d="m16.046 57.828l-7.655 0.012c-3.664 0.009-6.681 3.026-6.681 6.688v37.621c0 3.664 3.017 6.672 6.681 6.664l15.319-0.026c3.664-0.009 6.673-3.021 6.673-6.688v-37.612c0-3.66-3.009-6.668-6.673-6.664l-7.664 0.014" fill="#fff"/>
		<path stroke-linejoin="round" d="m16.046 57.828l-7.655 0.012c-3.664 0.009-6.681 3.026-6.681 6.688v37.621c0 3.664 3.017 6.672 6.681 6.664l15.319-0.026c3.664-0.009 6.673-3.021 6.673-6.688v-37.612c0-3.66-3.009-6.668-6.673-6.664l-7.664 0.014z" stroke="#010101" stroke-linecap="round" stroke-miterlimit="14.3" stroke-width="3.42" fill="none"/>
	<path d="m5.763 73.719c1.034 5.086 6.173 8.336 11.461 7.258 5.289-1.082 8.733-6.086 7.698-11.168-1.043-5.086-6.176-8.332-11.461-7.254-5.284 1.082-8.736 6.082-7.698 11.164" fill="#AAABAA"/>
		<path stroke-linejoin="round" d="m5.763 73.719c1.034 5.086 6.173 8.336 11.461 7.258 5.289-1.082 8.733-6.086 7.698-11.168-1.043-5.086-6.176-8.332-11.461-7.254-5.284 1.082-8.736 6.082-7.698 11.164z" stroke="#010101" stroke-linecap="round" stroke-miterlimit="14.3" stroke-width="3.42" fill="none"/>
	<path d="m4.912 97.18c1.043 5.086 6.173 8.332 11.461 7.254 5.289-1.082 8.741-6.082 7.702-11.164-1.039-5.086-6.172-8.332-11.461-7.258-5.288 1.086-8.732 6.09-7.702 11.172" fill="#AAABAA"/>
		<path stroke-linejoin="round" d="m4.912 97.18c1.043 5.086 6.173 8.332 11.461 7.254 5.289-1.082 8.741-6.082 7.702-11.164-1.039-5.086-6.172-8.332-11.461-7.258-5.288 1.086-8.732 6.09-7.702 11.172z" stroke="#010101" stroke-linecap="round" stroke-miterlimit="14.3" stroke-width="3.42" fill="none"/>
	<path d="m13.177 72.504c0 4.22 2.142 7.646 4.78 7.646s4.781-3.43 4.781-7.646-2.146-7.647-4.781-7.647c-2.639-0.002-4.78 3.427-4.78 7.647" fill="#010101"/>
		<path stroke-linejoin="round" d="m13.177 72.504c0 4.22 2.142 7.646 4.78 7.646s4.781-3.43 4.781-7.646-2.146-7.647-4.781-7.647c-2.639-0.002-4.78 3.427-4.78 7.647z" stroke="#010101" stroke-linecap="round" stroke-miterlimit="14.3" stroke-width="3.42" fill="none"/>
	<path d="m12.546 94.805c0 4.219 2.142 7.647 4.776 7.647s4.78-3.432 4.78-7.647c0-4.224-2.146-7.647-4.78-7.647-2.636 0.001-4.776 3.426-4.776 7.649" fill="#010101"/>
		<path stroke-linejoin="round" d="m12.546 94.805c0 4.219 2.142 7.647 4.776 7.647s4.78-3.432 4.78-7.647c0-4.224-2.146-7.647-4.78-7.647-2.636 0.001-4.776 3.426-4.776 7.649z" stroke="#010101" stroke-linecap="round" stroke-miterlimit="14.3" stroke-width="3.42" fill="none"/>
	<path d="m238.14 96.895s-18.728-35.366-84.569-33.625c-65.854 1.734-97.875 26.938-97.875 26.938-1.402-0.397-12.074 29.242-11.207 57.203 0.409 13.068 3.564 47.224 3.564 47.224s3.539 54.508 96.371 56.038c64.966 1.07 89.72-47.207 89.72-47.207l9.871-37.562s2.366-23.957 2.423-32.197c0.19-29.13-9.89-37.829-8.29-36.805" fill="#fff"/>
	<path d="m242.25 99.965l-4-21.384s-17.262-26.573-83.267-29.112c-66.002-2.539-94.592 27.051-94.592 27.051l-2.902 13.688" fill="#fff"/>
	<path d="m246.96 50.008s9.918-1.392 19.574 0.215c3.819 0.641 16.565 4.461 18.746 7.604 1.012 25.15-2.185 48.465-2.185 48.465l-22.057 2.611" fill="#fff"/>
		<path stroke-linejoin="round" d="m246.96 50.008s9.918-1.392 19.574 0.215c3.819 0.641 16.565 4.461 18.746 7.604 1.012 25.15-2.185 48.465-2.185 48.465l-22.057 2.611" stroke="#010101" stroke-linecap="round" stroke-miterlimit="14.3" stroke-width="3.42" fill="none"/>
	<path d="m273.22 57.887l7.664 0.016c3.656 0.005 6.674 3.027 6.674 6.686v37.621c0 3.664-3.018 6.672-6.674 6.664l-15.318-0.027c-3.664-0.004-6.682-3.022-6.682-6.688v-37.612c0-3.66 3.018-6.668 6.682-6.66l7.66 0.009" fill="#fff"/>
	<path d="m36.546 208.08l-3.643-9.186s-10.77-22.733-3.594-104.01c6.062-68.633 68.532-94.053 124.08-89.749 81.664 6.327 111.65 46.606 109.26 127.98-1.229 41.566-6.586 67.004-6.586 67.004l-3.59 9.57 8.451 3.461" fill="#fff"/>
	<polyline points="259.22 213.15 259.23 212.54 259.28 211.94 259.35 211.36 259.44 210.81 259.57 210.3 259.72 209.84 259.88 209.44 260.07 209.1 260.27 208.82 260.48 208.63 260.7 208.51 260.92 208.47 261.15 208.51 261.37 208.63 261.58 208.82 261.78 209.1 261.97 209.44 262.14 209.84 262.28 210.3 262.4 210.81 262.5 211.36 262.58 211.94 262.62 212.54 262.64 213.15 262.62 213.76 262.58 214.36 262.5 214.94 262.4 215.49 262.28 216 262.14 216.46 261.97 216.86 261.78 217.2 261.58 217.48 261.37 217.67 261.15 217.79 260.92 217.83 260.7 217.79 260.48 217.67 260.27 217.48 260.07 217.2 259.88 216.86 259.72 216.46 259.57 216 259.44 215.49 259.35 214.94 259.28 214.36 259.23 213.76 259.22 213.15" fill="#010101"/>
	<polygon points="34.83 208.08 34.851 207.47 34.89 206.87 34.964 206.29 35.062 205.74 35.187 205.23 35.334 204.78 35.502 204.37 35.687 204.03 35.89 203.76 36.101 203.56 36.319 203.44 36.548 203.4 36.771 203.44 36.989 203.56 37.205 203.76 37.399 204.03 37.587 204.37 37.751 204.78 37.898 205.23 38.023 205.74 38.126 206.29 38.196 206.87 38.243 207.47 38.251 208.08 38.243 208.69 38.196 209.3 38.126 209.88 38.023 210.42 37.898 210.93 37.751 211.4 37.587 211.8 37.399 212.14 37.205 212.41 36.989 212.61 36.771 212.72 36.548 212.77 36.319 212.72 36.101 212.61 35.89 212.41 35.687 212.14 35.502 211.8 35.334 211.4 35.187 210.93 35.062 210.42 34.964 209.88 34.89 209.3 34.851 208.69" fill="#010101"/>
	<polygon points="35.382 211.53 31.772 202.41 31.687 202.2 31.604 202.01 31.276 201.16 31.194 200.92 30.694 199.42 30.608 199.15 29.983 196.96 29.907 196.66 29.204 193.73 29.13 193.41 28.376 189.68 28.317 189.34 27.563 184.77 27.515 184.41 26.804 178.94 27.038 180.15 26.765 178.58 26.14 172.16 26.288 173.16 26.112 171.8 25.612 164.36 25.677 165.03 25.595 164.01 25.263 155.52 25.271 155.71 25.255 155.19 25.134 145.59 25.134 145.22 25.134 145.28 25.271 134.51 25.31 133.61 25.275 134.22 25.702 122.24 25.831 120.88 25.718 121.97 26.479 108.72 26.501 108.47 27.642 93.909 27.97 91.996 28.13 91.518 27.72 93.174 29.505 80.811 30.112 78.69 30.312 78.362 29.709 79.78 32.718 68.405 33.554 66.725 32.95 67.702 37.099 57.305 37.306 56.856 42.495 47.407 42.667 47.135 48.813 38.623 48.955 38.446 55.959 30.844 56.075 30.731 63.839 24.028 63.937 23.954 72.374 18.127 72.456 18.071 81.478 13.102 81.546 13.063 91.056 8.926 91.114 8.899 101.02 5.575 101.07 5.56 111.27 3.032 111.32 3.021 121.73 1.271 121.78 1.262 132.31 0.267 132.34 0.262 142.9 0 142.94 0 153.42 0.457 153.46 0.457 168.17 2.043 168.22 2.052 181.74 4.448 181.8 4.455 194.17 7.666 194.23 7.683 205.48 11.718 205.55 11.748 215.7 16.628 215.79 16.675 224.87 22.395 224.97 22.477 233.02 29.054 233.14 29.175 240.16 36.623 240.31 36.808 246.35 45.136 246.53 45.412 251.61 54.636 251.8 55.037 255.95 65.157 256.15 65.714 259.4 76.741 258.98 75.72 259.57 77.443 261.95 89.392 261.59 88.134 262.07 90.181 263.61 103.06 263.41 101.9 263.52 102.46 263.68 103.85 264.4 117.68 264.37 117.24 264.41 117.87 264.42 118.39 264.36 133.17 264.33 133.9 264.28 134.52 264.35 133.66 263.71 148.47 263.55 149.95 263.69 148.79 262.78 161.99 262.76 162.28 261.68 173.74 261.65 174.01 260.52 183.64 260.49 183.88 259.42 191.55 259.39 191.77 258.48 197.38 258.45 197.57 257.83 201.02 257.8 201.18 257.56 202.35 256.81 204.32 257.26 203.47 256.14 206.46 261.18 208.52 260.68 217.78 252.22 214.32 252.36 214.36 252.13 214.27 251.9 214.1 251.69 213.84 251.49 213.51 251.31 213.11 251.15 212.64 251.01 212.12 250.91 211.55 250.83 210.95 250.78 210.32 250.76 209.69 250.78 209.05 250.83 208.43 250.91 207.82 251.01 207.26 251.15 206.74 251.31 206.27 251.49 205.86 251.69 205.53 251.28 206.34 254.68 197.26 254.78 196.79 255.37 193.51 256.25 188.1 257.28 180.65 258.39 171.28 259.44 160.1 260.33 147.22 260.95 132.81 261.01 118.64 260.32 105.58 258.89 93.494 256.65 82.291 253.58 71.89 249.63 62.248 244.73 53.366 238.86 45.267 231.97 37.966 224.05 31.481 215.07 25.821 205 20.985 193.82 16.974 181.5 13.778 168.02 11.392 153.36 9.813 142.91 9.356 132.41 9.623 121.92 10.614 111.56 12.356 101.41 14.873 91.572 18.183 82.128 22.295 73.184 27.226 64.83 32.996 57.171 39.612 50.304 47.065 44.32 55.358 39.324 64.453 35.402 74.289 32.617 84.797 30.97 96.25 29.865 110.31 29.119 123.29 28.701 134.98 28.568 145.43 28.685 154.7 29 162.85 29.478 169.93 30.068 175.99 30.724 181.11 31.419 185.33 32.099 188.73 32.74 191.35 33.279 193.25 33.693 194.5 33.943 195.14 34.021 195.33 34.076 195.47 37.718 204.65" fill="#010101"/>
			<path id="XMLID_1_" fill="#fff" d="m239.24 96.691s-18.728-35.37-84.573-33.633c-65.848 1.739-97.87 26.945-97.87 26.945-1.4-0.401-12.072 29.232-11.207 57.199 0.406 13.072 3.565 47.219 3.565 47.219s3.535 54.513 96.371 56.042c64.961 1.074 89.72-47.207 89.72-47.207l9.866-37.562s2.371-23.961 2.423-32.199c0.18-29.13-9.9-37.822-8.3-36.799"/>
			<path d="m239.24 96.691s-18.728-35.37-84.573-33.633c-65.848 1.739-97.87 26.945-97.87 26.945-1.4-0.401-12.072 29.232-11.207 57.199 0.406 13.072 3.565 47.219 3.565 47.219s3.535 54.513 96.371 56.042c64.961 1.074 89.72-47.207 89.72-47.207l9.866-37.562s2.371-23.961 2.423-32.199c0.18-29.13-9.9-37.822-8.3-36.799" fill="none"/>
			<path d="m239.24 96.691s-18.728-35.37-84.573-33.633c-65.848 1.739-97.87 26.945-97.87 26.945-1.4-0.401-12.072 29.232-11.207 57.199 0.406 13.072 3.565 47.219 3.565 47.219s3.535 54.513 96.371 56.042c64.961 1.074 89.72-47.207 89.72-47.207l9.866-37.562s2.371-23.961 2.423-32.199c0.18-29.13-9.9-37.822-8.3-36.799" fill="none"/>
			<path d="m238.14 96.895s-18.728-35.366-84.569-33.625c-65.854 1.734-97.875 26.938-97.875 26.938-1.402-0.397-12.074 29.242-11.207 57.203 0.409 13.068 3.564 47.224 3.564 47.224s3.539 54.508 96.371 56.038c64.966 1.07 89.72-47.207 89.72-47.207l9.871-37.562s2.366-23.957 2.423-32.197c0.19-29.13-9.89-37.829-8.29-36.805" fill="#fff"/>
			<path d="m239.24 96.691s-18.728-35.37-84.573-33.633c-65.848 1.739-97.87 26.945-97.87 26.945-1.4-0.401-12.072 29.232-11.207 57.199 0.406 13.072 3.565 47.219 3.565 47.219s3.535 54.513 96.371 56.042c64.961 1.074 89.72-47.207 89.72-47.207l9.866-37.562s2.371-23.961 2.423-32.199c0.18-29.13-9.9-37.822-8.3-36.799" fill="none"/>
			<path d="m242.25 99.965l-4-21.384s-17.262-26.573-83.267-29.112c-66.002-2.539-94.592 27.051-94.592 27.051l-2.902 13.688" fill="#fff"/>
			<path d="m239.24 96.691s-18.728-35.37-84.573-33.633c-65.848 1.739-97.87 26.945-97.87 26.945-1.4-0.401-12.072 29.232-11.207 57.199 0.406 13.072 3.565 47.219 3.565 47.219s3.535 54.513 96.371 56.042c64.961 1.074 89.72-47.207 89.72-47.207l9.866-37.562s2.371-23.961 2.423-32.199c0.18-29.13-9.9-37.822-8.3-36.799" fill="none"/>
			<path d="m246.96 50.008s9.918-1.392 19.574 0.215c3.819 0.641 16.565 4.461 18.746 7.604 1.012 25.15-2.185 48.465-2.185 48.465l-22.057 2.611" fill="#fff"/>
			<path d="m239.24 96.691s-18.728-35.37-84.573-33.633c-65.848 1.739-97.87 26.945-97.87 26.945-1.4-0.401-12.072 29.232-11.207 57.199 0.406 13.072 3.565 47.219 3.565 47.219s3.535 54.513 96.371 56.042c64.961 1.074 89.72-47.207 89.72-47.207l9.866-37.562s2.371-23.961 2.423-32.199c0.18-29.13-9.9-37.822-8.3-36.799" fill="none"/>
		<g fill="none">
				<path stroke-linejoin="round" d="m246.96 50.008s9.918-1.392 19.574 0.215c3.819 0.641 16.565 4.461 18.746 7.604 1.012 25.15-2.185 48.465-2.185 48.465l-22.057 2.611" stroke="#010101" stroke-linecap="round" stroke-miterlimit="11.5" stroke-width="3.42"/>
			<path d="m239.24 96.691s-18.728-35.37-84.573-33.633c-65.848 1.739-97.87 26.945-97.87 26.945-1.4-0.401-12.072 29.232-11.207 57.199 0.406 13.072 3.565 47.219 3.565 47.219s3.535 54.513 96.371 56.042c64.961 1.074 89.72-47.207 89.72-47.207l9.866-37.562s2.371-23.961 2.423-32.199c0.18-29.13-9.9-37.822-8.3-36.799"/>
		</g>
			<path d="m36.546 208.08l-3.643-9.186s-10.77-22.733-3.594-104.01c6.062-68.633 68.532-94.053 124.08-89.749 81.664 6.327 111.65 46.606 109.26 127.98-1.229 41.566-6.586 67.004-6.586 67.004l-3.59 9.57 8.451 3.461" fill="#fff"/>
			<path d="m239.24 96.691s-18.728-35.37-84.573-33.633c-65.848 1.739-97.87 26.945-97.87 26.945-1.4-0.401-12.072 29.232-11.207 57.199 0.406 13.072 3.565 47.219 3.565 47.219s3.535 54.513 96.371 56.042c64.961 1.074 89.72-47.207 89.72-47.207l9.866-37.562s2.371-23.961 2.423-32.199c0.18-29.13-9.9-37.822-8.3-36.799" fill="none"/>
			<polyline points="259.22 213.15 259.23 212.54 259.28 211.94 259.35 211.36 259.44 210.81 259.57 210.3 259.72 209.84 259.88 209.44 260.07 209.1 260.27 208.82 260.48 208.63 260.7 208.51 260.92 208.47 261.15 208.51 261.37 208.63 261.58 208.82 261.78 209.1 261.97 209.44 262.14 209.84 262.28 210.3 262.4 210.81 262.5 211.36 262.58 211.94 262.62 212.54 262.64 213.15 262.62 213.76 262.58 214.36 262.5 214.94 262.4 215.49 262.28 216 262.14 216.46 261.97 216.86 261.78 217.2 261.58 217.48 261.37 217.67 261.15 217.79 260.92 217.83 260.7 217.79 260.48 217.67 260.27 217.48 260.07 217.2 259.88 216.86 259.72 216.46 259.57 216 259.44 215.49 259.35 214.94 259.28 214.36 259.23 213.76 259.22 213.15" fill="#231F20"/>
			<polygon points="34.83 208.08 34.851 207.47 34.89 206.87 34.964 206.29 35.062 205.74 35.187 205.23 35.334 204.78 35.502 204.37 35.687 204.03 35.89 203.76 36.101 203.56 36.319 203.44 36.548 203.4 36.771 203.44 36.989 203.56 37.205 203.76 37.399 204.03 37.587 204.37 37.751 204.78 37.898 205.23 38.023 205.74 38.126 206.29 38.196 206.87 38.243 207.47 38.251 208.08 38.243 208.69 38.196 209.3 38.126 209.88 38.023 210.42 37.898 210.93 37.751 211.4 37.587 211.8 37.399 212.14 37.205 212.41 36.989 212.61 36.771 212.72 36.548 212.77 36.319 212.72 36.101 212.61 35.89 212.41 35.687 212.14 35.502 211.8 35.334 211.4 35.187 210.93 35.062 210.42 34.964 209.88 34.89 209.3 34.851 208.69" fill="#231F20"/>
			<polygon points="35.382 211.53 31.772 202.41 31.687 202.2 31.604 202.01 31.276 201.16 31.194 200.92 30.694 199.42 30.608 199.15 29.983 196.96 29.907 196.66 29.204 193.73 29.13 193.41 28.376 189.68 28.317 189.34 27.563 184.77 27.515 184.41 26.804 178.94 27.038 180.15 26.765 178.58 26.14 172.16 26.288 173.16 26.112 171.8 25.612 164.36 25.677 165.03 25.595 164.01 25.263 155.52 25.271 155.71 25.255 155.19 25.134 145.59 25.134 145.22 25.134 145.28 25.271 134.51 25.31 133.61 25.275 134.22 25.702 122.24 25.831 120.88 25.718 121.97 26.479 108.72 26.501 108.47 27.642 93.909 27.97 91.996 28.13 91.518 27.72 93.174 29.505 80.811 30.112 78.69 30.312 78.362 29.709 79.78 32.718 68.405 33.554 66.725 32.95 67.702 37.099 57.305 37.306 56.856 42.495 47.407 42.667 47.135 48.813 38.623 48.955 38.446 55.959 30.844 56.075 30.731 63.839 24.028 63.937 23.954 72.374 18.127 72.456 18.071 81.478 13.102 81.546 13.063 91.056 8.926 91.114 8.899 101.02 5.575 101.07 5.56 111.27 3.032 111.32 3.021 121.73 1.271 121.78 1.262 132.31 0.267 132.34 0.262 142.9 0 142.94 0 153.42 0.457 153.46 0.457 168.17 2.043 168.22 2.052 181.74 4.448 181.8 4.455 194.17 7.666 194.23 7.683 205.48 11.718 205.55 11.748 215.7 16.628 215.79 16.675 224.87 22.395 224.97 22.477 233.02 29.054 233.14 29.175 240.16 36.623 240.31 36.808 246.35 45.136 246.53 45.412 251.61 54.636 251.8 55.037 255.95 65.157 256.15 65.714 259.4 76.741 258.98 75.72 259.57 77.443 261.95 89.392 261.59 88.134 262.07 90.181 263.61 103.06 263.41 101.9 263.52 102.46 263.68 103.85 264.4 117.68 264.37 117.24 264.41 117.87 264.42 118.39 264.36 133.17 264.33 133.9 264.28 134.52 264.35 133.66 263.71 148.47 263.55 149.95 263.69 148.79 262.78 161.99 262.76 162.28 261.68 173.74 261.65 174.01 260.52 183.64 260.49 183.88 259.42 191.55 259.39 191.77 258.48 197.38 258.45 197.57 257.83 201.02 257.8 201.18 257.56 202.35 256.81 204.32 257.26 203.47 256.14 206.46 261.18 208.52 260.68 217.78 252.22 214.32 252.36 214.36 252.13 214.27 251.9 214.1 251.69 213.84 251.49 213.51 251.31 213.11 251.15 212.64 251.01 212.12 250.91 211.55 250.83 210.95 250.78 210.32 250.76 209.69 250.78 209.05 250.83 208.43 250.91 207.82 251.01 207.26 251.15 206.74 251.31 206.27 251.49 205.86 251.69 205.53 251.28 206.34 254.68 197.26 254.78 196.79 255.37 193.51 256.25 188.1 257.28 180.65 258.39 171.28 259.44 160.1 260.33 147.22 260.95 132.81 261.01 118.64 260.32 105.58 258.89 93.494 256.65 82.291 253.58 71.89 249.63 62.248 244.73 53.366 238.86 45.267 231.97 37.966 224.05 31.481 215.07 25.821 205 20.985 193.82 16.974 181.5 13.778 168.02 11.392 153.36 9.813 142.91 9.356 132.41 9.623 121.92 10.614 111.56 12.356 101.41 14.873 91.572 18.183 82.128 22.295 73.184 27.226 64.83 32.996 57.171 39.612 50.304 47.065 44.32 55.358 39.324 64.453 35.402 74.289 32.617 84.797 30.97 96.25 29.865 110.31 29.119 123.29 28.701 134.98 28.568 145.43 28.685 154.7 29 162.85 29.478 169.93 30.068 175.99 30.724 181.11 31.419 185.33 32.099 188.73 32.74 191.35 33.279 193.25 33.693 194.5 33.943 195.14 34.021 195.33 34.076 195.47 37.718 204.65" fill="#231F20"/>
			<path d="m239.24 96.691s-18.728-35.37-84.573-33.633c-65.848 1.739-97.87 26.945-97.87 26.945-1.4-0.401-12.072 29.232-11.207 57.199 0.406 13.072 3.565 47.219 3.565 47.219s3.535 54.513 96.371 56.042c64.961 1.074 89.72-47.207 89.72-47.207l9.866-37.562s2.371-23.961 2.423-32.199c0.18-29.13-9.9-37.822-8.3-36.799" fill="none"/>
		<path stroke-linejoin="round" d="m245.38 201.94s6.091-16.146 8.353-53.829c2.043-33.986-13.642-61.74-13.642-61.74s-24.022-32.496-97.009-32.496c-72.985 0-95.056 32.5-95.056 32.5s-10.366 27.318-12.062 55.021c-1.693 27.703 5.272 55.777 5.272 55.777" stroke="#010101" stroke-linecap="round" stroke-miterlimit="11.5" stroke-width="2.564" fill="none"/>
	<path d="m35.643 208.98s0.871 6.234 4.694 13.242c6.116 11.219 12.108 19.115 12.108 19.115l1.836 15.713 32.896 13.461s17.022-5.6 25.798-5.6c8.772 0 31.219 2.715 50.957-0.172 19.732-2.885 45.448-14.607 57.996-21.492 19.75-10.826 30.819-31.383 30.819-31.383" fill="#fff"/>
		<path stroke-linejoin="round" d="m35.643 208.98s0.871 6.234 4.694 13.242c6.116 11.219 12.108 19.115 12.108 19.115l1.836 15.713 32.896 13.461s17.022-5.6 25.798-5.6c8.772 0 31.219 2.715 50.957-0.172 19.732-2.885 45.448-14.607 57.996-21.492 19.75-10.826 30.819-31.383 30.819-31.383" stroke="#010101" stroke-linecap="round" stroke-miterlimit="11.5" stroke-width="3.42" fill="none"/>
	<path d="m245.31 201.48l-5.979 15.557s-32.293 44.529-110.68 39.479c-71.293-4.598-84.353-44.271-84.353-44.271l-3.935-19.336" fill="#fff"/>
		<path stroke-linejoin="round" d="m245.31 201.48l-5.979 15.557s-32.293 44.529-110.68 39.479c-71.293-4.598-84.353-44.271-84.353-44.271l-3.935-19.336" stroke="#010101" stroke-linecap="round" stroke-miterlimit="11.5" stroke-width="2.564" fill="none"/>
	<polyline points="232.07 91.5 231.72 91.239 230.66 90.491 228.86 89.323 226.33 87.801 223.04 85.996 219 83.989 214.19 81.852 208.63 79.659 202.29 77.489 195.17 75.402 187.28 73.489 178.58 71.812 169.11 70.453 158.83 69.484 147.75 68.977 135.86 69.004 124.15 69.559 113.6 70.539 104.15 71.875 95.74 73.508 88.334 75.366 81.865 77.391 76.283 79.52 71.529 81.684 67.552 83.82 64.296 85.859 61.709 87.741 59.732 89.402 58.307 90.782 57.388 91.801 56.904 92.409 56.768 92.609 56.193 93.148 56.373 93.032 56.341 93.055 56.158 93.395 55.634 94.684 54.959 96.609 53.311 102.14 51.494 109.39 49.693 117.96 48.084 127.46 46.857 137.5 46.177 147.68 46.225 156.34 46.83 165.77 47.826 175.37 49.037 184.53 50.283 192.67 51.396 199.19 51.839 201.66 52.186 203.51 52.404 204.66 52.436 204.8 52.479 204.93 52.912 206.04 53.775 207.9 55.166 210.37 57.171 213.35 59.888 216.72 63.396 220.35 67.802 224.12 73.177 227.91 79.623 231.58 87.225 235.02 96.061 238.09 106.23 240.68 117.82 242.64 130.91 243.87 145.58 244.23 157.75 243.66 168.91 242.23 179.1 240.06 188.34 237.27 196.67 233.99 204.12 230.35 210.71 226.47 216.48 222.48 221.46 218.5 225.66 214.66 229.14 211.09 231.9 207.9 233.99 205.22 235.44 203.18 236.26 201.9 236.29 201.86 238.36 193.78 239.95 186.04 241.07 178.8 241.81 171.77 242.28 164.65 242.57 157.16 242.78 149.06 242.99 140.27 242.55 130.11 241.28 120.77 239.44 112.34 237.3 105.03 235.16 99.027 233.29 94.527 231.97 91.719 231.72 91.239 231.7 91.227 233.06 85.773 233.43 86.047 233.25 85.938 233.47 86.078 234.02 86.797 234.55 87.812 234.6 87.909 235.97 90.84 236.03 90.977 237.97 95.629 238.03 95.805 240.25 102.01 240.32 102.23 242.53 109.8 242.29 109.18 242.6 110.09 244.51 118.84 244.4 118.4 244.58 119.21 245.91 128.96 245.9 128.86 245.95 129.42 246.41 140 246.41 140.04 246.42 140.35 246.19 149.32 246.19 149.32 245.99 157.46 245.99 157.53 245.69 165.12 245.69 165.26 245.2 172.54 245.19 172.74 244.42 179.99 244.39 180.22 243.23 187.7 243.19 187.93 241.55 195.89 241.51 196.09 239.28 204.8 238.92 205.7 238.75 205.96 238.9 205.72 238.62 206.2 238.57 206.29 237.69 207.66 237.63 207.74 236.12 209.88 236.05 209.96 233.9 212.72 233.83 212.81 230.99 216.08 230.92 216.16 227.37 219.82 227.29 219.89 223.01 223.8 222.93 223.87 217.87 227.91 217.79 227.97 211.94 232.02 211.85 232.07 205.18 236 205.08 236.05 197.55 239.73 197.47 239.77 189.05 243.08 188.97 243.11 179.64 245.92 179.55 245.95 169.29 248.14 169.2 248.15 157.96 249.6 157.88 249.61 145.64 250.17 145.57 250.18 130.83 249.81 130.76 249.81 117.6 248.57 117.53 248.56 105.86 246.58 105.78 246.56 95.529 243.96 95.439 243.93 86.507 240.83 86.412 240.79 78.709 237.31 78.611 237.26 72.061 233.52 71.951 233.46 66.459 229.59 66.341 229.5 61.826 225.63 61.709 225.52 58.076 221.77 57.959 221.63 55.123 218.11 55.007 217.95 52.882 214.8 52.771 214.62 51.275 211.95 51.171 211.75 50.209 209.69 50.115 209.48 49.604 208.15 49.529 207.95 49.382 207.48 49.529 207.87 49.248 206.98 49.171 206.57 49.166 206.56 48.939 205.38 48.936 205.35 48.584 203.48 48.576 203.45 48.127 200.95 48.119 200.9 46.998 194.32 46.986 194.23 45.725 186.02 45.709 185.91 44.482 176.63 44.466 176.49 43.455 166.72 43.439 166.53 42.818 156.86 42.83 156.98 42.811 156.56 42.757 147.55 42.759 147.34 42.768 147.18 43.466 136.68 43.494 136.38 43.494 136.4 44.748 126.11 44.783 125.89 46.425 116.19 46.459 116.01 48.3 107.27 48.339 107.1 50.201 99.68 50.248 99.5 51.951 93.789 52.007 93.614 52.74 91.508 52.811 91.332 53.439 89.793 53.584 89.484 54.084 88.555 54.475 88.016 54.686 87.836 54.634 87.871 54.979 87.605 54.584 88.027 54.768 87.773 54.85 87.664 55.412 86.945 55.502 86.84 56.513 85.719 56.6 85.629 58.111 84.168 58.201 84.094 60.259 82.359 60.341 82.293 63.013 80.352 63.095 80.297 66.432 78.203 66.502 78.159 70.552 75.989 70.627 75.953 75.451 73.758 75.513 73.727 81.166 71.573 81.225 71.555 87.759 69.512 87.814 69.496 95.283 67.621 95.334 67.609 103.79 65.969 103.84 65.957 113.34 64.616 113.39 64.609 123.99 63.625 124.03 63.625 135.78 63.062 135.83 63.062 147.77 63.032 147.81 63.032 158.95 63.543 158.99 63.547 169.32 64.523 169.36 64.527 178.9 65.895 178.94 65.902 187.68 67.586 187.72 67.598 195.67 69.523 195.72 69.534 202.88 71.633 202.93 71.648 209.31 73.84 209.36 73.855 214.98 76.066 215.02 76.086 219.86 78.241 219.91 78.266 224 80.293 224.05 80.316 227.38 82.145 227.42 82.168 230 83.719 230.05 83.741 231.88 84.945 231.93 84.973 233.02 85.741 233.06 85.773 233.43 86.047 232.07 91.5" fill="#010101"/>
		<path stroke-linejoin="round" d="m193.66 15.375s5.577 11.16 5.577 21.396c0 10.229-0.93 23.883-0.93 23.883l9.301 4.312s1.859-7.738 0.936-19.824c-0.936-12.09-5.582-26.039-5.582-26.039" stroke="#010101" stroke-linecap="round" stroke-miterlimit="11.5" stroke-width="2.564" fill="none"/>
		<path stroke-linejoin="round" d="m89.8 16.301s-5.582 11.16-5.582 21.387c0 10.234 0.934 24.522 0.934 24.522l-9.301 3.668s-1.863-7.729-0.93-19.819c0.93-12.09 5.576-26.039 5.576-26.039" stroke="#010101" stroke-linecap="round" stroke-miterlimit="11.5" stroke-width="2.564" fill="none"/>
	<path d="m33.619 119.99l-14.47 0.557s-4.254 9.063-3.448 23.313c0.798 14.255 4.436 23.781 4.436 23.781l15.395-0.5s-1.825-8.492-2.114-23.645c-0.284-15.15 0.201-23.51 0.201-23.51" fill="#fff"/>
		<path stroke-linejoin="round" d="m33.619 119.99l-14.47 0.557s-4.254 9.063-3.448 23.313c0.798 14.255 4.436 23.781 4.436 23.781l15.395-0.5s-1.825-8.492-2.114-23.645c-0.284-15.15 0.201-23.51 0.201-23.51z" stroke="#010101" stroke-linecap="round" stroke-miterlimit="11.5" stroke-width="3.42" fill="none"/>
	<path d="m39.373 143.17c0.238 12.737-1.655 23.121-4.219 23.168-2.57 0.047-4.845-10.259-5.078-22.996-0.241-12.737 1.647-23.12 4.216-23.168 2.566-0.05 4.84 10.26 5.081 23" fill="#fff"/>
		<path stroke-linejoin="round" d="m39.373 143.17c0.238 12.737-1.655 23.121-4.219 23.168-2.57 0.047-4.845-10.259-5.078-22.996-0.241-12.737 1.647-23.12 4.216-23.168 2.566-0.05 4.84 10.26 5.081 23z" stroke="#010101" stroke-linecap="round" stroke-miterlimit="11.5" stroke-width="3.42" fill="none"/>
	<path d="m40.037 127.35l-3.952 0.686s-1.276 7.611-1.393 15.297c-0.107 7.685 0.938 15.435 0.938 15.435l3.953-0.688 0.454-30.74" fill="#010101"/>
		<path stroke-linejoin="round" d="m40.037 127.35l-3.952 0.686s-1.276 7.611-1.393 15.297c-0.107 7.685 0.938 15.435 0.938 15.435l3.953-0.688 0.454-30.74z" stroke="#010101" stroke-linecap="round" stroke-miterlimit="11.5" stroke-width="3.42" fill="none"/>
	<path d="m255.88 119.98l14.47 0.553s4.258 9.068 3.457 23.318c-0.806 14.254-4.441 23.781-4.441 23.781l-15.395-0.5s1.832-8.492 2.112-23.646c0.27-15.14-0.21-23.5-0.21-23.5" fill="#fff"/>
		<path stroke-linejoin="round" d="m255.88 119.98l14.47 0.553s4.258 9.068 3.457 23.318c-0.806 14.254-4.441 23.781-4.441 23.781l-15.395-0.5s1.832-8.492 2.112-23.646c0.27-15.14-0.21-23.5-0.21-23.5z" stroke="#010101" stroke-linecap="round" stroke-miterlimit="11.5" stroke-width="3.42" fill="none"/>
	<path d="m250.25 143.27c-0.232 12.738 1.656 23.117 4.22 23.168 2.569 0.047 4.845-10.254 5.086-22.991 0.233-12.745-1.655-23.12-4.224-23.168-2.57-0.05-4.85 10.25-5.09 22.99" fill="#fff"/>
		<path stroke-linejoin="round" d="m250.25 143.27c-0.232 12.738 1.656 23.117 4.22 23.168 2.569 0.047 4.845-10.254 5.086-22.991 0.233-12.745-1.655-23.12-4.224-23.168-2.57-0.05-4.85 10.25-5.09 22.99z" stroke="#010101" stroke-linecap="round" stroke-miterlimit="11.5" stroke-width="3.42" fill="none"/>
	<path d="m249.55 127.34l3.866 0.688s1.259 7.617 1.379 15.298c0.121 7.685-0.896 15.435-0.896 15.435l-3.867-0.69-0.48-30.73" fill="#010101"/>
		<path stroke-linejoin="round" d="m249.55 127.34l3.866 0.688s1.259 7.617 1.379 15.298c0.121 7.685-0.896 15.435-0.896 15.435l-3.867-0.69-0.48-30.73z" stroke="#010101" stroke-linecap="round" stroke-miterlimit="11.5" stroke-width="3.42" fill="none"/>
	<path d="m35.979 119.87s0.909-28.229 3.646-35.521c2.733-7.285 12.75-4.551 12.75-4.551s-7.289 11.84-9.104 30.051c-1.187 11.78 0.906 14.57-7.292 10.02" fill="#fff"/>
		<path stroke-linejoin="round" d="m35.979 119.87s0.909-28.229 3.646-35.521c2.733-7.285 12.75-4.551 12.75-4.551s-7.289 11.84-9.104 30.051c-1.187 11.78 0.906 14.57-7.292 10.02z" stroke="#010101" stroke-linecap="round" stroke-miterlimit="11.5" stroke-width="2.564" fill="none"/>
	<path d="m253.63 120.78s-0.914-28.232-3.646-35.517c-2.729-7.285-12.746-4.555-12.746-4.555s7.281 11.836 9.104 30.055c1.19 11.79-0.89 14.58 7.3 10.02" fill="#fff"/>
		<path stroke-linejoin="round" d="m253.63 120.78s-0.914-28.232-3.646-35.517c-2.729-7.285-12.746-4.555-12.746-4.555s7.281 11.836 9.104 30.055c1.19 11.79-0.89 14.58 7.3 10.02z" stroke="#010101" stroke-linecap="round" stroke-miterlimit="11.5" stroke-width="2.564" fill="none"/>
		<line y2="208.21" stroke-width="2.564" y1="208.21" stroke="#010101" stroke-miterlimit="14.3" x2="43.529" x1="35.882" fill="none"/>
		<polyline stroke-linejoin="round" points="51.807 240.06 60.725 245.8 92.583 259.18 115.52 264.28" stroke="#010101" stroke-linecap="round" stroke-miterlimit="14.3" stroke-width="2.564" fill="none"/>
		<line stroke-linejoin="round" stroke-width="2.564" y2="259.82" y1="269.37" stroke="#010101" stroke-linecap="round" stroke-miterlimit="14.3" x2="91.314" x1="86.85" fill="none"/>
		<line stroke-linejoin="round" stroke-width="2.564" y2="246.44" y1="255.99" stroke="#010101" stroke-linecap="round" stroke-miterlimit="14.3" x2="60.733" x1="55.632" fill="none"/>
		<line y2="206.94" stroke-width="2.564" y1="201.84" stroke="#010101" stroke-miterlimit="14.3" x2="253.14" x1="245.49" fill="none"/>
	<path d="m86.052 114.22c-2.909 7.926-10.366 12.479-16.642 10.172-6.271-2.309-8.992-10.604-6.078-18.53 2.914-7.918 10.367-12.478 16.643-10.168 6.273 2.308 8.995 10.608 6.077 18.528" fill="#fff"/>
	<path stroke="#010101" stroke-width="1.712" stroke-miterlimit="14.3" d="m86.052 114.22c-2.909 7.926-10.366 12.479-16.642 10.172-6.271-2.309-8.992-10.604-6.078-18.53 2.914-7.918 10.367-12.478 16.643-10.168 6.273 2.308 8.995 10.608 6.077 18.528z" fill="none"/>
	<path d="m95.912 88.164c-1.366 3.724-4.866 5.865-7.812 4.784-2.945-1.087-4.219-4.982-2.854-8.707 1.366-3.724 4.866-5.866 7.812-4.78 2.944 1.082 4.221 4.984 2.854 8.703" fill="#fff"/>
	<path stroke="#010101" stroke-width="1.712" stroke-miterlimit="14.3" d="m95.912 88.164c-1.366 3.724-4.866 5.865-7.812 4.784-2.945-1.087-4.219-4.982-2.854-8.707 1.366-3.724 4.866-5.866 7.812-4.78 2.944 1.082 4.221 4.984 2.854 8.703z" fill="none"/>
	<path d="m265.33 195.45l-14.969-1.358s-2.397 3.621-2.97 9.792c-0.573 6.172 0.367 10.496 0.367 10.496l15.356 1.439s-0.231-3.766 0.617-10.293c0.85-6.52 1.59-10.08 1.59-10.08" fill="#fff"/>
		<path stroke-linejoin="round" d="m265.33 195.45l-14.969-1.358s-2.397 3.621-2.97 9.792c-0.573 6.172 0.367 10.496 0.367 10.496l15.356 1.439s-0.231-3.766 0.617-10.293c0.85-6.52 1.59-10.08 1.59-10.08z" stroke="#010101" stroke-linecap="round" stroke-miterlimit="14.3" stroke-width="3.42" fill="none"/>
	<path d="m266.35 205.68c-0.72 5.482-2.188 9.818-3.289 9.68-1.095-0.145-1.406-4.711-0.688-10.197 0.711-5.484 2.188-9.824 3.28-9.682 1.11 0.14 1.41 4.71 0.7 10.2" fill="#fff"/>
		<path stroke-linejoin="round" d="m266.35 205.68c-0.72 5.482-2.188 9.818-3.289 9.68-1.095-0.145-1.406-4.711-0.688-10.197 0.711-5.484 2.188-9.824 3.28-9.682 1.11 0.14 1.41 4.71 0.7 10.2z" stroke="#010101" stroke-linecap="round" stroke-miterlimit="14.3" stroke-width="3.42" fill="none"/>
	<path d="m241.72 179.05s-18.336 12.227-38.703 17.313c-20.367 5.096-26.478 5.096-26.478 5.096s-4.073-7.134-17.312-7.134-13.238 7.134-13.238 13.238c0 6.113 7.129 7.129 15.277 7.129s15.271-4.068 15.271-4.068 15.277-1.021 27.5-4.072c12.221-3.057 35.643-12.224 35.643-12.224" fill="#010101"/>
		<path stroke-linejoin="round" d="m273.22 57.887l7.664 0.016c3.656 0.005 6.674 3.027 6.674 6.686v37.621c0 3.664-3.018 6.672-6.674 6.664l-15.318-0.027c-3.664-0.004-6.682-3.022-6.682-6.688v-37.612c0-3.66 3.018-6.668 6.682-6.66l7.66 0.009z" stroke="#010101" stroke-linecap="round" stroke-miterlimit="14.3" stroke-width="3.42" fill="#fff"/>
	<path d="m283.47 73.941c-1.039 5.082-6.173 8.332-11.457 7.25-5.289-1.072-8.741-6.077-7.702-11.163 1.039-5.082 6.172-8.332 11.461-7.25 5.29 1.074 8.74 6.077 7.7 11.163" fill="#AAABAA"/>
	<path d="m284.31 97.395c-1.035 5.086-6.173 8.336-11.457 7.259-5.289-1.082-8.738-6.082-7.703-11.163 1.039-5.087 6.173-8.337 11.461-7.26 5.29 1.085 8.75 6.085 7.7 11.168" fill="#AAABAA"/>
	<path d="m276.08 72.5c0 4.22-2.146 7.646-4.78 7.646-2.642 0-4.78-3.43-4.78-7.646s2.142-7.647 4.78-7.647c2.64-0.001 4.78 3.429 4.78 7.647" fill="#010101"/>
		<path stroke-linejoin="round" d="m276.08 72.5c0 4.22-2.146 7.646-4.78 7.646-2.642 0-4.78-3.43-4.78-7.646s2.142-7.647 4.78-7.647c2.64-0.001 4.78 3.429 4.78 7.647z" stroke="#010101" stroke-linecap="round" stroke-miterlimit="14.3" stroke-width="3.42" fill="none"/>
	<path d="m276.72 94.801c0 4.219-2.141 7.647-4.775 7.647-2.643 0-4.781-3.432-4.781-7.647 0-4.224 2.143-7.647 4.781-7.647 2.64-0.004 4.78 3.422 4.78 7.645" fill="#010101"/>
		<path stroke-linejoin="round" d="m276.72 94.801c0 4.219-2.141 7.647-4.775 7.647-2.643 0-4.781-3.432-4.781-7.647 0-4.224 2.143-7.647 4.781-7.647 2.64-0.004 4.78 3.422 4.78 7.645z" stroke="#010101" stroke-linecap="round" stroke-miterlimit="14.3" stroke-width="3.42" fill="none"/>
		<path stroke-linejoin="round" d="m283.47 73.941c-1.039 5.082-6.173 8.332-11.457 7.25-5.289-1.072-8.741-6.077-7.702-11.163 1.039-5.082 6.172-8.332 11.461-7.25 5.29 1.074 8.74 6.077 7.7 11.163z" stroke="#010101" stroke-linecap="round" stroke-miterlimit="14.3" stroke-width="3.42" fill="none"/>
		<path stroke-linejoin="round" d="m284.31 97.395c-1.035 5.086-6.173 8.336-11.457 7.259-5.289-1.082-8.738-6.082-7.703-11.163 1.039-5.087 6.173-8.337 11.461-7.26 5.29 1.085 8.75 6.085 7.7 11.168z" stroke="#010101" stroke-linecap="round" stroke-miterlimit="14.3" stroke-width="3.42" fill="none"/>
<metadata><rdf:RDF><cc:Work><dc:format>image/svg+xml</dc:format><dc:type rdf:resource="http://purl.org/dc/dcmitype/StillImage"/><cc:license rdf:resource="http://creativecommons.org/licenses/publicdomain/"/><dc:publisher><cc:Agent rdf:about="http://openclipart.org/"><dc:title>Openclipart</dc:title></cc:Agent></dc:publisher><dc:title>astronaut's helmet</dc:title><dc:date>2006-10-15T21:45:28</dc:date><dc:description>black and white drawing of an astronaut's helmet from a NASA coloring page</dc:description><dc:source>http://openclipart.org/detail/644/astronauts-helmet-by-johnny_automatic</dc:source><dc:creator><cc:Agent><dc:title>johnny_automatic</dc:title></cc:Agent></dc:creator><dc:subject><rdf:Bag><rdf:li>astronaut</rdf:li><rdf:li>black &amp; white</rdf:li><rdf:li>clip art</rdf:li><rdf:li>clipart</rdf:li><rdf:li>coloring book</rdf:li><rdf:li>contour</rdf:li><rdf:li>headwear</rdf:li><rdf:li>helmet</rdf:li><rdf:li>nasa</rdf:li><rdf:li>outline</rdf:li><rdf:li>uniform</rdf:li></rdf:Bag></dc:subject></cc:Work><cc:License rdf:about="http://creativecommons.org/licenses/publicdomain/"><cc:permits rdf:resource="http://creativecommons.org/ns#Reproduction"/><cc:permits rdf:resource="http://creativecommons.org/ns#Distribution"/><cc:permits rdf:resource="http://creativecommons.org/ns#DerivativeWorks"/></cc:License></rdf:RDF></metadata></svg>
