<?xml version="1.0" encoding="utf-8"?>
<!-- Generator: Adobe Illustrator 24.2.3, SVG Export Plug-In . SVG Version: 6.00 Build 0)  -->
<svg version="1.1" id="Layer_1" xmlns="http://www.w3.org/2000/svg" xmlns:xlink="http://www.w3.org/1999/xlink" x="0px" y="0px"
	 viewBox="0 0 1600 1200" style="enable-background:new 0 0 1600 1200;" xml:space="preserve">
<style type="text/css">
	.st0{fill:#FFFFFF;}
	.st1{opacity:0.2;fill:#F4F4F4;enable-background:new    ;}
	.st2{opacity:0.2;enable-background:new    ;}
	.st3{fill:#4D61FC;}
	.st4{opacity:0.23;fill:#6905D3;enable-background:new    ;}
	.st5{opacity:0.2;fill:#8411EA;enable-background:new    ;}
	.st6{opacity:0.2;fill:#AC76F4;enable-background:new    ;}
	.st7{fill:#B2B6BB;}
	.st8{opacity:0.3;enable-background:new    ;}
	.st9{fill:#61656D;}
	.st10{fill:#868A91;}
	.st11{fill:#540AC9;}
	.st12{fill:#DADDDF;}
	.st13{fill:#4513BF;}
	.st14{fill:#44048E;}
	.st15{fill:#3F4249;}
	.st16{fill:#F4F4F4;}
</style>
<path class="st0" d="M707.1,168.5c0.5-2.1-0.8-4.2-2.9-4.7c-2.1-0.5-4.2,0.8-4.7,2.9c-0.5,2.1,0.8,4.2,2.9,4.7
	C704.6,171.9,706.7,170.6,707.1,168.5z"/>
<path class="st0" d="M633.5,322.5c0.7-2.9-1.1-5.9-4.1-6.6s-5.9,1.1-6.6,4.1c-0.7,2.9,1.1,5.9,4.1,6.6S632.8,325.4,633.5,322.5z"/>
<path class="st0" d="M965.2,455.6c0.7-2.9-1.1-5.9-4.1-6.6c-2.9-0.7-5.9,1.1-6.6,4.1c-0.7,2.9,1.1,5.9,4.1,6.6
	C961.5,460.3,964.5,458.5,965.2,455.6z"/>
<path class="st0" d="M661.3,659.7c2.7-1.4,3.7-4.7,2.3-7.4s-4.7-3.7-7.4-2.3s-3.7,4.7-2.3,7.4C655.3,660,658.6,661.1,661.3,659.7z"
	/>
<path class="st0" d="M1017.2,365.8c0.7-2.9-1.1-5.9-4.1-6.6s-5.9,1.1-6.6,4.1c-0.7,2.9,1.1,5.9,4.1,6.6S1016.5,368.8,1017.2,365.8z"
	/>
<path class="st0" d="M991.7,545.3c0.7-2.9-1.1-5.9-4.1-6.6c-2.9-0.7-5.9,1.1-6.6,4.1c-0.7,2.9,1.1,5.9,4.1,6.6
	C988.1,550.1,991,548.2,991.7,545.3z"/>
<path class="st0" d="M381.4,429.7c0.4-1.6-0.6-3.2-2.2-3.5c-1.6-0.4-3.2,0.6-3.5,2.2c-0.4,1.6,0.6,3.2,2.2,3.5
	S381.1,431.3,381.4,429.7z"/>
<path class="st0" d="M542.5,253.2c0.4-1.6-0.6-3.2-2.2-3.5c-1.6-0.4-3.2,0.6-3.5,2.2c-0.4,1.6,0.6,3.2,2.2,3.5
	C540.5,255.8,542.1,254.8,542.5,253.2z"/>
<path class="st0" d="M631.6,534.4c1.4-0.7,2-2.5,1.2-4c-0.7-1.4-2.5-2-4-1.2c-1.4,0.7-2,2.5-1.2,4S630.1,535.1,631.6,534.4z"/>
<path class="st0" d="M855,182.6c0.4-1.6-0.6-3.2-2.2-3.5c-1.6-0.4-3.2,0.6-3.5,2.2c-0.4,1.6,0.6,3.2,2.2,3.5
	C853.1,185.2,854.7,184.2,855,182.6z"/>
<path class="st0" d="M412.5,605.3c0.4-1.6-0.6-3.2-2.2-3.5c-1.6-0.4-3.2,0.6-3.5,2.2c-0.4,1.6,0.6,3.2,2.2,3.5
	C410.5,607.8,412.1,606.8,412.5,605.3z"/>
<path class="st0" d="M1129.6,279.2c0.4-1.6-0.6-3.2-2.2-3.5c-1.6-0.4-3.2,0.6-3.5,2.2c-0.4,1.6,0.6,3.2,2.2,3.5
	C1127.6,281.7,1129.2,280.8,1129.6,279.2z"/>
<path class="st0" d="M935.2,127.8c0.4-1.6-0.6-3.2-2.2-3.5c-1.6-0.4-3.2,0.6-3.5,2.2c-0.4,1.6,0.6,3.2,2.2,3.5
	C933.3,130.3,934.8,129.3,935.2,127.8z"/>
<path class="st0" d="M1209.6,585.4c0.4-1.6-0.6-3.2-2.2-3.5c-1.6-0.4-3.2,0.6-3.5,2.2s0.6,3.2,2.2,3.5
	C1207.6,587.9,1209.2,587,1209.6,585.4z"/>
<path class="st0" d="M1216.9,480.9c0.4-1.6-0.6-3.2-2.2-3.5c-1.6-0.4-3.2,0.6-3.5,2.2c-0.4,1.6,0.6,3.2,2.2,3.5
	C1214.9,483.4,1216.5,482.4,1216.9,480.9z"/>
<path class="st0" d="M1275.4,643.3c0.4-1.6-0.6-3.2-2.2-3.5c-1.6-0.4-3.2,0.6-3.5,2.2c-0.4,1.6,0.6,3.2,2.2,3.5
	C1273.5,645.9,1275.1,644.9,1275.4,643.3z"/>
<path class="st0" d="M685.7,252.9c0.7-3.1-1.2-6.1-4.2-6.8c-3.1-0.7-6.1,1.2-6.8,4.2s1.2,6.1,4.2,6.8
	C681.9,257.9,685,256,685.7,252.9z"/>
<path class="st0" d="M887.3,381c0.4-1.6-0.6-3.2-2.2-3.5c-1.6-0.4-3.2,0.6-3.5,2.2c-0.4,1.6,0.6,3.2,2.2,3.5
	C885.3,383.6,886.9,382.6,887.3,381z"/>
<path class="st0" d="M1041.1,604.8c0.4-1.6-0.6-3.2-2.2-3.5c-1.6-0.4-3.2,0.6-3.5,2.2c-0.4,1.6,0.6,3.2,2.2,3.5
	C1039.2,607.4,1040.7,606.4,1041.1,604.8z"/>
<path class="st0" d="M968.4,707.8c0.4-1.6-0.6-3.2-2.2-3.5c-1.6-0.4-3.2,0.6-3.5,2.2s0.6,3.2,2.2,3.5
	C966.4,710.3,968,709.3,968.4,707.8z"/>
<path class="st0" d="M587.5,368.7c0.4-1.6-0.6-3.2-2.2-3.5c-1.6-0.4-3.2,0.6-3.5,2.2c-0.4,1.6,0.6,3.2,2.2,3.5
	C585.5,371.2,587.1,370.3,587.5,368.7z"/>
<path class="st0" d="M345.7,548.2c0.4-1.6-0.6-3.2-2.2-3.5c-1.6-0.4-3.2,0.6-3.5,2.2c-0.4,1.6,0.6,3.2,2.2,3.5
	C343.8,550.7,345.3,549.7,345.7,548.2z"/>
<path class="st0" d="M1236.8,407.6c0.4-1.6-0.6-3.2-2.2-3.5c-1.6-0.4-3.2,0.6-3.5,2.2c-0.4,1.6,0.6,3.2,2.2,3.5
	C1234.9,410.2,1236.4,409.2,1236.8,407.6z"/>
<path class="st0" d="M1042.1,448.5c0.4-1.6-0.6-3.2-2.2-3.5c-1.6-0.4-3.2,0.6-3.5,2.2s0.6,3.2,2.2,3.5S1041.7,450,1042.1,448.5z"/>
<path class="st0" d="M1248,715.8c0.4-1.6-0.6-3.2-2.2-3.5c-1.6-0.4-3.2,0.6-3.5,2.2c-0.4,1.6,0.6,3.2,2.2,3.5
	S1247.7,717.3,1248,715.8z"/>
<path class="st0" d="M439.9,479.9c0.4-1.6-0.6-3.2-2.2-3.5c-1.6-0.4-3.2,0.6-3.5,2.2c-0.4,1.6,0.6,3.2,2.2,3.5
	C437.9,482.4,439.5,481.4,439.9,479.9z"/>
<path class="st0" d="M731,378.4c0.5-2.1-0.8-4.2-2.9-4.7c-2.1-0.5-4.2,0.8-4.7,2.9s0.8,4.2,2.9,4.7S730.5,380.5,731,378.4z"/>
<path class="st0" d="M1077.3,532.8c0.5-2.1-0.8-4.2-2.9-4.7s-4.2,0.8-4.7,2.9c-0.5,2.1,0.8,4.2,2.9,4.7
	C1074.7,536.2,1076.8,534.9,1077.3,532.8z"/>
<path class="st0" d="M996.7,225.9c0.5-2.1-0.8-4.2-2.9-4.7c-2.1-0.5-4.2,0.8-4.7,2.9c-0.5,2.1,0.8,4.2,2.9,4.7
	C994.1,229.2,996.2,227.9,996.7,225.9z"/>
<path class="st0" d="M674.9,469.6c0.5-2.1-0.8-4.2-2.9-4.7c-2.1-0.5-4.2,0.8-4.7,2.9s0.8,4.2,2.9,4.7
	C672.3,473,674.4,471.7,674.9,469.6z"/>
<path class="st0" d="M306.1,736.5c0.5-2.1-0.8-4.2-2.9-4.7s-4.2,0.8-4.7,2.9c-0.5,2.1,0.8,4.2,2.9,4.7S305.6,738.6,306.1,736.5z"/>
<path class="st0" d="M1145.2,428c0.5-2.1-0.8-4.2-2.9-4.7s-4.2,0.8-4.7,2.9s0.8,4.2,2.9,4.7C1142.7,431.3,1144.8,430,1145.2,428z"/>
<path class="st0" d="M1171.7,318.9c0.5-2.1-0.8-4.2-2.9-4.7s-4.2,0.8-4.7,2.9s0.8,4.2,2.9,4.7S1171.2,321,1171.7,318.9z"/>
<path class="st0" d="M814.5,799.8c0.5-2.1-0.8-4.2-2.9-4.7c-2.1-0.5-4.2,0.8-4.7,2.9c-0.5,2.1,0.8,4.2,2.9,4.7
	C811.9,803.1,814,801.9,814.5,799.8z"/>
<path class="st0" d="M852.8,490.9c0.5-2.1-0.8-4.2-2.9-4.7c-2.1-0.5-4.2,0.8-4.7,2.9s0.8,4.2,2.9,4.7
	C850.2,494.2,852.3,493,852.8,490.9z"/>
<path class="st0" d="M895.2,300.5c0.5-2.1-0.8-4.2-2.9-4.7c-2.1-0.5-4.2,0.8-4.7,2.9s0.8,4.2,2.9,4.7
	C892.6,303.9,894.7,302.6,895.2,300.5z"/>
<path class="st1" d="M480.8,692.6l0.1-0.2C480.8,692.4,480.7,692.5,480.8,692.6z"/>
<path class="st1" d="M447.5,673.2c0.1,0.2,0.4,0.4,0.8,0.6C448.1,673.6,447.6,673.4,447.5,673.2z"/>
<path class="st1" d="M482.6,691.2c0.3-0.3,0.6-0.5,1-0.7C483.2,690.7,482.9,690.9,482.6,691.2z"/>
<path class="st1" d="M417.7,706.5c0,0.1,0.1,0.2,0.1,0.2L417.7,706.5z"/>
<path class="st1" d="M591.5,845.3l-0.4-0.6C591.3,844.9,591.4,845.1,591.5,845.3z"/>
<path class="st1" d="M340.3,757l0.5-0.1c0.1,0,0.2-0.1,0.3-0.1L340.3,757z"/>
<path class="st1" d="M357.7,747c0.1-0.1,0.2-0.2,0.2-0.4C357.9,746.8,357.8,746.9,357.7,747z"/>
<path class="st1" d="M630.8,935.3c0-0.1,0-0.1,0-0.2C630.8,935.1,630.8,935.2,630.8,935.3z"/>
<path class="st1" d="M1056.3,751.7c-0.2,0-0.4,0-0.6,0c-0.5,0-1,0-1.5,0C1054.8,751.8,1055.6,751.8,1056.3,751.7z"/>
<path class="st1" d="M1206.3,720.4l0.2-0.3C1206.5,720.2,1206.4,720.3,1206.3,720.4L1206.3,720.4z"/>
<path class="st1" d="M591.1,844.7c0-0.1-0.1-0.1-0.1-0.2C591,844.5,591.1,844.6,591.1,844.7z"/>
<path class="st1" d="M477.8,685.8c-0.3-0.7-0.7-1.3-1.1-1.9C476.8,683.8,477.3,684.6,477.8,685.8z"/>
<path class="st1" d="M875,939.3c0.2,0,0.3-0.1,0.5-0.1L875,939.3z"/>
<path class="st1" d="M1052.1,820.5c0.6-0.2,1.2-0.5,1.8-0.6C1053.6,820,1052.8,820.2,1052.1,820.5z"/>
<path class="st1" d="M1053.7,751.8c0.2,0,0.3,0,0.4,0C1054,751.8,1053.8,751.8,1053.7,751.8L1053.7,751.8z"/>
<path class="st2" d="M480.8,692.6l0.1-0.2C480.8,692.4,480.7,692.5,480.8,692.6z"/>
<path class="st2" d="M447.5,673.2c0.1,0.2,0.4,0.4,0.8,0.6C448.1,673.6,447.6,673.4,447.5,673.2z"/>
<path class="st2" d="M482.6,691.2c0.3-0.3,0.6-0.5,1-0.7C483.2,690.7,482.9,690.9,482.6,691.2z"/>
<path class="st2" d="M417.7,706.5c0,0.1,0.1,0.2,0.1,0.2L417.7,706.5z"/>
<path class="st2" d="M591.5,845.3l-0.4-0.6C591.3,844.9,591.4,845.1,591.5,845.3z"/>
<path class="st2" d="M340.3,757l0.5-0.1c0.1,0,0.2-0.1,0.3-0.1L340.3,757z"/>
<path class="st2" d="M357.7,747c0.1-0.1,0.2-0.2,0.2-0.4C357.9,746.8,357.8,746.9,357.7,747z"/>
<path class="st2" d="M630.8,935.3c0-0.1,0-0.1,0-0.2C630.8,935.1,630.8,935.2,630.8,935.3z"/>
<path class="st2" d="M1056.3,751.7c-0.2,0-0.4,0-0.6,0c-0.5,0-1,0-1.5,0C1054.8,751.8,1055.6,751.8,1056.3,751.7z"/>
<path class="st2" d="M1206.3,720.4l0.2-0.3C1206.5,720.2,1206.4,720.3,1206.3,720.4L1206.3,720.4z"/>
<path class="st2" d="M591.1,844.7c0-0.1-0.1-0.1-0.1-0.2C591,844.5,591.1,844.6,591.1,844.7z"/>
<path class="st2" d="M1052.1,820.5c0.6-0.2,1.2-0.5,1.8-0.6C1053.6,820,1052.8,820.2,1052.1,820.5z"/>
<path class="st2" d="M1053.7,751.8c0.2,0,0.3,0,0.4,0C1054,751.8,1053.8,751.8,1053.7,751.8L1053.7,751.8z"/>
<path class="st0" d="M751.2,860c0.1,0,0.2,0.1,0.3,0.1C751.4,860,751.3,860,751.2,860L751.2,860z"/>
<path class="st0" d="M673.1,853.2c-0.2,0,0,0.1,0.4,0.2L673.1,853.2z"/>
<path class="st3" d="M918.6,813.9h-53.4l-9.6,39.1c-10.4,41.8-7.5,85.7,8.2,125.8c8.5,21.6,18.5,39.7,28.2,39.7
	c9.6,0,19.6-18.1,28.1-39.7c15.7-40.1,18.5-84,8.2-125.8L918.6,813.9L918.6,813.9z"/>
<path class="st4" d="M918.6,814.1h-53.4l-9.6,39.1c-10.4,41.8-7.5,85.7,8.2,125.8c8.5,21.6,18.5,39.7,28.2,39.7
	c9.6,0,19.6-18.1,28.1-39.7c15.7-40.1,18.5-84,8.2-125.8L918.6,814.1L918.6,814.1z"/>
<path class="st5" d="M913.5,813.9h-43.2l-7.8,31.7c-8.4,33.8-6.1,69.4,6.6,101.8c6.9,17.5,15,32.1,22.8,32.1s15.9-14.7,22.8-32.1
	c12.7-32.4,15-68,6.6-101.8L913.5,813.9z"/>
<path class="st6" d="M908.4,813.9h-33.1l-6,24.2c-6.4,25.9-4.6,53.1,5.1,77.9c5.3,13.4,11.5,24.6,17.4,24.6s12.2-11.2,17.4-24.6
	c9.7-24.8,11.5-52,5.1-77.9L908.4,813.9L908.4,813.9z"/>
<path class="st0" d="M903.4,813.9h-22.9l-4.1,16.8c-4.4,17.9-3.2,36.8,3.5,53.9c3.7,9.2,7.9,17,12.1,17c4.1,0,8.4-7.8,12.1-17
	c6.7-17.2,8-36,3.5-53.9L903.4,813.9L903.4,813.9z"/>
<path class="st7" d="M914.5,789.8V786h9.3l-9.3-35.4h-47l-9.3,35.4h9.3v3.8h1.8l-6.5,25h56.4l-6.5-25H914.5z"/>
<path class="st2" d="M887.9,788.6h-20.1v-2.7h20.1V788.6z"/>
<path class="st2" d="M866.9,750.9l-8.7,34.6H887v-34.6H866.9z"/>
<path class="st2" d="M869.3,789.8l-6.9,25.2H888v-25.2H869.3z"/>
<path class="st7" d="M867.5,750.6h47.3V385.7h-4.3V379h4.3v-7.1L895.5,323h-8.8l-19.2,49v7.1h3.6v6.7h-3.6V750.6z"/>
<path class="st7" d="M867.5,750.6h47.3V385.7h-4.3V379h4.3v-7.1L895.5,323h-8.8l-19.2,49v7.1h3.6v6.7h-3.6V750.6z"/>
<path class="st2" d="M867.8,629h20.6v-61.5h-20.6V629z"/>
<path class="st2" d="M867.8,688.4h20.6v-58.6h-20.6V688.4z"/>
<path class="st2" d="M867.8,714.6h20.6v-25.9h-20.6V714.6z"/>
<path class="st2" d="M867.8,730.3h20.6v-18.5h-20.6V730.3z"/>
<path class="st2" d="M867.8,748.7h20.6v-18.6h-20.6V748.7z"/>
<path class="st8" d="M911.4,780.2H870l0.1-0.5l7.6-29.2l0.9,0.2l-7.5,28.6h39.2l-6.6-28.6l0.9-0.2L911.4,780.2z"/>
<path class="st2" d="M867.8,506.6h20.6v-60.1h-20.6V506.6z"/>
<path class="st2" d="M867.8,567.4h20.6v-59.8h-20.6V567.4z"/>
<path class="st2" d="M886.1,323l-18.3,49v7h3.7v6.7h-3.7v60.5h20.6v-60.5V379v-0.4V372v-48.9L886.1,323z"/>
<path class="st9" d="M914.7,690.5h-47.1v-1.8h47.1V690.5z"/>
<path class="st9" d="M915.8,717h-49.3v-5.4h49.3V717z"/>
<path class="st9" d="M915.8,735.5h-49.3v-5.4h49.3V735.5z"/>
<path class="st9" d="M915.8,753.9h-49.3v-5.4h49.3V753.9z"/>
<path class="st9" d="M914.7,629.7h-47.1V628h47.1V629.7z"/>
<path class="st9" d="M924,786.8h-66V785h66V786.8z"/>
<path class="st8" d="M908.9,809.3h-36.1l4.9-19.6l0.9,0.2l-4.6,18.5h33.8l-4.2-18.5l0.9-0.2L908.9,809.3z"/>
<path class="st8" d="M890.4,775.1h15.2v-8.6h-15.2V775.1z M906.5,776h-17v-10.4h17V776L906.5,776z"/>
<path class="st8" d="M906.1,773.8H890v-0.9h16.1V773.8z"/>
<path class="st9" d="M914.8,445.6h-47.3v1.8h47.3V445.6z"/>
<path class="st9" d="M914.8,506.3h-47.3v1.8h47.3V506.3z"/>
<path class="st9" d="M914.8,567.1h-47.3v1.8h47.3V567.1z"/>
<path class="st9" d="M910.5,379h4.3v-7.1l-0.2-0.5h-46.8l-0.2,0.6v7.1h3.6L910.5,379z"/>
<path class="st9" d="M914.8,391.6h-47.3v13.8h47.3V391.6z"/>
<path class="st9" d="M868.5,387h-1.8v-2h48.8v2h-1.8H868.5z"/>
<path class="st9" d="M914.8,788.2H867v1.8h47.9v-1.8H914.8z"/>
<path class="st9" d="M919.7,815.3h-57.3v-1.8h57.3V815.3z"/>
<path class="st3" d="M756.7,813.9h-53.4l-9.6,39.1c-10.4,41.8-7.5,85.7,8.2,125.8c8.5,21.6,18.5,39.7,28.2,39.7
	c9.6,0,19.6-18.1,28.1-39.7c15.7-40.1,18.5-84,8.2-125.8L756.7,813.9L756.7,813.9z"/>
<path class="st4" d="M756.7,814.1h-53.4l-9.6,39.1c-10.4,41.8-7.5,85.7,8.2,125.8c8.5,21.6,18.5,39.7,28.2,39.7
	c9.6,0,19.6-18.1,28.1-39.7c15.7-40.1,18.5-84,8.2-125.8L756.7,814.1L756.7,814.1z"/>
<path class="st5" d="M751.6,813.9h-43.2l-7.8,31.7c-8.4,33.8-6.1,69.4,6.6,101.8c6.9,17.5,15,32.1,22.8,32.1s15.9-14.7,22.8-32.1
	c12.7-32.4,15-68,6.6-101.8L751.6,813.9z"/>
<path class="st6" d="M746.5,813.9h-33.1l-6,24.2c-6.4,25.9-4.6,53.1,5.1,77.9c5.3,13.4,11.5,24.6,17.4,24.6c6,0,12.2-11.2,17.4-24.6
	c9.7-24.8,11.5-52,5.1-77.9L746.5,813.9L746.5,813.9z"/>
<path class="st0" d="M741.4,813.9h-22.9l-4.1,16.8c-4.4,17.9-3.2,36.8,3.5,53.9c3.7,9.2,7.9,17,12.1,17c4.1,0,8.4-7.8,12.1-17
	c6.7-17.2,8-36,3.5-53.9L741.4,813.9L741.4,813.9z"/>
<path class="st7" d="M752.5,789.8V786h9.3l-9.3-35.4h-47l-9.3,35.4h9.3v3.8h1.8l-6.5,25h56.4l-6.5-25H752.5z"/>
<path class="st2" d="M725.9,788.6h-20.1v-2.7h20.1V788.6z"/>
<path class="st2" d="M704.9,750.9l-8.7,34.6H725v-34.6H704.9z"/>
<path class="st2" d="M707.3,789.8l-6.9,25.2H726v-25.2H707.3z"/>
<path class="st7" d="M705.6,750.6h47.3V385.7h-4.3V379h4.3v-7.1L733.5,323h-8.8l-19.1,49v7.1h3.5v6.7h-3.5V750.6z"/>
<path class="st7" d="M705.6,750.6h47.3V385.7h-4.3V379h4.3v-7.1L733.5,323h-8.8l-19.1,49v7.1h3.5v6.7h-3.5V750.6z"/>
<path class="st2" d="M705.8,629h20.6v-61.5h-20.6V629z"/>
<path class="st2" d="M705.8,689.8h20.6V628h-20.6V689.8z"/>
<path class="st2" d="M705.8,714.6h20.6v-25.9h-20.6V714.6z"/>
<path class="st2" d="M705.8,730.3h20.6v-18.5h-20.6V730.3z"/>
<path class="st2" d="M705.8,748.7h20.6v-18.6h-20.6V748.7z"/>
<path class="st8" d="M749.4,780.2H708l0.1-0.5l7.6-29.2l0.9,0.2l-7.5,28.6h39.2l-6.6-28.6l0.9-0.2L749.4,780.2z"/>
<path class="st2" d="M705.8,506.6h20.6v-60.1h-20.6V506.6z"/>
<path class="st2" d="M705.8,567.4h20.6v-59.8h-20.6V567.4z"/>
<path class="st2" d="M724.1,323l-18.3,49v7h3.7v6.7h-3.7v60.5h20.6v-60.5V379v-0.4V372v-48.9L724.1,323z"/>
<path class="st9" d="M752.7,690.5h-47.1v-1.8h47.1V690.5z"/>
<path class="st9" d="M753.8,717h-49.3v-5.4h49.3V717z"/>
<path class="st9" d="M753.8,735.5h-49.3v-5.4h49.3V735.5z"/>
<path class="st9" d="M753.8,753.9h-49.3v-5.4h49.3V753.9z"/>
<path class="st9" d="M752.7,629.7h-47.1V628h47.1V629.7z"/>
<path class="st9" d="M762.1,786.8h-66V785h66V786.8z"/>
<path class="st8" d="M746.9,809.3h-36l4.9-19.6l0.9,0.2l-4.6,18.5h33.8l-4.2-18.5l0.9-0.2L746.9,809.3z"/>
<path class="st8" d="M728.4,775.1h15.2v-8.6h-15.2V775.1z M744.6,776h-17v-10.4h17V776L744.6,776z"/>
<path class="st8" d="M744.1,773.8H728v-0.9h16.1V773.8z"/>
<path class="st9" d="M752.8,445.6h-47.3v1.8h47.3V445.6z"/>
<path class="st9" d="M752.8,506.3h-47.3v1.8h47.3V506.3z"/>
<path class="st9" d="M752.8,567.1h-47.3v1.8h47.3V567.1z"/>
<path class="st9" d="M748.5,379h4.3v-7.1l-0.2-0.5h-46.9l-0.2,0.6v7.1h3.5L748.5,379z"/>
<path class="st9" d="M752.8,391.6h-47.3v13.8h47.3V391.6z"/>
<path class="st9" d="M706.5,387h-1.8v-2h48.8v2h-1.8H706.5z"/>
<path class="st9" d="M752.9,788.2H705v1.8h47.8v-1.8H752.9z"/>
<path class="st9" d="M757.7,815.3h-57.3v-1.8h57.3V815.3z"/>
<path class="st10" d="M867.4,449.1h-5.9V410h5.9V449.1z"/>
<path class="st10" d="M759,449.1h-6.4V410h6.4V449.1z"/>
<path class="st11" d="M758,517.2V328.3c3.3-40,21.3-70.1,52.2-91.2c30.7,20.7,48.4,49.8,51.8,88.1v192L758,517.2z"/>
<path class="st8" d="M778.1,270.1h64.2v0.1h1.1c-0.4-0.6-0.8-1.2-1.2-1.8H778c-0.4,0.6-0.8,1.2-1.2,1.8L778.1,270.1L778.1,270.1
	L778.1,270.1z"/>
<path class="st8" d="M862,346.7h-1.4H758.9h-0.8v1.6H862V346.7z"/>
<path class="st8" d="M862,350.4H758v83.1h104V350.4z M762.8,431.7h-3v-79.6h3V431.7z M769.9,431.7h-5.4v-79.6h5.4V431.7z M777,431.7
	h-5.4v-79.6h5.4V431.7z M784.2,431.7h-5.4v-79.6h5.4V431.7z M791.3,431.7H786v-79.6h5.4L791.3,431.7z M798.5,431.7h-5.4v-79.6h5.4
	V431.7z M805.6,431.7h-5.4v-79.6h5.4V431.7z M812.8,431.7h-5.4v-79.6h5.4V431.7z M819.9,431.7h-5.4v-79.6h5.4V431.7z M827,431.7
	h-5.4v-79.6h5.4V431.7z M834.2,431.7h-5.4v-79.6h5.4V431.7z M841.3,431.7h-5.4v-79.6h5.4V431.7z M848.5,431.7h-5.4v-79.6h5.4V431.7z
	 M855.6,431.7h-5.4v-79.6h5.4V431.7z M857.3,431.7v-79.6h3.3v79.6H857.3z"/>
<path class="st8" d="M759.8,437.2h100.8h1.4v-1.7H758v1.7H759.8z"/>
<path class="st2" d="M763.8,517.2V328.3c3-40,18.8-70.1,46.2-91.2c0,45-0.2,280.1-0.2,280.1H763.8z"/>
<path class="st12" d="M942.5,689.4l-3.1-39.4c-0.3-3.9-1.9-7.5-4.6-10.3l-57.4-59.3c-1.3-1.3-2.2-3-2.5-4.9
	c-1.7-8.7-7.7-39.4-13.8-67.3c-9.8-44.6-13.3-52.2-15-53.5V454c0-55.3-18.9-96.6-35.9-96.6s-35.9,41.3-35.9,96.6v0.7
	c-1.7,1.3-5.3,8.9-15,53.5c-6.1,27.9-12.1,58.6-13.8,67.3c-0.4,1.8-1.2,3.5-2.5,4.9l-57.4,59.3c-2.7,2.8-4.3,6.4-4.6,10.3l-3.1,39.4
	l87.9,30.3c0,3.9,0.2,8,0.5,12.3c0,4.1,6,5,8.9,5.2c-0.1,0.4-0.2,0.7-0.2,1.1c-0.1,0.5-0.1,0.9,0.1,1.4c0.1,0.4,0.3,0.9,0.7,1.2
	c2.9,3.7,14.1,6.9,21.7,7.1c3.2,1.6,8.3,2.4,13,2.6c4.6-0.2,9.7-1,12.9-2.6c7.5-0.2,18.8-3.4,21.6-7.1c0.3-0.3,0.5-0.7,0.7-1.2
	c0.1-0.4,0.1-0.9,0.1-1.3c-0.1-0.4-0.2-0.8-0.3-1.2c3-0.3,8.6-1.2,8.6-5.1c0.3-4.3,0.5-8.3,0.5-12.3L942.5,689.4L942.5,689.4z"/>
<path class="st2" d="M802.3,367.8c-10.2,6.4-12.9,46.2-14.1,56.6h6.4c-1.7,6.8-0.6,18.4,5.4,18.4h4.3v213
	c-10.7,3.4-19.5,8.5-26.5,17.3V451.2C778.7,409.5,790,373.5,802.3,367.8L802.3,367.8z"/>
<path class="st2" d="M774.9,482v194.7l-2.4,5.9c-1.2,2.8-2.1,5.8-2.7,8.9c-0.8,4.7-2.3,8.7-2.6,15.7s-0.7,8.1-0.7,8.1L692.2,693v-11
	h-3v-8.7l3.5-14.6c0.7-2.9,2.1-5.5,4.2-7.6l50.5-52.6c2.5-2.6,4.2-5.8,5-9.4L774.9,482L774.9,482z"/>
<path class="st2" d="M807.5,657.1c0,0-1.7,16.6-2.1,32c-0.4,15.3-1.3,32.5-1.3,32.5l-28.2-1.8v16.4l-6.5-1.5c0,0-2.9-34,5.9-53.4
	C784.9,660.2,807.5,657.1,807.5,657.1z"/>
<path class="st9" d="M802.3,413.8l-2.2-6.4l-2.6-0.2l-4.7,5l3.9,5.7L802.3,413.8z"/>
<path class="st9" d="M796,418.4l-3-4.4l-3.7,2.6l-1.1,7.8h6.4L796,418.4z"/>
<path class="st9" d="M810.2,414.9h6.7l3.5-10.5l-10.2-1.8l-10.2,1.8l3.5,10.5H810.2z"/>
<path class="st9" d="M818.1,413.8l5.6,4l3.9-5.7l-4.7-5l-2.6,0.2L818.1,413.8z"/>
<path class="st9" d="M824.4,418.4l1.4,5.9h6.4l-1.1-7.8l-3.7-2.6L824.4,418.4z"/>
<path class="st8" d="M800,442.7h8.6v-8.6H800V442.7z"/>
<path class="st8" d="M811.8,442.7h8.6v-8.6h-8.6V442.7z"/>
<path class="st13" d="M823.2,748.6c0.4-0.5,0.6-1.1,0.6-1.8c0.2-7.7-2.1-19-5-24.6l19.6-1.1c3.6,4,6.6,12.5,7.8,19
	c0,0.1,0.1,0.5-0.3,1C844.1,743.5,835.7,747.8,823.2,748.6L823.2,748.6z"/>
<path class="st2" d="M825,748.6c12.5-0.8,19-5.2,20.9-7.6c0.4-0.5,0.4-0.9,0.3-1c0-0.1-0.1-0.3-0.1-0.5c-17.1,9.3-17.8,0.8-17.8,0.8
	c-0.8-6.2-2.5-12.2-5.1-17.9l-0.9-0.5l-1.6,0.2c2.9,5.6,5.2,16.9,5,24.6C825.6,747.5,825.4,748.1,825,748.6L825,748.6z"/>
<path class="st13" d="M796.8,748.6c-0.4-0.5-0.6-1.1-0.7-1.8c-0.2-7.7,2.1-19,5-24.6l-19.6-1.1c-3.6,4-6.6,12.5-7.8,19
	c0,0.1-0.1,0.5,0.3,1C776,743.5,784.3,747.8,796.8,748.6L796.8,748.6z"/>
<path class="st2" d="M781.4,742.2c-5.5-4.6,4-19.6,4-19.6l0.6-1.3l-4.5-0.2c-3.6,4-6.6,12.5-7.8,19c0,0.1-0.1,0.5,0.3,1
	c1.9,2.4,8.2,5.8,21.1,7.6c-0.3-0.3-0.6-0.7-0.8-1.2l-0.4-0.1C784.7,746.1,781.4,742.2,781.4,742.2z"/>
<path class="st14" d="M795.9,747.4c-0.2-8.1,2.2-19.8,5.2-25.5l2.5,0.1c-0.1,4.2-0.1,8.1-0.1,11.7c0,4.6,1.8,9.9,6.7,9.9
	c5,0,6.7-5.3,6.7-9.9c0-3.6-0.1-7.5-0.1-11.7l2.5-0.1c3,5.7,5.4,17.3,5.2,25.5c0,2.2-6.8,3.2-14.3,3.6
	C802.7,750.6,795.9,749.6,795.9,747.4L795.9,747.4z"/>
<path class="st2" d="M795.9,747.5c-0.2-8.1,2.2-19.8,5.2-25.5l2.5,0.1c-0.1,4.2-0.1,8.1-0.1,11.7c0,4.6,1.8,9.9,6.7,9.9
	c5,0,6.7-5.3,6.7-9.9c0-3.6-0.1-7.5-0.1-11.7l2.5-0.1c3,5.7,5.4,17.3,5.2,25.5c0,2.2-6.8,3.2-14.3,3.6
	C802.7,750.8,795.9,749.7,795.9,747.5L795.9,747.5z"/>
<path class="st2" d="M810.2,643.3v100.4l-4-1.6C805,717.6,807.3,681.6,810.2,643.3z"/>
<path class="st3" d="M749.3,649.4c0,2.3-0.7,4.5-2,6.4s-3.1,3.4-5.2,4.3c-2.1,0.9-4.4,1.1-6.7,0.7c-2.2-0.4-4.3-1.6-5.9-3.2
	c-1.6-1.6-2.7-3.7-3.2-5.9c-0.4-2.2-0.2-4.6,0.7-6.7c0.9-2.1,2.4-3.9,4.3-5.2c1.9-1.3,4.1-1.9,6.4-1.9c1.5,0,3,0.3,4.4,0.9
	c1.4,0.6,2.7,1.4,3.8,2.5s1.9,2.4,2.5,3.8C749,646.4,749.3,647.9,749.3,649.4L749.3,649.4z"/>
<path class="st8" d="M866.1,541.1h-20.7v-0.5h20.7V541.1z"/>
<path class="st8" d="M775.2,541.1h-20.7v-0.5h20.7V541.1z"/>
<path class="st8" d="M837.5,650h4.9v-7.7h-4.9V650z M842.9,650.5H837v-8.7h5.9V650.5L842.9,650.5z"/>
<path class="st8" d="M777.8,650h4.9v-7.7h-4.9V650z M783.2,650.5h-5.9v-8.7h5.9V650.5z"/>
<path class="st8" d="M850.3,668.9h8.3v-11.5h-8.3V668.9z M859.1,669.4h-9.4v-12.6h9.4V669.4L859.1,669.4z"/>
<path class="st8" d="M762.1,668.9h8.3v-11.5h-8.3V668.9z M771,669.4h-9.4v-12.6h9.4V669.4L771,669.4z"/>
<path class="st8" d="M766.2,706.8l-72.4-18.4l0.2-6.6h0.9l-0.1,5.9l71.7,18.3L766.2,706.8z"/>
<path class="st8" d="M853.3,706.8l-0.2-0.9l73.4-18.3l-0.1-5.9h0.9l0.2,6.6L853.3,706.8z"/>
<path class="st8" d="M829.3,391.9l-1.9-7.5h-34.7l-1.8,7.5l-0.5-0.1l1.9-7.9h35.5l2,7.9L829.3,391.9z"/>
<path class="st8" d="M783.2,424.6h-6.8v-0.5h6.2v-13.8l2.5-2.5v-16h0.5V408l-2.5,2.5L783.2,424.6L783.2,424.6z"/>
<path class="st8" d="M843.7,424.6h-6.8v-14.1l-2.5-2.5v-16.2h0.5v16l2.5,2.5v13.8h6.2L843.7,424.6L843.7,424.6z"/>
<path class="st8" d="M795.6,409.9h-0.5v-10.5l15-3.6h0.1l14.5,3.6v9.9h-0.5v-9.4l-14.1-3.5l-14.4,3.5L795.6,409.9L795.6,409.9z"/>
<path class="st8" d="M789.6,720.8c-1.1-24.1,1.3-39.8,7.8-51l0.5,0.3c-6.4,11.1-8.8,26.7-7.7,50.7H789.6L789.6,720.8z"/>
<path class="st8" d="M775.3,720.8c-1.4-24.1,1.7-39.8,10-51l0.4,0.3c-5.6,7.4-11.8,19.9-10,50.6L775.3,720.8L775.3,720.8z"/>
<path class="st8" d="M830.6,720.8h-0.5c1.1-24-1.3-39.6-7.7-50.7l0.5-0.3C829.3,681,831.7,696.7,830.6,720.8L830.6,720.8z"/>
<path class="st8" d="M844.9,720.8h-0.5c1.4-24-1.6-39.6-10-50.6l0.4-0.3C843.2,681,846.3,696.7,844.9,720.8L844.9,720.8z"/>
<path class="st15" d="M831.1,377.3c-6.3-12.6-13.7-19.9-20.9-19.9s-14.6,7.3-20.9,19.9h10.1l3.4,3v2h14.6v-2l3.4-3H831.1
	L831.1,377.3z"/>
<path class="st15" d="M835.2,393h2.2c-0.2-0.6-0.4-1.2-0.6-1.8H822v-3.9h-23.7v3.9h-14.7c-0.2,0.6-0.4,1.2-0.6,1.8H835.2z"/>
<path class="st15" d="M939.5,650c-0.3-3.8-1.9-7.5-4.6-10.3l-57.4-59.3c-1.3-1.3-2.2-3-2.5-4.9c-1.7-8.7-7.7-39.4-13.8-67.3
	c-9.8-44.6-13.3-52.2-15-53.5h-1.8v220.2c-6.8-10.8-17-17.6-30.7-20.5c-1.4-12.2-2.6-12.2-3.4-12.2s-2,0-3.4,12.2
	c-13.7,2.9-23.9,9.5-30.7,20.1V454.7h-1.8v0.1c-1.7,1.3-5.3,8.9-15,53.5c-6.1,27.9-12.1,58.6-13.8,67.3c-0.4,1.8-1.2,3.5-2.5,4.9
	l-57.4,59.3c-2.7,2.8-4.3,6.4-4.6,10.2l-3.1,39.4l87.9,30.3c0,3.9,0.2,8,0.5,12.3c0,4.1,6,5,8.9,5.2c0,0,2.2-9.7,7-15.7l2.5,0.1
	l13.8,0.7l2,0.1l2.7,0.1c-0.1,4.3-0.1,8.4-0.1,12.1c0,4.8,1.9,10.3,7.2,10.3s7.2-5.5,7.2-10.3c0-3.7,0-7.8-0.1-12.1h0.9l1.7-0.1
	l2-0.1l13.8-0.7l2.3-0.1c0,0,4.7,4.2,7.1,15.7c3-0.3,8.6-1.2,8.6-5.1c0.3-4.3,0.5-8.3,0.5-12.3l88.2-30.4L939.5,650z M936.7,674.4
	h2.9l0.5,6.4h-3.4V674.4z M935.8,674.4v6.4h-6.2v-6.4H935.8z M846.1,467.6l18.9,81.6l-2.8,7.2v0.3c2.6,12.7,4.6,23.1,5.6,28.2
	c0.4,2.2,1.5,4.2,3,5.8l57.4,59.3c2.4,2.5,3.8,5.7,4.1,9.2l1,13.6h-87.2V467.6z M928.8,674.4v6.4h-6.2v-6.4H928.8z M921.7,674.4v6.4
	h-6.2v-6.4H921.7z M914.6,674.4v6.4h-6.2v-6.4H914.6z M907.6,674.4v6.4h-6.2v-6.4H907.6z M893.5,674.4v6.4h-6.2v-6.4H893.5z
	 M886.4,674.4v6.4h-6.2v-6.4H886.4z M879.4,674.4v6.4h-6.2v-6.4H879.4z M872.3,674.4v6.4h-6.2v-6.4H872.3z M865.3,674.4v6.4h-6.2
	v-6.4H865.3z M858.3,674.4v6.4H852v-6.4H858.3z M846.1,677.8v-3.4h5.1v6.4h-3.7c-0.5-1-1-2-1.5-3H846.1z M836.6,667.8
	c-2.7,0.6-9.4,1.7-21.5,1.8c-0.4-5.5-0.8-9.8-1.2-13.3C823.1,658.3,830.6,662.1,836.6,667.8L836.6,667.8z M806.6,656.2
	c-0.4,3.5-0.8,7.9-1.1,13.4c-12.3,0-19.1-1.2-21.8-1.8C789.6,662.1,797.2,658.2,806.6,656.2L806.6,656.2z M688.1,659
	c0.3-3.4,1.7-6.7,4.1-9.2l57.4-59.3c1.5-1.6,2.6-3.6,3-5.8c1-5,3-15.4,5.6-28.2v-0.3l-2.8-7.2l18.9-81.6v205h-87.1L688.1,659z
	 M774.3,674.4v3.1c-0.6,1.1-1.2,2.2-1.7,3.3h-3.4v-6.4L774.3,674.4L774.3,674.4z M768.3,674.4v6.4h-6.2v-6.4H768.3z M761.3,674.4
	v6.4h-6.2v-6.4H761.3z M754.3,674.4v6.4h-6.2v-6.4H754.3z M747.3,674.4v6.4h-6.2v-6.4H747.3z M740.2,674.4v6.4H734v-6.4H740.2z
	 M733.2,674.4v6.4H727v-6.4H733.2z M719.1,674.4v6.4h-6.2v-6.4H719.1z M712.1,674.4v6.4h-6.2v-6.4H712.1z M705,674.4v6.4h-6.2v-6.4
	H705z M697.9,674.4v6.4h-6.2v-6.4H697.9z M684.7,674.4h6.2v6.4h-6.2V674.4z M681,674.4h2.9v6.4h-3.4L681,674.4z M723.4,700.5
	l-41.8-11.7l-1.7-0.6l0.4-5.5l43.1,2.5V700.5z M726.2,680.8h-6.3v-6.4h6.2L726.2,680.8z M766,712.4l-39.4-11v-16l43.3,2.6
	C767.5,695.9,766.2,704.2,766,712.4L766,712.4z M803.2,720.8l-28-1.4v16c-3.4-0.3-7-1.2-7-3.5c-0.6-7.4-0.6-14.7-0.2-22.1
	c3.1,1,13.2,3.6,35.5,3.7C803.3,716,803.2,718.4,803.2,720.8L803.2,720.8z M803.5,711.8c-23.3,0-33.3-3-35.4-3.7
	c0.3-4.1,0.8-8.2,1.7-12.2c3,1.2,12.3,3.9,34.2,3.9C803.6,703.8,803.5,707.8,803.5,711.8L803.5,711.8z M804,698
	c-22.5,0-31.5-3-33.9-3.9c0.9-4.1,2.2-8.1,3.8-11.9c3,1,11.6,3.2,30.6,3.3C804.2,689.5,804,693.7,804,698L804,698z M774.7,680.5
	c0.4-0.9,0.9-1.8,1.4-2.7h0.1v-0.2c1.7-3,3.7-5.7,6-8.3c1.7,0.5,8.7,2,23.2,2.1c-0.1,1.7-0.2,3.5-0.4,5.3c-0.1,2.3-0.3,4.5-0.4,6.9
	c-18.6-0.1-27.1-2.2-30-3.2L774.7,680.5z M810.3,743.2c-5.2,0-5.5-7.1-5.5-8.5c0-31.8,2.8-83,5.5-90.2c2.6,7.2,5.5,58.3,5.5,90.2
	C815.7,736.1,815.4,743.2,810.3,743.2L810.3,743.2z M815.6,676.7c-0.1-1.9-0.2-3.7-0.4-5.3c14.3-0.1,21.1-1.6,22.9-2.1
	c3.1,3.3,5.6,7.1,7.6,11.2c-2.9,1-11.4,3.1-29.7,3.1C815.8,681.3,815.6,679,815.6,676.7L815.6,676.7z M816.1,685.4
	c18.8-0.1,27.4-2.2,30.4-3.3c1.6,3.8,2.9,7.8,3.8,11.9c-2.4,1-11.3,3.9-33.6,3.9C816.4,693.7,816.2,689.5,816.1,685.4L816.1,685.4z
	 M816.7,699.7c21.7,0,30.9-2.7,33.9-3.9c0.8,4,1.3,8.1,1.6,12.2c-2.2,0.8-12,3.7-35.2,3.7c-0.1-3.9-0.3-8-0.4-12H816.7z M852.1,732
	c0,2.2-3.6,3.1-7,3.4v-16l-27.8,1.3c0-2.4-0.1-4.8-0.2-7.2c22.1-0.1,32.2-2.7,35.2-3.7C852.7,717.2,852.7,724.6,852.1,732L852.1,732
	z M893.9,701.4l-39.7,11.1c-0.3-8.3-1.6-16.5-4-24.5l43.7-2.6V701.4z M894.4,674.4h6.2v6.4h-6.2V674.4z M897.1,700.5v-15.2l43.1-2.5
	l0.4,5.5l-1.7,0.6L897.1,700.5z"/>
<path class="st0" d="M752,645.7h-28.5v7.4H752V645.7z"/>
<path class="st3" d="M884.5,645.6H856v6.4h28.5V645.6z"/>
<path class="st2" d="M800.4,743.6c-0.3-7.8,1.8-21.1,1.8-21.1l-1.3-0.4c-3,5.8-5.3,17.2-5.1,25.2c0,2.2,6.8,3.3,14.3,3.6
	c7.5-0.3,14.3-1.4,14.3-3.6C798.6,751.6,800.4,743.6,800.4,743.6z"/>
<path class="st16" d="M1206.3,720.4c-0.2,0.3-0.5,0.5-0.7,0.8C1205.9,721.3,1206.1,720.8,1206.3,720.4z"/>
<path class="st16" d="M592.1,846.2c-0.2-0.3-0.4-0.6-0.5-0.9C591.7,845.6,591.9,845.9,592.1,846.2z"/>
</svg>
